<?xml version="1.0" encoding="utf-8"?>
<!-- Generator: Adobe Illustrator 14.0.0, SVG Export Plug-In . SVG Version: 6.00 Build 43363)  -->
<!DOCTYPE svg PUBLIC "-//W3C//DTD SVG 1.1//EN" "http://www.w3.org/Graphics/SVG/1.1/DTD/svg11.dtd">
<svg version="1.1" id="Layer_1" xmlns="http://www.w3.org/2000/svg" xmlns:xlink="http://www.w3.org/1999/xlink" x="0px" y="0px"
	 width="124.145px" height="102.256px" viewBox="0 0 124.145 102.256" enable-background="new 0 0 124.145 102.256"
	 xml:space="preserve">
<g>
	<path fill="#1A171B" d="M33.181,5.304c-0.733,0.649-1.918,0.734-2.708,1.467c0.254,0.875,0.649,1.693,1.128,2.483
		c1.101-0.028,2.85-2.455,3.273-0.113l0.338,0.903l-2.596,1.354c0.367,0.875,0.508,2.37,1.467,2.482l2.37-1.129
		c0.311,0.706,0.846,1.327,0.903,2.145l-4.401,2.031L27.765,5.643c1.326-0.875,2.906-1.664,4.514-2.144L33.181,5.304L33.181,5.304z"
		/>
	<path fill="#1A171B" d="M28.554,19.862l-1.241,0.903c-3.527-2.483-7.082-4.91-10.496-7.674c0.479-0.395,1.044-1.382,1.806-1.015
		l6.884,5.191v-0.677l-3.16-7.787l1.354-1.129C25.422,11.596,27.087,15.743,28.554,19.862L28.554,19.862z"/>
	<path fill="#1A171B" d="M83.514,11.398l-0.112,0.564c-1.834,2.342-4.514,4.345-5.868,6.884c-0.254,0.931,0.311,1.608,1.015,2.031
		c1.045,0.283,1.976-0.366,2.71-1.128l4.966-5.529c0.592-0.226,0.987,0.677,1.466,1.015c-1.833,2.398-3.894,4.684-6.206,6.884
		c-1.101,0.818-2.624,1.27-3.95,0.903c-1.016-0.338-1.919-1.241-2.258-2.257c-0.31-4.542,4.543-6.969,6.998-10.383
		C82.781,10.496,83.092,11.06,83.514,11.398L83.514,11.398z"/>
	<path fill="#1A171B" d="M23.024,24.151c-0.084,0.621-0.677,1.044-1.016,1.58C18.99,23.445,16,20.568,12.98,18.057
		c-0.31-0.226-0.706-0.733-0.226-1.016l0.903-0.903L23.024,24.151L23.024,24.151z"/>
	<g>
		<defs>
			<rect id="SVGID_1_" width="124.145" height="102.256"/>
		</defs>
		<clipPath id="SVGID_2_">
			<use xlink:href="#SVGID_1_"  overflow="visible"/>
		</clipPath>
		<path clip-path="url(#SVGID_2_)" fill="#1A171B" d="M93.671,22.345c-0.592,0.367-1.044,1.1-1.806,1.129
			c-0.338-0.423-0.563-0.875-1.016-1.242l-8.238,6.094c-0.396-0.395-1.072-0.847-1.128-1.467c2.511-2.229,5.332-4.148,8.012-6.208
			c0.142-0.762-1.016-1.1-0.676-1.806l1.466-1.016C91.583,19.157,92.712,20.765,93.671,22.345L93.671,22.345z"/>
		<path clip-path="url(#SVGID_2_)" fill="#1A171B" d="M117.259,22.684c-0.734,0.62-1.722,1.354-2.033,2.256l1.581,1.693
			c0.847-0.508,1.58-1.27,2.369-1.918l1.468,1.692l-2.031,2.145c0.339,0.79,1.241,1.298,1.692,2.031
			c0.988-0.282,1.552-1.665,2.596-1.806c0.282,0.649,1.297,1.016,1.241,1.806l-3.61,3.16c-2.794-2.99-5.729-6.15-8.239-9.367
			l0.113-0.338c1.241-1.016,2.342-2.398,3.724-3.047C116.383,21.612,117.371,21.922,117.259,22.684L117.259,22.684z"/>
	</g>
	<path fill="#1A171B" d="M11.175,22.458c-0.282,0.762-1.467,1.918,0.113,2.257l7.448,4.853c0.283,0.592-0.451,1.044-0.677,1.58
		h-0.451l-8.238-5.304c-0.621,0.255-0.706,0.932-1.128,1.355c-0.592-0.367-1.27-0.593-1.805-1.129l3.047-4.74
		C10.046,21.668,10.667,21.979,11.175,22.458L11.175,22.458z"/>
	<path fill="#1A171B" d="M69.069,21.894c-6.855,6.884-11.06,15.292-15.573,23.361L45.37,61.618
		c-3.612,6.235-8.605,12.697-14.897,17.041h-0.339c-4.457-6.855-8.069-14.078-10.496-21.781c1.891-4.062,3.414-8.266,5.643-12.188
		c2.285,5.586,4.374,11.427,7.11,16.928c2.821-2.736,5.05-5.925,7.223-9.028l8.239-12.64C53.637,32.502,60.944,25.59,69.069,21.894
		L69.069,21.894z"/>
	<path fill-rule="evenodd" clip-rule="evenodd" fill="#1A171B" d="M102.023,24.151l-4.74,4.853l-7.561,10.833l-4.515,7.562
		L77.42,61.506c-4.006,6.658-9.536,13.684-16.59,17.493c-3.667-7.252-7.843-14.277-9.479-22.346l5.755-11.85
		c0.198-0.084,0.085-0.395,0.339-0.338c1.833,5.981,3.865,11.878,6.545,17.492C74.656,51.18,80.327,36.959,93.785,28.439
		c2.651-1.75,5.389-3.245,8.238-4.515V24.151L102.023,24.151z"/>
	<path fill="#1A171B" d="M114.664,36.227l1.918-1.918c0.593,0.592,1.58,1.044,1.467,1.805c-0.903,1.1-2.031,2.116-3.047,3.16
		l-8.916-8.464c-0.366-0.677,0.678-1.044,1.017-1.581l0.338,0.113L114.664,36.227L114.664,36.227z"/>
	<path fill="#1A171B" d="M41.307,32.276c2.115,3.865,1.552,9.705-1.241,13.091c-1.327,1.382-3.104,2.06-5.079,1.58
		c-4.232-1.918-4.965-6.941-4.627-11.172c0.423-2.145,1.156-4.429,3.386-5.53C36.341,28.721,39.699,29.907,41.307,32.276
		L41.307,32.276z"/>
	<path fill="#1A171B" d="M73.922,32.841c2.173,4.062,1.495,10.015-1.581,13.43c-1.297,1.157-3.073,1.467-4.852,1.128
		c-2.991-1.27-4.091-4.515-4.515-7.449c-0.395-3.583,0.226-7.307,3.386-9.254C68.957,29.54,72.455,30.104,73.922,32.841
		L73.922,32.841z"/>
	<path fill="#1A171B" d="M15.689,35.097c-0.253,0.593-0.311,2.003-1.241,1.58C10.751,35.182,7,33.828,3.388,32.163l0.677-1.58
		C7.987,31.966,11.795,33.659,15.689,35.097L15.689,35.097z"/>
	<path fill="#1A171B" d="M4.516,39.16c-0.479,0.142-0.987,0.537-1.241,1.017c-0.141,0.648,0.621,1.015,1.016,1.354
		c2.37,0.846,2.567-2.737,4.74-2.709c1.975-0.169,3.696,0.508,4.852,2.031c0.48,1.128,0.17,2.483-0.564,3.385
		c-0.479,0.368-0.931,0.819-1.58,0.791l-1.241-1.242c0.536-0.451,1.693-1.213,1.241-2.145c-0.479-0.874-1.579-1.072-2.482-0.79
		c-0.931,1.072-1.777,2.568-3.272,2.709c-1.89,0.169-3.64-0.507-4.627-2.031c-0.311-0.734-0.424-1.947,0.112-2.596
		c0.311-0.592,0.932-0.959,1.467-1.241C3.473,38.173,4.234,38.568,4.516,39.16L4.516,39.16z"/>
	<path fill="#1A171B" d="M92.542,55.186c-0.084,0.902-2.341,2.201-0.225,2.708c0.479,0.199,0.874,0.622,1.467,0.565
		c0.705-0.733,0.79-2.342,1.918-2.258c0.451,0.452,1.157,0.452,1.468,1.016c-0.395,0.876-1.017,1.665-1.241,2.597
		c0.931,0.281,2.341,2.538,2.935,0.451c0.338-0.564,0.676-1.694,1.354-1.581c0.452,0.593,1.806,0.508,1.467,1.468l-2.37,3.95
		L88.48,58.008c0.508-1.638,1.637-3.02,2.483-4.516C91.528,53.944,93.22,53.974,92.542,55.186L92.542,55.186z"/>
	<path fill="#1A171B" d="M14.561,73.243c0.339,0.931-0.508,1.551-1.016,1.917c-0.311,0.367-0.959,0.255-1.354,0.113
		c-0.536-0.282-0.621-0.958-0.564-1.58c0.338-0.762,1.156-0.902,1.806-1.128C13.883,72.622,14.25,72.877,14.561,73.243
		L14.561,73.243z"/>
	<path fill="#1A171B" d="M74.26,82.722c-0.676,0.763-1.975,1.299-2.03,2.258c0.592,0.563,0.931,1.523,1.806,1.692
		c0.761-0.564,1.41-1.354,2.256-1.692l1.242,1.58l-2.144,2.144c0.562,0.649,1.015,1.327,1.692,1.918
		c0.903-0.366,1.58-1.212,2.369-1.806c0.509,0.509,1.354,1.242,1.354,1.92l-3.611,3.047c-2.793-3.075-5.276-6.264-8.013-9.367
		v-0.338c1.326-0.903,2.398-2.398,3.837-3.048C73.358,81.621,74.176,82.017,74.26,82.722L74.26,82.722z"/>
	<path fill="#1A171B" d="M34.31,85.431c-1.862,3.696-4.062,7.252-6.208,10.834c-0.395-0.564-1.749-0.395-1.354-1.354l6.094-10.384
		C33.322,84.838,33.858,85.009,34.31,85.431L34.31,85.431z"/>
	<path fill="#1A171B" d="M64.781,86.672c1.496,3.047,2.567,6.264,4.176,9.255c0.96-0.084,1.692-0.706,2.596-0.903
		c0.366,0.62,0.564,1.354,0.789,2.031l-4.175,1.806c-1.862-3.695-3.582-7.617-4.966-11.624
		C63.765,87.152,64.161,86.644,64.781,86.672L64.781,86.672z"/>
	<g>
		<defs>
			<rect id="SVGID_3_" width="124.145" height="102.256"/>
		</defs>
		<clipPath id="SVGID_4_">
			<use xlink:href="#SVGID_3_"  overflow="visible"/>
		</clipPath>
		<path clip-path="url(#SVGID_4_)" fill="#1A171B" d="M41.646,88.703c0.085,0.312,0.311,0.536,0.226,0.902
			c-0.564,0.425-1.072,0.988-1.693,1.243c-0.084-0.537-0.197-1.13-0.79-1.355c-0.677-0.028-1.382,0.34-1.58,1.016
			c-0.846,2.032,2.313,2.681,2.031,4.628c0,1.777-0.649,3.356-2.144,4.401c-0.931,0.593-2.398,0.395-3.273-0.227
			c-0.847-0.564-1.101-1.495-1.128-2.257c0.536-0.339,0.959-0.903,1.58-1.016c0.282,0.564,0.479,1.382,1.242,1.58
			c0.789,0.142,1.298-0.593,1.692-1.128c0.706-1.948-2.257-2.652-2.145-4.515c-0.113-1.862,0.762-3.556,2.37-4.515
			C39.275,87.123,40.94,87.321,41.646,88.703L41.646,88.703z"/>
		<path clip-path="url(#SVGID_4_)" fill-rule="evenodd" clip-rule="evenodd" fill="#1A171B" d="M12.755,50.22
			c0.875,1.298,0.367,3.131-0.451,4.289C10.441,56.991,7,57.527,4.291,56.878c-1.608-0.423-3.386-1.354-4.063-3.046
			c-0.423-1.439-0.31-3.216,0.79-4.29c2.059-2.031,4.994-2.707,7.9-2.031C10.414,47.906,11.88,48.81,12.755,50.22L12.755,50.22z
			 M10.498,51.348c0.311,0.904-0.028,1.806-0.564,2.484c-1.157,1.128-2.85,1.41-4.401,1.24c-1.129-0.196-2.286-0.79-2.822-1.918
			c-0.141-0.902-0.282-1.665,0.338-2.37c1.326-1.353,3.188-1.721,5.079-1.353C9.002,49.882,10.216,50.248,10.498,51.348
			L10.498,51.348z"/>
	</g>
	<path fill-rule="evenodd" clip-rule="evenodd" fill="#1A171B" d="M8.692,60.49c1.185,0.592,0.339,2.934,2.032,2.369l3.611-1.016
		c0.536,0.339,0.367,1.128,0.565,1.693c-3.922,1.213-7.985,2.116-11.963,3.16c-0.536-1.638-1.383-3.668-0.564-5.304
		C3.98,59.869,6.802,58.938,8.692,60.49L8.692,60.49z M7.563,62.634l0.114,0.79l-3.273,0.79c-0.028-0.536-0.424-1.043-0.113-1.58
		C5.024,61.788,7,61.279,7.563,62.634L7.563,62.634z"/>
	<path fill-rule="evenodd" clip-rule="evenodd" fill="#1A171B" d="M53.608,12.188c-0.593,0.198-1.241,0.254-1.918,0.226l-0.79-2.257
		h-3.611c-0.593,0.677-0.706,1.58-0.79,2.483c-0.508,0.423-1.27,0.142-1.918,0.226C45.568,8.577,46.188,4.147,47.514,0l1.692,0.113
		L53.608,12.188L53.608,12.188z M49.884,7.787l-2.031,0.226c0.056-1.298,0.281-2.991,0.677-4.402
		C48.981,4.994,49.433,6.404,49.884,7.787L49.884,7.787z"/>
	<path fill-rule="evenodd" clip-rule="evenodd" fill="#1A171B" d="M63.541,2.257c0.507,1.608,0.168,3.442-1.017,4.627
		c1.41,0.903,1.241,2.737,0.902,4.063c-0.366,0.903-0.958,1.918-1.919,2.37c-1.777,0.367-3.413-0.31-5.078-0.564
		c0.507-4.175,1.439-8.153,2.031-12.301C60.239,0.875,62.581,0.338,63.541,2.257L63.541,2.257z M61.621,3.724
		c0.029,0.592,0.056,1.58-0.676,1.918L59.59,5.53l0.451-2.596C60.747,2.765,61.311,3.16,61.621,3.724L61.621,3.724z M61.621,9.141
		c0,0.79-0.338,1.524-1.016,1.919c-0.62-0.057-1.326,0.142-1.806-0.226c-0.141-0.903,0.198-2.088,0.564-3.047
		C60.153,8.182,61.621,7.815,61.621,9.141L61.621,9.141z"/>
	<path fill-rule="evenodd" clip-rule="evenodd" fill="#1A171B" d="M75.163,5.304c1.412,1.439,1.75,3.583,1.242,5.53
		c-0.508,2.708-2.849,5.53-5.643,6.094c-1.298,0.198-2.313-0.253-3.272-0.903c-1.637-1.382-1.581-3.611-1.354-5.643
		c0.649-2.539,2.821-5.642,5.643-6.094C73.132,4.091,74.233,4.514,75.163,5.304L75.163,5.304z M73.697,7.448
		c0.733,0.846,0.959,2.031,0.677,3.16c-0.311,1.749-1.833,3.499-3.611,3.837c-0.704-0.085-1.382-0.226-1.918-0.677
		c-0.903-0.818-0.875-2.145-0.678-3.273c0.508-1.637,1.946-3.386,3.724-3.725C72.653,6.63,73.188,6.997,73.697,7.448L73.697,7.448z"
		/>
	<path fill-rule="evenodd" clip-rule="evenodd" fill="#1A171B" d="M105.522,47.399c0.986,1.327,1.438,3.16,0.903,4.853
		c-0.678,1.41-2.146,2.397-3.612,2.596c-3.555,0.225-6.827-2.116-8.238-5.192c-0.564-1.579-0.423-3.554,0.903-4.74
		c1.353-1.326,3.526-1.27,5.303-0.903C102.616,44.55,104.252,45.734,105.522,47.399L105.522,47.399z M103.829,48.753
		c0.197,0.789,0.593,1.806,0.113,2.595c-0.734,1.383-2.567,1.242-3.838,0.904c-1.606-0.592-3.131-2.088-3.385-3.838
		c-0.227-1.043,0.706-1.833,1.467-2.256C100.528,45.565,102.558,46.919,103.829,48.753L103.829,48.753z"/>
	<path fill-rule="evenodd" clip-rule="evenodd" fill="#1A171B" d="M108.004,37.806c0.649,1.439-0.169,2.963-0.678,4.063
		c1.215,0.931,2.568,1.721,3.611,2.821c-0.225,0.508-0.564,0.959-1.015,1.354c-3.387-2.37-6.97-4.711-10.044-7.335
		c0.818-1.354,1.607-2.99,3.159-3.724C105.182,34.731,106.988,36.029,108.004,37.806L108.004,37.806z M105.522,38.033
		c0.423,0.423,0.648,1.184,0.226,1.692c-1.044,1.1-1.806-0.959-2.935-1.241c0-0.479,0.367-0.931,0.79-1.129
		C104.392,37.213,105.014,37.496,105.522,38.033L105.522,38.033z"/>
	<path fill-rule="evenodd" clip-rule="evenodd" fill="#1A171B" d="M91.979,64.553c0.79,1.241,0.255,2.736-0.227,3.95l3.838,2.031
		c0.367,0.649-0.311,1.157-0.564,1.693h-0.339l-10.607-5.53c0.254-1.496,1.101-3.414,2.707-4.401
		C88.792,62.043,90.709,62.945,91.979,64.553L91.979,64.553z M89.722,65.229c0.254,0.424,0.479,0.988,0.225,1.468l-0.338,0.564
		c-0.931-0.48-1.945-0.818-2.822-1.468c0.058-0.507,0.282-1.016,0.791-1.241C88.452,64.384,89.102,64.778,89.722,65.229
		L89.722,65.229z"/>
	<path fill-rule="evenodd" clip-rule="evenodd" fill="#1A171B" d="M87.352,79.224c0.818,1.383,0.932,3.441-0.113,4.74l-2.257,2.596
		c-3.386-2.37-6.207-5.389-9.479-8.013c0.789-1.298,1.749-2.624,3.046-3.611C82.132,73.468,85.406,76.375,87.352,79.224
		L87.352,79.224z M85.094,79.675c0.452,0.678,0.564,1.665,0.34,2.482c-0.198,0.452-0.48,0.876-0.903,1.242l-0.451-0.112
		l-5.531-4.854c0.254-0.705,1.017-1.607,1.807-1.692C82.33,76.77,83.995,78.011,85.094,79.675L85.094,79.675z"/>
	<g>
		<defs>
			<rect id="SVGID_5_" width="124.145" height="102.256"/>
		</defs>
		<clipPath id="SVGID_6_">
			<use xlink:href="#SVGID_5_"  overflow="visible"/>
		</clipPath>
		<path clip-path="url(#SVGID_6_)" fill-rule="evenodd" clip-rule="evenodd" fill="#1A171B" d="M59.815,90.283
			c0.62,1.016,0.706,2.821,0,3.838c0.959,0.536,1.947,1.636,2.031,2.821c0.085,1.269-0.084,2.426-0.677,3.385
			c-1.41,1.327-3.47,1.157-5.304,1.468c-1.1-3.922-1.044-8.352-1.806-12.414C55.978,89.353,58.715,87.772,59.815,90.283
			L59.815,90.283z M58.235,91.977c0.283,0.649,0.028,1.467-0.564,1.806c-0.395-0.084-0.62,0.226-1.016,0.112
			c-0.311-0.79-0.311-1.72-0.452-2.596C56.881,90.849,58.037,91.073,58.235,91.977L58.235,91.977z M59.703,96.829
			c0.056,0.762,0.198,1.468-0.339,2.031c-0.621,0.311-1.354,0.311-2.031,0.451l-0.338-3.16
			C57.981,96.181,59.307,95.504,59.703,96.829L59.703,96.829z"/>
		<path clip-path="url(#SVGID_6_)" fill-rule="evenodd" clip-rule="evenodd" fill="#1A171B" d="M48.981,89.719l2.031,12.526
			c-0.705,0.029-1.523,0.029-1.917-0.45c-0.311-0.79,0.253-2.229-0.903-2.37l-3.16-0.338c-0.931,0.705-0.423,3.44-2.482,2.256
			h-0.339v-0.676l4.853-11.512C47.627,89.521,48.727,88.845,48.981,89.719L48.981,89.719z M48.191,97.167
			c-0.621,0.254-1.496,0.029-2.145-0.225l1.467-4.063L48.191,97.167L48.191,97.167z"/>
	</g>
	<path fill-rule="evenodd" clip-rule="evenodd" fill="#1A171B" d="M28.103,82.835c0,3.103-2.087,5.586-4.626,7.336
		c-1.552,0.818-3.414,0.959-4.853-0.226l-2.483-2.145l8.013-9.705C25.648,79.506,28.075,80.521,28.103,82.835L28.103,82.835z
		 M25.846,82.835c0.367,2.229-1.298,3.837-2.822,5.078c-0.705,0.48-1.749,0.564-2.595,0.339c-0.423-0.31-0.818-0.592-1.242-0.902
		c1.382-2.201,3.471-4.091,5.079-6.207C24.802,81.706,25.733,81.988,25.846,82.835L25.846,82.835z"/>
</g>
</svg>
