<?xml version="1.0" encoding="utf-8"?>
<!-- Generator: Adobe Illustrator 14.0.0, SVG Export Plug-In  -->
<!DOCTYPE svg PUBLIC "-//W3C//DTD SVG 1.1//EN" "http://www.w3.org/Graphics/SVG/1.1/DTD/svg11.dtd" [
	<!ENTITY ns_flows "http://ns.adobe.com/Flows/1.0/">
]>
<svg version="1.1"
	 xmlns="http://www.w3.org/2000/svg" xmlns:xlink="http://www.w3.org/1999/xlink" xmlns:a="http://ns.adobe.com/AdobeSVGViewerExtensions/3.0/"
	 x="0px" y="0px" width="183px" height="103px" viewBox="47.327 23.725 183 103" enable-background="new 47.327 23.725 183 103"
	 xml:space="preserve">
<defs>
</defs>
<rect x="0.5" y="0.5" fill="#FFFFFF" stroke="#000000" width="296" height="167"/>
<path fill="#006E62" d="M104.211,76.193v10.111c0,0.125,0,0.252-0.125,0.252l-5.867,3.992c-0.125,0-0.125,0-0.125-0.123v-9.986
	c0-0.125,0-0.252,0.125-0.252L104.211,76.193"/>
<path fill="#047569" d="M59.012,117.699c0,3.479-2.361,5.344-5.843,5.344c-3.729-0.001-5.842-2.111-5.842-5.344v-8.701h2.734v8.824
	c0,1.988,1.367,3.109,3.107,3.109s3.108-1.121,3.108-3.109v-8.824h2.734V117.699z"/>
<path fill="#047569" d="M69.205,114.467l5.096,8.453h-3.355l-3.729-6.34l-2.362,2.609v3.729h-2.734v-13.922h2.734v6.712l5.967-6.712
	h3.231L69.205,114.467z"/>
<path fill="#047569" d="M94.935,115.957c0,3.107-1.491,5.471-3.978,6.588c0.87,0.375,2.238,0.872,3.854,1.12l-0.746,2.237
	c-3.107-0.747-4.972-2.113-6.091-2.734h-0.373c-4.351-0.126-6.961-2.982-6.961-7.211c0-4.227,2.735-7.208,7.209-7.208
	C92.325,108.872,94.935,111.732,94.935,115.957z M83.623,115.957c0,2.984,1.74,4.727,4.226,4.727c2.611,0,4.227-1.74,4.227-4.727
	c0-3.105-1.615-4.971-4.227-4.971C85.238,110.986,83.623,112.852,83.623,115.957z"/>
<path fill="#047569" d="M106.495,122.92h-2.238l-0.124-1.617c-0.746,1.118-1.741,1.739-3.48,1.739c-1.988,0-3.729-0.745-3.729-3.978
	v-6.586h2.61v6.213c0,1.494,0.746,2.238,1.988,2.238c1.74,0,2.486-1.492,2.486-2.983v-5.468h2.611v10.44L106.495,122.92
	L106.495,122.92z"/>
<path fill="#047569" d="M118.055,115.957v4.352c0,0.496,0.249,0.623,0.621,0.623c0.125,0,0.25,0,0.497,0l0.125,1.74
	c-0.373,0.123-1.118,0.37-1.865,0.37c-1.118,0-1.739-0.497-1.988-1.241c-0.497,0.744-1.491,1.367-3.479,1.367
	c-2.363,0-3.729-0.994-3.729-3.107c0-2.612,1.988-3.233,4.848-3.233c0.745,0,1.491,0,2.237,0.127v-0.747
	c0-1.242-0.995-1.615-2.237-1.615c-1.244,0-2.611,0.246-3.605,0.498l-0.373-1.992c1.367-0.369,3.108-0.617,4.475-0.617
	C116.314,112.479,118.055,113.225,118.055,115.957z M115.444,119.191v-0.745c-0.746,0-1.491-0.128-1.988-0.128
	c-1.742,0-2.363,0.5-2.363,1.492c0,1.121,0.871,1.367,1.865,1.367C114.326,121.178,115.444,120.434,115.444,119.191z"/>
<path fill="#047569" d="M123.276,120.309c0,0.623,0.372,0.746,0.745,0.746s0.621,0,0.869,0l0.125,1.865
	c-0.498,0.122-0.994,0.122-1.864,0.122c-1.74,0-2.486-0.745-2.486-2.237v-12.431h2.611V120.309L123.276,120.309z"/>
<path fill="#047569" d="M129.366,122.92h-2.61v-8.453h-1.243v-1.865h3.854V122.92z M129.366,109.991
	c0,0.871-0.497,1.243-1.492,1.243c-0.87,0-1.367-0.372-1.367-1.243c0-0.867,0.497-1.241,1.367-1.241
	C128.869,108.749,129.366,109.123,129.366,109.991z"/>
<path fill="#047569" d="M135.084,112.602h2.734v1.865h-2.734v5.221c0,1.117,0.497,1.49,1.243,1.49c0.497,0,1.243-0.123,1.491-0.246
	l0.125,1.74c-0.747,0.248-1.616,0.37-2.362,0.37c-1.865,0-3.107-0.745-3.107-3.231v-5.344h-1.367v-1.865h1.368l0.372-2.983h2.238
	L135.084,112.602L135.084,112.602z"/>
<path fill="#047569" d="M145.772,123.417c-0.868,2.485-1.988,2.856-3.604,2.856c-0.992,0-1.491,0-2.362-0.248l0.127-1.988
	c0.621,0.125,1.116,0.125,1.614,0.125c0.744,0,1.241-0.373,1.491-1.12l0.125-0.37l-4.351-10.32h2.858l2.857,7.336l2.611-7.336h2.736
	L145.772,123.417z"/>
<path fill="#047569" d="M168.645,122.92h-2.858l-1.242-3.232h-6.217l-1.243,3.232h-2.734l5.345-13.923h3.604L168.645,122.92z
	 M159.073,117.574h4.601l-2.239-6.092l0,0L159.073,117.574z"/>
<path fill="#047569" d="M177.473,113.225l-0.501,1.74c-0.497-0.128-1.741-0.623-3.106-0.623c-1.49,0-1.864,0.495-1.864,0.994
	c0,0.87,0.873,0.995,2.363,1.368c1.616,0.497,3.479,0.994,3.479,3.106c0,2.236-1.989,3.108-4.225,3.108
	c-1.743,0-3.233-0.499-4.229-0.872l0.499-1.861c0.496,0.246,1.865,0.869,3.479,0.869c1.492,0,1.862-0.5,1.862-0.996
	c0-0.994-1.115-0.994-2.482-1.367c-1.492-0.373-3.357-0.87-3.357-3.107c0-2.236,1.865-3.105,4.104-3.105
	C174.985,112.479,176.35,112.727,177.473,113.225z"/>
<path fill="#047569" d="M187.166,113.225l-0.497,1.74c-0.499-0.128-1.742-0.623-3.108-0.623c-1.493,0-1.863,0.495-1.863,0.994
	c0,0.87,0.871,0.995,2.362,1.368c1.614,0.497,3.479,0.994,3.479,3.106c0,2.236-1.989,3.108-4.229,3.108
	c-1.737,0-3.229-0.499-4.225-0.872l0.497-1.861c0.497,0.246,1.863,0.869,3.48,0.869c1.49,0,1.862-0.5,1.862-0.996
	c0-0.994-1.117-0.994-2.485-1.367c-1.489-0.373-3.354-0.87-3.354-3.107c0-2.236,1.865-3.105,4.101-3.105
	C184.681,112.479,186.17,112.727,187.166,113.225z"/>
<path fill="#047569" d="M198.85,122.92h-2.236l-0.124-1.617c-0.747,1.118-1.738,1.739-3.479,1.739c-1.989,0-3.729-0.745-3.729-3.978
	v-6.586h2.608v6.213c0,1.494,0.745,2.238,1.989,2.238c1.738,0,2.485-1.492,2.485-2.983v-5.468h2.611v10.44L198.85,122.92
	L198.85,122.92z"/>
<path fill="#047569" d="M207.302,115.212c-2.237-0.375-3.229,1.368-3.229,3.479v4.229h-2.609v-10.318h2.11l0.248,2.235
	c0.375-1.116,1.616-2.485,3.605-2.235L207.302,115.212z"/>
<path fill="#047569" d="M210.909,118.568c0,1.74,1.367,2.486,3.229,2.486c1.244,0,2.611-0.371,3.483-0.746l0.494,1.865
	c-1.243,0.621-2.61,0.868-4.225,0.868c-3.729,0-5.721-1.987-5.721-5.221c0-3.229,1.99-5.343,5.346-5.343
	c3.106,0,4.849,1.861,4.849,4.969c0,0.623-0.123,1.119-0.123,1.244h-7.334L210.909,118.568L210.909,118.568z M211.032,116.954h5.097
	c0-1.369-0.622-2.485-2.362-2.485C212.276,114.467,211.28,114.965,211.032,116.954z"/>
<path fill="#047569" d="M230.547,122.92h-2.235l-0.25-1.492c-0.744,1.117-1.988,1.614-3.479,1.614c-3.232,0-4.726-2.485-4.726-5.221
	c0-2.984,1.492-5.343,4.726-5.343c1.864,0,2.854,0.744,3.479,1.49v-5.596h2.611v14.546L230.547,122.92L230.547,122.92z
	 M222.467,117.822c0,2.113,0.995,3.232,2.735,3.232c1.49,0,2.733-1.119,2.733-3.232c0-2.237-1.243-3.354-2.733-3.354
	C223.462,114.467,222.467,115.584,222.467,117.822z"/>
<path fill="#006E62" d="M133.345,50.325L95.308,24.843c-2.237-1.49-5.843-1.49-8.08,0L49.192,50.325
	c-2.237,1.492-2.237,3.854,0,5.347l38.036,25.482c2.237,1.49,5.842,1.49,8.08,0l1.119-0.747c-1.368-0.993-2.485-1.738-3.729-2.981
	c-1.367-1.119-2.113-2.239-2.858-3.357c-0.746-1.121-1.367-2.363-1.741-3.729c-2.112-0.249-4.102-0.871-5.842-1.741
	c-1.864-0.87-3.355-2.114-4.724-3.604c-1.367-1.492-2.361-3.357-3.107-5.47c-0.995-2.237-1.368-4.722-1.368-7.457
	c0-2.984,0.498-5.718,1.492-7.957c0.995-2.361,2.238-4.225,3.854-5.841c1.614-1.617,3.479-2.735,5.594-3.481
	c2.113-0.746,4.35-1.118,6.712-1.118c2.361,0,4.724,0.373,6.836,1.118c2.114,0.746,3.979,1.99,5.594,3.481
	c1.617,1.616,2.86,3.48,3.729,5.841c0.87,2.362,1.367,4.973,1.367,7.957c0,2.485-0.249,4.723-0.871,6.712
	c-0.622,1.988-1.491,3.729-2.609,5.221c-1.12,1.491-2.487,2.734-3.979,3.729c-1.492,0.995-3.232,1.74-5.097,2.113
	c0.125,0.622,0.497,1.12,1.119,1.865c0.87,0.994,1.492,1.492,2.362,2.237c0.994,0.87,1.615,1.368,3.106,2.363l30.952-20.758
	C135.581,54.18,135.581,51.817,133.345,50.325z"/>
<path fill="#006E62" d="M99.534,56.789c0.373-1.367,0.622-2.982,0.622-4.723c0-1.741-0.249-3.356-0.622-4.724
	c-0.372-1.368-0.994-2.611-1.864-3.605c-0.746-0.994-1.741-1.74-2.983-2.361c-1.118-0.498-2.485-0.87-3.978-0.87
	s-2.859,0.248-3.979,0.87c-1.118,0.622-2.112,1.367-2.983,2.361c-0.745,0.994-1.367,2.237-1.864,3.605
	c-0.373,1.367-0.622,2.982-0.622,4.724c0,1.741,0.25,3.355,0.622,4.723c0.373,1.368,0.995,2.611,1.864,3.605
	c0.746,0.993,1.741,1.739,2.983,2.36c1.119,0.498,2.486,0.871,3.979,0.871s2.734-0.249,3.978-0.871
	c1.119-0.496,2.113-1.367,2.983-2.36C98.539,59.4,99.161,58.281,99.534,56.789z"/>
<path fill="#56565A" d="M152.732,48.337c0-2.237,0.375-4.102,0.996-5.843c0.621-1.615,1.492-3.107,2.61-4.225
	c1.119-1.119,2.362-1.99,3.851-2.486c1.495-0.498,3.109-0.871,4.852-0.871c1.615,0,3.229,0.249,4.598,0.871
	c1.492,0.622,2.736,1.367,3.856,2.486c1.117,1.118,1.989,2.486,2.606,4.225c0.623,1.616,0.996,3.606,0.996,5.843
	c0,1.865-0.249,3.605-0.748,5.096c-0.496,1.492-1.119,2.735-1.985,3.854c-0.869,1.118-1.864,1.988-3.108,2.61
	c-1.12,0.621-2.362,1.119-3.729,1.368c0,0.622,0.248,1.118,0.744,1.49c0.499,0.374,1.119,0.747,1.864,1.12
	c0.747,0.249,1.619,0.498,2.487,0.745c0.872,0.25,1.865,0.375,2.736,0.375l-0.499,1.243c-0.248,0.869-1.241,1.366-2.112,1.243
	c0,0-0.747-0.125-1.865-0.374c-1.117-0.248-2.237-0.622-3.107-1.118c-0.993-0.498-1.738-1.12-2.359-1.741
	c-0.623-0.746-1.119-1.616-1.244-2.735c-1.492-0.125-2.984-0.497-4.35-1.118c-1.369-0.622-2.613-1.492-3.604-2.612
	c-0.995-1.117-1.866-2.485-2.363-4.102C152.984,52.189,152.732,50.325,152.732,48.337z M156.462,48.337
	c0,1.492,0.251,2.983,0.622,4.227c0.374,1.243,0.995,2.361,1.617,3.231c0.743,0.87,1.612,1.616,2.61,1.987
	c0.993,0.498,2.237,0.747,3.479,0.747c1.244,0,2.488-0.249,3.479-0.747c0.995-0.496,1.864-1.117,2.611-1.987
	c0.747-0.871,1.242-1.988,1.617-3.231c0.374-1.244,0.62-2.611,0.62-4.227c0-1.492-0.246-2.984-0.62-4.227
	c-0.375-1.243-0.996-2.361-1.617-3.231c-0.747-0.871-1.616-1.616-2.611-1.989c-0.99-0.498-2.234-0.747-3.479-0.747
	c-1.241,0-2.485,0.249-3.479,0.747c-0.998,0.497-1.988,1.118-2.61,1.989c-0.745,0.87-1.243,1.988-1.617,3.231
	C156.713,45.353,156.462,46.722,156.462,48.337z"/>
<path fill="#56565A" d="M178.712,61.016c0.871-2.237,4.599-11.933,5.471-14.045c0.868-2.113,1.613-3.979,2.486-5.968
	c0.87-1.865,1.615-3.729,2.485-5.593h1.614c0.871,0,1.864,0.621,2.239,1.492c0,0,0.993,2.237,1.862,4.102
	c0.87,1.865,1.617,3.854,2.485,5.968c0.869,2.112,1.618,4.226,2.487,6.587c0.868,2.238,1.74,4.847,2.732,7.458h-2.235
	c-0.871,0-1.864-0.621-2.115-1.492c0,0-0.246-0.621-0.621-1.741c-0.369-1.117-0.744-2.111-1.116-3.231h-9.943
	c-0.871,0-1.864,0.622-2.115,1.492l-1.243,3.479c-0.246,0.871-1.24,1.492-2.11,1.492H178.712z M193.754,51.568
	c0.871,0,1.366-0.622,0.996-1.491c0,0-0.996-2.735-1.741-4.725c-0.747-1.989-1.619-3.977-2.364-5.717
	c-0.867,1.864-1.612,3.729-2.484,5.717c-0.745,1.99-1.49,4.103-2.363,6.215L193.754,51.568L193.754,51.568z"/>
<path fill="#56565A" d="M204.693,61.016c0.868-2.237,4.599-11.933,5.47-14.045c0.869-2.113,1.614-3.979,2.488-5.968
	c0.866-1.865,1.613-3.729,2.484-5.593h1.614c0.872,0,1.863,0.621,2.237,1.492c0,0,0.99,2.237,1.864,4.102
	c0.869,1.865,1.614,3.854,2.485,5.968c0.869,2.112,1.614,4.226,2.486,6.587c0.867,2.238,1.739,4.847,2.733,7.458h-2.235
	c-0.871,0-1.865-0.621-2.115-1.492c0,0-0.248-0.621-0.62-1.741c-0.373-1.117-0.747-2.111-1.12-3.231h-9.943
	c-0.867,0-1.865,0.622-2.111,1.492l-1.244,3.479c-0.246,0.871-1.242,1.492-2.111,1.492H204.693z M219.733,51.568
	c0.869,0,1.365-0.622,0.994-1.491c0,0-0.994-2.735-1.739-4.725c-0.745-1.989-1.616-3.977-2.363-5.717
	c-0.869,1.864-1.616,3.729-2.485,5.717c-0.743,1.99-1.487,4.103-2.361,6.215L219.733,51.568L219.733,51.568z"/>
</svg>
