<?xml version="1.0" encoding="utf-8"?>
<!-- Generator: Adobe Illustrator 19.2.1, SVG Export Plug-In . SVG Version: 6.00 Build 0)  -->
<svg version="1.1" id="Layer_1" xmlns="http://www.w3.org/2000/svg" xmlns:xlink="http://www.w3.org/1999/xlink" x="0px" y="0px"
	 viewBox="0 0 248.9 81" style="enable-background:new 0 0 248.9 81;" xml:space="preserve">
<style type="text/css">
	.st0{fill:#4D3040;}
	.st1{clip-path:url(#XMLID_63_);}
	.st2{fill:#FFFFFF;}
	.st3{fill:#8C0453;}
</style>
<title>knowsley-university-centre</title>
<g>
	<g id="XMLID_101_">
		<path id="XMLID_40_" class="st0" d="M116.3,3.1c0.9,0.4,1.6,1.2,2.3,2.2l0,0l0,0c0-0.1,0-0.2,0.1-0.3l0.1-0.4
			c0.5-1.2,1.8-2.1,3.4-2.1c0,0,0,0,0.1,0L121,1.7c-0.9,0.2-1.6,0.4-2.3,1c-0.1,0.1-0.2,0.2-0.3,0.3c-0.4-0.4-0.9-0.7-1.5-1
			c-1-0.5-2-0.5-3-0.4l1.6,1.2C115.8,2.9,116.1,3,116.3,3.1z"/>
		<path id="XMLID_39_" class="st0" d="M105.4,13.8c1.8,0.9,3.2,2.3,4.6,4.4v0l0,0.1c0-0.2,0.1-0.4,0.1-0.6l0.3-0.8
			c1-2.4,3.5-4.1,6.7-4.1c0,0,0.1,0,0.1,0l-2.7-1.8c-1.8,0.4-3.3,0.8-4.6,2.1c-0.2,0.2-0.4,0.4-0.6,0.7c-0.8-0.7-1.8-1.4-2.9-2
			c-2-1-4-1.1-6-0.8l3.3,2.3C104.3,13.4,104.8,13.6,105.4,13.8z"/>
		<path id="XMLID_102_" class="st0" d="M86.7,32.1c3.3,1.7,6.1,4.4,8.7,8.3v0l0.1,0.1c0.1-0.4,0.2-0.7,0.3-1.1l0.6-1.6
			c2-4.6,6.6-7.8,12.6-7.8c0.1,0,0.2,0,0.2,0l-5.1-3.4c-3.3,0.7-6.2,1.6-8.7,3.9c-0.4,0.4-0.8,0.8-1.2,1.3c-1.5-1.4-3.3-2.7-5.5-3.8
			c-3.8-2-7.6-2-11.4-1.6l6.2,4.4C84.6,31.2,85.7,31.6,86.7,32.1z M61.2,43.2h-6.4l-17.5,16v-16h-5.1v35.6h5.1V61.2l17.2,17.6h7.1
			L43.1,59.9L61.2,43.2z M60.4,61c0-7.6,5.9-13.6,14.4-13.6c2.2,0,4.4,0.4,6.6,1.1l-7.4-5.9c-5.4,0.1-9.9,1.9-13.5,5.4
			C57,51.4,55,56.1,55,60.9c0,6.3,3.1,11.9,8.4,15.4c3.2,2.1,6.9,3.2,11.1,3.2c4.3,0,8.7-1.1,12.8-3.3v-5.7
			c-4.4,2.8-8.6,4.2-12.8,4.2C66.3,74.6,60.4,68.6,60.4,61z M92.8,61c0-0.9,0.1-1.8,0.2-2.7L89,53.5c-1.1,2.3-1.6,4.8-1.6,7.3
			c0,6.3,3.1,11.9,8.4,15.4c3.2,2.1,6.9,3.2,11.1,3.2c4.3,0,8.7-1.1,12.8-3.3v-5.7c-4.4,2.8-8.6,4.2-12.8,4.2
			C98.7,74.6,92.8,68.6,92.8,61z M101.9,43.2l5.3,4.2c3.9,0,7.8,1.3,12.1,3.6v-5.5c-3.3-1.5-7.2-2.9-12.1-2.9
			C105.3,42.7,103.5,42.8,101.9,43.2z"/>
	</g>
	<g id="XMLID_12_">
		<path id="XMLID_16_" class="st0" d="M145.1,55.7l-0.3,4.2h-11.8v-0.7c0.2,0,0.5,0,0.8-0.1c0.3,0,0.6-0.1,0.7-0.1
			c0.2-0.1,0.4-0.2,0.4-0.4c0.1-0.2,0.1-0.4,0.1-0.6V47.7c0-0.2,0-0.4-0.1-0.6c-0.1-0.2-0.2-0.3-0.5-0.4c-0.2-0.1-0.4-0.2-0.7-0.2
			c-0.3-0.1-0.5-0.1-0.7-0.1v-0.7h11v3.4h-0.8c-0.1-0.5-0.4-1-0.9-1.6c-0.4-0.6-0.9-0.9-1.3-0.9c-0.2,0-0.5,0-0.7-0.1
			c-0.3,0-0.6,0-1,0h-2.2v5.7h1.6c0.5,0,0.9,0,1.1-0.1c0.2-0.1,0.4-0.3,0.6-0.5c0.1-0.2,0.3-0.5,0.4-0.8c0.1-0.3,0.2-0.6,0.2-0.9
			h0.8v5.6h-0.8c0-0.3-0.1-0.7-0.2-1c-0.1-0.4-0.2-0.6-0.4-0.8c-0.2-0.3-0.4-0.4-0.7-0.5c-0.3-0.1-0.6-0.1-1-0.1h-1.6v4.3
			c0,0.4,0,0.8,0.1,1c0.1,0.2,0.2,0.4,0.4,0.6c0.2,0.1,0.4,0.2,0.7,0.2s0.7,0.1,1.3,0.1c0.2,0,0.5,0,0.9,0c0.4,0,0.7,0,0.9,0
			c0.3,0,0.5-0.1,0.8-0.1c0.3-0.1,0.5-0.2,0.6-0.3c0.3-0.3,0.6-0.8,1-1.5c0.3-0.7,0.6-1.1,0.6-1.4H145.1z"/>
		<path id="XMLID_19_" class="st0" d="M162.2,59.9h-4.8v-0.7c0.2,0,0.3,0,0.5,0c0.2,0,0.3,0,0.4-0.1c0.2-0.1,0.3-0.2,0.4-0.3
			c0.1-0.2,0.1-0.3,0.1-0.6v-5.1c0-0.7-0.2-1.2-0.5-1.6c-0.3-0.4-0.7-0.6-1.2-0.6c-0.3,0-0.6,0.1-0.9,0.2c-0.3,0.1-0.6,0.2-0.8,0.4
			c-0.2,0.1-0.4,0.3-0.5,0.5c-0.1,0.2-0.2,0.3-0.3,0.4v5.7c0,0.2,0,0.4,0.1,0.6c0.1,0.2,0.2,0.3,0.4,0.3c0.2,0.1,0.3,0.1,0.4,0.1
			s0.3,0.1,0.5,0.1v0.7h-4.7v-0.7c0.2,0,0.3,0,0.4,0c0.1,0,0.3,0,0.4-0.1c0.2-0.1,0.3-0.2,0.4-0.3c0.1-0.2,0.1-0.3,0.1-0.6v-5.1
			c0-0.7-0.2-1.2-0.5-1.6c-0.3-0.4-0.7-0.6-1.2-0.6c-0.3,0-0.6,0.1-0.9,0.2c-0.3,0.1-0.6,0.2-0.8,0.4c-0.2,0.1-0.4,0.3-0.5,0.5
			c-0.1,0.2-0.2,0.3-0.3,0.4v5.7c0,0.2,0,0.4,0.1,0.6c0.1,0.2,0.2,0.3,0.4,0.4c0.1,0.1,0.3,0.1,0.4,0.2c0.1,0,0.3,0.1,0.5,0.1v0.7
			h-4.8v-0.7c0.2,0,0.3,0,0.5,0c0.2,0,0.3,0,0.4-0.1c0.2-0.1,0.3-0.2,0.4-0.3c0.1-0.2,0.1-0.3,0.1-0.6v-6.1c0-0.2,0-0.4-0.1-0.6
			c-0.1-0.2-0.2-0.3-0.4-0.4c-0.1-0.1-0.3-0.1-0.5-0.2c-0.2-0.1-0.4-0.1-0.6-0.1v-0.7l3.3-0.2l0.1,0.1v1.4h0.1
			c0.2-0.2,0.4-0.4,0.6-0.6c0.2-0.2,0.5-0.4,0.7-0.6c0.2-0.2,0.5-0.3,0.9-0.4c0.4-0.1,0.7-0.2,1.1-0.2c0.6,0,1.2,0.2,1.7,0.5
			c0.5,0.3,0.8,0.8,1,1.2c0.2-0.2,0.5-0.4,0.6-0.6c0.2-0.2,0.4-0.4,0.7-0.6c0.3-0.2,0.6-0.3,0.9-0.4c0.3-0.1,0.7-0.2,1.1-0.2
			c0.8,0,1.5,0.3,2,0.8c0.5,0.5,0.7,1.4,0.7,2.5v5c0,0.2,0,0.4,0.1,0.6c0.1,0.2,0.2,0.3,0.4,0.3c0.2,0.1,0.3,0.1,0.5,0.1
			c0.2,0,0.3,0.1,0.5,0.1V59.9z"/>
		<path id="XMLID_21_" class="st0" d="M171.4,51.2c0.4,0.5,0.7,1,0.9,1.6c0.2,0.6,0.3,1.3,0.3,2.1c0,0.8-0.1,1.5-0.4,2.1
			c-0.3,0.6-0.6,1.2-1,1.6c-0.4,0.5-0.9,0.8-1.5,1.1c-0.5,0.2-1.1,0.4-1.7,0.4c-0.6,0-1.1-0.1-1.5-0.2s-0.7-0.3-0.9-0.5h-0.1v3
			c0,0.2,0,0.4,0.1,0.6c0.1,0.2,0.2,0.3,0.4,0.4c0.2,0.1,0.4,0.1,0.7,0.2c0.3,0.1,0.5,0.1,0.7,0.1v0.7H162v-0.7c0.2,0,0.4,0,0.6-0.1
			c0.2,0,0.4-0.1,0.5-0.1c0.2-0.1,0.3-0.2,0.4-0.4c0.1-0.2,0.1-0.4,0.1-0.6V52.1c0-0.2-0.1-0.4-0.2-0.6c-0.1-0.2-0.2-0.3-0.4-0.5
			c-0.1-0.1-0.3-0.1-0.5-0.2c-0.2,0-0.4-0.1-0.6-0.1v-0.7l3.4-0.2l0.1,0.1v1.1l0.1,0c0.3-0.4,0.8-0.7,1.3-1c0.5-0.3,1-0.4,1.5-0.4
			c0.6,0,1.2,0.1,1.7,0.4C170.6,50.4,171,50.7,171.4,51.2z M169.8,58.3c0.3-0.4,0.5-0.9,0.6-1.4c0.1-0.5,0.2-1.2,0.2-1.8
			c0-0.5-0.1-1-0.2-1.5c-0.1-0.5-0.3-1-0.5-1.3c-0.2-0.4-0.5-0.7-0.9-0.9c-0.4-0.2-0.8-0.4-1.3-0.4c-0.5,0-0.9,0.1-1.3,0.3
			c-0.3,0.2-0.6,0.5-0.9,0.8v5.8c0.1,0.2,0.2,0.4,0.3,0.6c0.1,0.2,0.3,0.4,0.5,0.5c0.2,0.2,0.4,0.3,0.7,0.4c0.2,0.1,0.5,0.2,0.9,0.2
			c0.4,0,0.7-0.1,1.1-0.3C169.2,58.9,169.5,58.6,169.8,58.3z"/>
		<path id="XMLID_25_" class="st0" d="M177.7,59.9h-4.8v-0.7c0.2,0,0.3,0,0.5,0c0.2,0,0.3,0,0.4-0.1c0.2-0.1,0.3-0.2,0.4-0.3
			c0.1-0.2,0.1-0.3,0.1-0.6V46.7c0-0.2-0.1-0.5-0.2-0.7c-0.1-0.2-0.2-0.4-0.4-0.5c-0.1-0.1-0.3-0.2-0.7-0.2s-0.6-0.1-0.8-0.1v-0.6
			l3.7-0.2l0.1,0.2v13.6c0,0.2,0,0.4,0.1,0.6c0.1,0.2,0.2,0.3,0.4,0.3c0.1,0.1,0.3,0.1,0.4,0.2c0.1,0,0.3,0.1,0.5,0.1V59.9z"/>
		<path id="XMLID_27_" class="st0" d="M187.5,54.8c0,0.7-0.1,1.4-0.3,2c-0.2,0.7-0.5,1.2-0.9,1.7c-0.5,0.5-1,0.9-1.6,1.2
			c-0.6,0.3-1.3,0.4-2,0.4c-0.6,0-1.2-0.1-1.8-0.4c-0.6-0.2-1.1-0.6-1.5-1c-0.4-0.4-0.8-1-1-1.6c-0.3-0.6-0.4-1.4-0.4-2.2
			c0-1.5,0.4-2.8,1.3-3.8c0.9-1,2.1-1.5,3.5-1.5c1.4,0,2.5,0.5,3.4,1.4C187.1,52,187.5,53.3,187.5,54.8z M185.5,54.8
			c0-0.5-0.1-1-0.2-1.6c-0.1-0.6-0.3-1-0.5-1.4c-0.2-0.4-0.5-0.7-0.8-1c-0.3-0.3-0.8-0.4-1.3-0.4c-0.5,0-1,0.1-1.3,0.4
			c-0.4,0.3-0.7,0.6-0.9,1c-0.2,0.4-0.4,0.9-0.5,1.4c-0.1,0.5-0.1,1-0.1,1.5c0,0.6,0.1,1.2,0.2,1.8c0.1,0.5,0.3,1,0.5,1.5
			c0.2,0.4,0.5,0.8,0.9,1c0.3,0.2,0.8,0.4,1.3,0.4c0.8,0,1.5-0.4,2-1.2C185.2,57.4,185.5,56.3,185.5,54.8z"/>
		<path id="XMLID_30_" class="st0" d="M187.2,63.1c0-0.3,0.1-0.6,0.3-0.8c0.2-0.2,0.4-0.3,0.7-0.3c0.2,0,0.4,0,0.6,0.1
			s0.3,0.2,0.4,0.3c0.1,0.1,0.2,0.2,0.3,0.4c0.1,0.2,0.2,0.3,0.3,0.4c0.3-0.2,0.7-0.6,1.2-1.4c0.5-0.8,0.8-1.4,1-2
			c-0.6-1.6-1.2-3-1.7-4.2c-0.5-1.2-1.1-2.5-1.6-3.9c-0.1-0.3-0.3-0.5-0.6-0.7c-0.3-0.2-0.6-0.3-0.9-0.3V50h4.5v0.7
			c-0.2,0-0.4,0-0.7,0.1c-0.3,0.1-0.4,0.2-0.4,0.3c0,0,0,0.1,0,0.2c0,0.1,0.1,0.2,0.1,0.3c0.3,0.7,0.6,1.6,1.2,2.9s0.9,2.2,1.2,3
			c0.3-0.7,0.6-1.5,0.9-2.2c0.3-0.8,0.7-1.7,1.1-2.7c0-0.1,0.1-0.3,0.2-0.5c0.1-0.2,0.1-0.4,0.1-0.6c0-0.2-0.2-0.3-0.5-0.5
			c-0.3-0.2-0.6-0.2-0.9-0.3V50h3.7v0.6c-0.2,0-0.5,0.1-0.8,0.3c-0.3,0.2-0.6,0.5-0.7,0.8c-0.8,1.8-1.5,3.5-2.1,5
			c-0.6,1.5-1.1,2.6-1.4,3.3c-0.4,0.9-0.8,1.7-1.1,2.2c-0.3,0.5-0.7,0.9-1,1.2c-0.3,0.3-0.6,0.5-0.8,0.6c-0.3,0.1-0.5,0.1-0.8,0.1
			c-0.5,0-0.9-0.1-1.2-0.4C187.3,63.7,187.2,63.4,187.2,63.1z"/>
		<path id="XMLID_32_" class="st0" d="M205.8,57.5c-0.4,0.8-1,1.4-1.7,1.9c-0.7,0.5-1.5,0.7-2.4,0.7c-0.8,0-1.5-0.1-2.1-0.4
			c-0.6-0.3-1.1-0.7-1.5-1.1s-0.7-1-0.9-1.7c-0.2-0.6-0.3-1.3-0.3-2c0-0.6,0.1-1.3,0.3-1.9c0.2-0.6,0.5-1.2,0.9-1.7
			c0.4-0.5,0.9-0.9,1.4-1.1c0.6-0.3,1.2-0.4,1.9-0.4c0.7,0,1.3,0.1,1.9,0.3c0.5,0.2,0.9,0.5,1.3,0.9c0.3,0.4,0.5,0.8,0.7,1.3
			c0.2,0.5,0.2,1.1,0.2,1.7v0.7H199c0,0.6,0.1,1.2,0.2,1.8c0.1,0.5,0.3,1,0.6,1.4c0.3,0.4,0.6,0.7,1,0.9c0.4,0.2,0.9,0.3,1.5,0.3
			c0.6,0,1.1-0.1,1.5-0.4c0.4-0.3,0.8-0.8,1.2-1.5L205.8,57.5z M203.6,53.8c0-0.4,0-0.8-0.1-1.2c-0.1-0.4-0.2-0.8-0.3-1.1
			c-0.2-0.3-0.4-0.6-0.6-0.7c-0.3-0.2-0.6-0.3-1-0.3c-0.7,0-1.3,0.3-1.7,0.9c-0.5,0.6-0.7,1.4-0.8,2.4H203.6z"/>
		<path id="XMLID_42_" class="st0" d="M213.5,51.3c0,0.3-0.1,0.6-0.3,0.9c-0.2,0.3-0.4,0.4-0.8,0.4c-0.4,0-0.7-0.1-0.9-0.3
			c-0.2-0.2-0.3-0.4-0.3-0.6c0-0.1,0-0.3,0-0.4c0-0.1,0-0.2,0.1-0.4c-0.3,0-0.7,0.1-1.1,0.4c-0.4,0.3-0.8,0.6-1.1,1.1v5.8
			c0,0.2,0,0.4,0.1,0.6c0.1,0.1,0.2,0.3,0.4,0.3c0.2,0.1,0.4,0.1,0.6,0.2c0.3,0,0.5,0.1,0.7,0.1v0.7h-5.2v-0.7c0.2,0,0.3,0,0.5,0
			c0.2,0,0.3,0,0.4-0.1c0.2-0.1,0.3-0.2,0.4-0.3c0.1-0.2,0.1-0.3,0.1-0.6v-6.1c0-0.2,0-0.4-0.1-0.6c-0.1-0.2-0.2-0.4-0.4-0.5
			c-0.1-0.1-0.3-0.1-0.5-0.2c-0.2,0-0.4-0.1-0.6-0.1v-0.7l3.3-0.2l0.1,0.1v1.4h0.1c0.4-0.5,0.9-1,1.4-1.2c0.5-0.3,1-0.4,1.4-0.4
			c0.4,0,0.8,0.1,1,0.4C213.3,50.4,213.5,50.8,213.5,51.3z"/>
		<path id="XMLID_44_" class="st0" d="M142,70.8c0.3,0.3,0.5,0.7,0.7,1.1c0.1,0.4,0.2,0.9,0.2,1.4c0,1.3-0.5,2.3-1.4,3.1
			c-0.9,0.8-2.1,1.2-3.5,1.2c-0.6,0-1.3-0.1-1.9-0.3c-0.6-0.2-1.2-0.4-1.6-0.7l-0.4,0.7h-0.8l-0.1-4.9h0.8c0.2,0.6,0.4,1.1,0.6,1.6
			c0.2,0.5,0.5,0.9,0.9,1.4c0.3,0.4,0.8,0.7,1.2,0.9c0.5,0.2,1,0.4,1.6,0.4c0.5,0,0.9-0.1,1.2-0.2c0.3-0.1,0.6-0.3,0.8-0.5
			c0.2-0.2,0.4-0.5,0.5-0.8c0.1-0.3,0.2-0.6,0.2-1c0-0.6-0.2-1.1-0.5-1.6c-0.3-0.5-0.8-0.9-1.4-1.1c-0.4-0.2-0.9-0.4-1.5-0.6
			c-0.6-0.2-1-0.4-1.5-0.6c-0.8-0.4-1.4-0.8-1.9-1.4c-0.4-0.6-0.7-1.3-0.7-2.3c0-0.5,0.1-1,0.3-1.5c0.2-0.5,0.5-0.9,0.9-1.3
			c0.4-0.3,0.8-0.6,1.4-0.8c0.5-0.2,1.1-0.3,1.7-0.3c0.7,0,1.2,0.1,1.8,0.3c0.5,0.2,1,0.4,1.4,0.7l0.4-0.7h0.8l0.1,4.7h-0.8
			c-0.1-0.5-0.3-1.1-0.5-1.6c-0.2-0.5-0.4-0.9-0.7-1.3c-0.3-0.4-0.6-0.7-1.1-0.9c-0.4-0.2-0.9-0.3-1.5-0.3c-0.6,0-1.2,0.2-1.6,0.6
			c-0.4,0.4-0.7,0.9-0.7,1.5c0,0.6,0.1,1.1,0.4,1.5c0.3,0.4,0.7,0.7,1.3,1c0.5,0.2,1,0.4,1.4,0.6c0.5,0.2,0.9,0.4,1.4,0.5
			c0.4,0.2,0.8,0.4,1.2,0.6C141.4,70.2,141.8,70.5,142,70.8z"/>
		<path id="XMLID_46_" class="st0" d="M152.2,75c-0.4,0.8-1,1.4-1.7,1.9c-0.7,0.5-1.5,0.7-2.4,0.7c-0.8,0-1.5-0.1-2.1-0.4
			c-0.6-0.3-1.1-0.7-1.5-1.1c-0.4-0.5-0.7-1-0.9-1.7c-0.2-0.6-0.3-1.3-0.3-2c0-0.6,0.1-1.3,0.3-1.9c0.2-0.6,0.5-1.2,0.9-1.7
			c0.4-0.5,0.9-0.9,1.4-1.1c0.6-0.3,1.2-0.4,1.9-0.4c0.7,0,1.3,0.1,1.9,0.3c0.5,0.2,0.9,0.5,1.3,0.9c0.3,0.4,0.5,0.8,0.7,1.3
			c0.2,0.5,0.2,1.1,0.2,1.7v0.7h-6.5c0,0.6,0.1,1.2,0.2,1.8c0.1,0.5,0.3,1,0.6,1.4c0.3,0.4,0.6,0.7,1,0.9c0.4,0.2,0.9,0.3,1.5,0.3
			c0.6,0,1.1-0.1,1.5-0.4c0.4-0.3,0.8-0.8,1.2-1.5L152.2,75z M150,71.2c0-0.4,0-0.8-0.1-1.2c-0.1-0.4-0.2-0.8-0.3-1.1
			c-0.2-0.3-0.4-0.6-0.6-0.7c-0.3-0.2-0.6-0.3-1-0.3c-0.7,0-1.3,0.3-1.7,0.9c-0.5,0.6-0.7,1.4-0.8,2.4H150z"/>
		<path id="XMLID_49_" class="st0" d="M159.9,68.7c0,0.3-0.1,0.6-0.3,0.9c-0.2,0.3-0.4,0.4-0.8,0.4c-0.4,0-0.7-0.1-0.9-0.3
			c-0.2-0.2-0.3-0.4-0.3-0.6c0-0.1,0-0.3,0-0.4c0-0.1,0-0.2,0.1-0.4c-0.3,0-0.7,0.1-1.1,0.4s-0.8,0.6-1.1,1.1v5.8
			c0,0.2,0,0.4,0.1,0.6c0.1,0.1,0.2,0.3,0.4,0.3c0.2,0.1,0.4,0.1,0.6,0.2c0.3,0,0.5,0.1,0.7,0.1v0.7h-5.2v-0.7c0.2,0,0.3,0,0.5,0
			c0.2,0,0.3,0,0.4-0.1c0.2-0.1,0.3-0.2,0.4-0.3c0.1-0.2,0.1-0.3,0.1-0.6v-6.1c0-0.2,0-0.4-0.1-0.6c-0.1-0.2-0.2-0.4-0.4-0.5
			c-0.1-0.1-0.3-0.1-0.5-0.2c-0.2,0-0.4-0.1-0.6-0.1v-0.7l3.3-0.2l0.1,0.1v1.4h0.1c0.4-0.5,0.9-1,1.4-1.2c0.5-0.3,1-0.4,1.4-0.4
			c0.4,0,0.8,0.1,1,0.4C159.7,67.9,159.9,68.2,159.9,68.7z"/>
		<path id="XMLID_51_" class="st0" d="M170.7,68c-0.3,0.1-0.6,0.2-0.9,0.3c-0.3,0.2-0.5,0.5-0.7,0.9c-0.4,0.9-0.8,1.8-1.2,2.8
			c-0.4,1-0.9,2-1.3,3.1c-0.1,0.3-0.3,0.7-0.4,1.1c-0.2,0.4-0.3,0.8-0.4,1.2H165c-0.6-1.6-1.2-3-1.8-4.3c-0.5-1.3-1.1-2.6-1.7-4
			c-0.1-0.3-0.3-0.5-0.6-0.7c-0.3-0.2-0.6-0.3-0.9-0.3v-0.7h4.6v0.7c-0.2,0-0.5,0-0.8,0.1c-0.3,0.1-0.5,0.2-0.5,0.3
			c0,0,0,0.1,0.1,0.2c0,0.1,0.1,0.2,0.1,0.3c0.3,0.7,0.7,1.6,1.2,2.9c0.5,1.2,0.9,2.2,1.2,3c0.2-0.6,0.5-1.3,0.9-2.1
			c0.4-0.9,0.8-1.8,1.2-2.9c0.1-0.2,0.1-0.3,0.2-0.5c0.1-0.2,0.1-0.3,0.1-0.5c0-0.1-0.1-0.2-0.2-0.3c-0.1-0.1-0.2-0.2-0.4-0.2
			c-0.2-0.1-0.3-0.1-0.5-0.2c-0.1,0-0.3-0.1-0.4-0.1v-0.6h3.8V68z"/>
		<path id="XMLID_53_" class="st0" d="M176.1,77.3h-4.8v-0.7c0.2,0,0.3,0,0.5,0c0.2,0,0.3,0,0.4-0.1c0.2-0.1,0.3-0.2,0.4-0.3
			c0.1-0.2,0.1-0.3,0.1-0.6v-6.1c0-0.2,0-0.4-0.1-0.6c-0.1-0.2-0.2-0.3-0.4-0.4c-0.1-0.1-0.3-0.1-0.6-0.2c-0.2-0.1-0.5-0.1-0.7-0.1
			v-0.7l3.5-0.2l0.1,0.1v8.1c0,0.2,0,0.4,0.1,0.6s0.2,0.3,0.4,0.3c0.1,0.1,0.3,0.1,0.4,0.1c0.1,0,0.3,0.1,0.5,0.1V77.3z M174.9,63.4
			c0,0.4-0.1,0.7-0.4,1c-0.3,0.3-0.6,0.4-0.9,0.4c-0.3,0-0.6-0.1-0.9-0.4c-0.3-0.3-0.4-0.6-0.4-0.9c0-0.4,0.1-0.7,0.4-1
			c0.3-0.3,0.5-0.4,0.9-0.4c0.4,0,0.7,0.1,0.9,0.4C174.7,62.8,174.9,63.1,174.9,63.4z"/>
		<path id="XMLID_56_" class="st0" d="M180.5,77.6c-1.4,0-2.5-0.5-3.4-1.4c-0.8-0.9-1.2-2.2-1.2-3.8c0-0.7,0.1-1.3,0.3-1.9
			c0.2-0.6,0.5-1.2,0.9-1.6c0.4-0.5,0.9-0.9,1.5-1.1c0.6-0.3,1.2-0.4,1.9-0.4c1,0,1.8,0.2,2.4,0.7c0.6,0.5,0.9,1.1,0.9,1.9
			c0,0.3-0.1,0.6-0.2,0.9c-0.2,0.3-0.4,0.4-0.8,0.4c-0.4,0-0.7-0.1-0.9-0.3c-0.2-0.2-0.3-0.4-0.3-0.7c0-0.3,0-0.6,0.1-0.9
			c0.1-0.3,0.1-0.5,0.1-0.7c-0.1-0.2-0.3-0.3-0.5-0.4c-0.2-0.1-0.5-0.1-0.8-0.1c-0.3,0-0.6,0.1-0.9,0.2c-0.3,0.1-0.6,0.4-0.8,0.8
			c-0.2,0.3-0.4,0.8-0.6,1.4c-0.2,0.6-0.2,1.2-0.2,2c0,1.2,0.3,2.3,0.8,3c0.6,0.8,1.3,1.2,2.2,1.2c0.6,0,1.2-0.2,1.6-0.5
			c0.4-0.3,0.8-0.8,1.2-1.4l0.6,0.4c-0.4,0.8-1,1.4-1.7,1.9C182,77.3,181.2,77.6,180.5,77.6z"/>
		<path id="XMLID_58_" class="st0" d="M193,75c-0.4,0.8-1,1.4-1.7,1.9c-0.7,0.5-1.5,0.7-2.4,0.7c-0.8,0-1.5-0.1-2.1-0.4
			c-0.6-0.3-1.1-0.7-1.5-1.1c-0.4-0.5-0.7-1-0.9-1.7c-0.2-0.6-0.3-1.3-0.3-2c0-0.6,0.1-1.3,0.3-1.9c0.2-0.6,0.5-1.2,0.9-1.7
			c0.4-0.5,0.9-0.9,1.4-1.1c0.6-0.3,1.2-0.4,1.9-0.4c0.7,0,1.3,0.1,1.9,0.3c0.5,0.2,0.9,0.5,1.3,0.9c0.3,0.4,0.5,0.8,0.7,1.3
			c0.2,0.5,0.2,1.1,0.2,1.7v0.7h-6.5c0,0.6,0.1,1.2,0.2,1.8c0.1,0.5,0.3,1,0.6,1.4c0.3,0.4,0.6,0.7,1,0.9c0.4,0.2,0.9,0.3,1.5,0.3
			c0.6,0,1.1-0.1,1.5-0.4c0.4-0.3,0.8-0.8,1.2-1.5L193,75z M190.7,71.2c0-0.4,0-0.8-0.1-1.2c-0.1-0.4-0.2-0.8-0.3-1.1
			c-0.2-0.3-0.4-0.6-0.6-0.7c-0.3-0.2-0.6-0.3-1-0.3c-0.7,0-1.3,0.3-1.7,0.9c-0.5,0.6-0.7,1.4-0.8,2.4H190.7z"/>
		<path id="XMLID_61_" class="st0" d="M199.6,72.5c0.3,0.2,0.5,0.5,0.6,0.8c0.1,0.3,0.2,0.7,0.2,1.2c0,0.9-0.3,1.7-1,2.2
			c-0.7,0.6-1.6,0.9-2.7,0.9c-0.6,0-1.1-0.1-1.6-0.3c-0.5-0.2-0.8-0.4-1-0.6l-0.2,0.7h-0.8l-0.1-3.4h0.7c0.1,0.3,0.2,0.6,0.3,0.9
			c0.2,0.3,0.4,0.7,0.6,0.9c0.3,0.3,0.6,0.5,0.9,0.7c0.4,0.2,0.8,0.3,1.2,0.3c0.6,0,1.1-0.1,1.5-0.4c0.3-0.3,0.5-0.7,0.5-1.3
			c0-0.3-0.1-0.5-0.2-0.7c-0.1-0.2-0.3-0.4-0.5-0.5c-0.2-0.2-0.5-0.3-0.8-0.4c-0.3-0.1-0.7-0.2-1.1-0.4c-0.3-0.1-0.7-0.2-1-0.4
			c-0.4-0.2-0.7-0.4-1-0.6c-0.3-0.2-0.5-0.5-0.7-0.9c-0.2-0.3-0.3-0.7-0.3-1.2c0-0.8,0.3-1.5,0.9-2.1c0.6-0.6,1.4-0.8,2.4-0.8
			c0.4,0,0.8,0.1,1.2,0.2c0.4,0.1,0.7,0.2,1,0.4l0.2-0.5h0.7l0.2,3.2h-0.7c-0.1-0.7-0.4-1.3-0.9-1.7c-0.5-0.4-1-0.7-1.7-0.7
			c-0.5,0-1,0.1-1.3,0.4c-0.3,0.3-0.5,0.6-0.5,1c0,0.3,0.1,0.6,0.2,0.8c0.1,0.2,0.3,0.4,0.5,0.5c0.2,0.1,0.5,0.3,0.8,0.4
			c0.3,0.1,0.7,0.2,1.1,0.4c0.4,0.1,0.9,0.3,1.2,0.5C199,72,199.4,72.2,199.6,72.5z"/>
	</g>
	<rect id="XMLID_2_" x="126" y="44.6" class="st0" width="1.2" height="33.1"/>
	<g id="XMLID_13_">
		<g id="XMLID_14_">
			<g id="XMLID_15_">
				<defs>
					<circle id="XMLID_3_" cx="182.7" cy="54.9" r="5.2"/>
				</defs>
				<use xlink:href="#XMLID_3_"  style="overflow:visible;fill:#45283C;"/>
				<clipPath id="XMLID_63_">
					<use xlink:href="#XMLID_3_"  style="overflow:visible;"/>
				</clipPath>
				<g id="XMLID_24_" class="st1">
					<path id="XMLID_11_" class="st2" d="M179.5,52.9l-1,2.1l0.7,0.4c0,0,0.7-0.5,1-2L179.5,52.9z"/>
					<path id="XMLID_10_" class="st2" d="M183.2,56.3L183.2,56.3C183.3,56.4,183.3,56.4,183.2,56.3l0.6,0.6c0.1,0.1,0.3,0.1,0.4,0
						c0.1-0.1,0.1-0.3,0-0.4l-0.4-0.4c0,0,0,0,0,0l-0.7-0.7c0,0,0-0.1,0-0.2c0,0,0,0,0.1,0c0,0,0,0,0.1,0c0,0,0,0,0,0l0.7,0.7
						c0,0,0,0,0,0l0,0l0.4,0.4c0.1,0.1,0.3,0.1,0.4,0c0.1-0.1,0.1-0.3,0-0.4l-0.2-0.2l0,0c0,0-2-2.1-2.3-2.4c-0.3-0.3-0.5-0.2-0.9,0
						c-0.4,0.2-0.6,0.3-1.1,0c0,0-0.1,1.2-0.8,1.7c0,0,1.8,1.9,2.9,2.1c0.6,0.1-0.2-0.7-0.2-0.7l0.1-0.1l0.7,0.7
						c0.1,0.1,0.3,0.1,0.4,0c0.1-0.1,0.1-0.3,0-0.4l-0.4-0.4c0,0,0,0,0,0l-0.2-0.2l-0.4-0.4c0,0,0,0,0,0c0,0,0-0.1,0-0.1
						c0,0,0,0,0.1,0c0,0,0,0,0.1,0"/>
				</g>
				<g id="XMLID_17_" class="st1">
					<path id="XMLID_9_" class="st3" d="M185.1,53.5c0,0,0.7,1.6,1.1,1.9l0.7-0.4l-1.1-2L185.1,53.5z"/>
					<path id="XMLID_8_" class="st3" d="M180.9,56.1c0.1,0.1,0.1,0.3,0,0.3l-0.1,0.1c-0.1,0.1-0.3,0.1-0.3,0l0,0
						c-0.1-0.1-0.1-0.3,0-0.3l0.1-0.1C180.6,55.9,180.8,56,180.9,56.1L180.9,56.1z"/>
					<path id="XMLID_7_" class="st3" d="M181.9,56.1c0.1,0.1,0.1,0.3,0,0.4l-0.5,0.4c-0.1,0.1-0.3,0.1-0.4-0.1l0,0
						c-0.1-0.1-0.1-0.3,0-0.4l0.5-0.4C181.6,55.9,181.8,56,181.9,56.1L181.9,56.1z"/>
					<path id="XMLID_6_" class="st3" d="M182.6,56.4c0.1,0.1,0.1,0.3,0,0.4l-0.6,0.5c-0.1,0.1-0.3,0.1-0.4-0.1l0,0
						c-0.1-0.1-0.1-0.3,0-0.4l0.6-0.5C182.3,56.3,182.5,56.3,182.6,56.4L182.6,56.4z"/>
					<path id="XMLID_5_" class="st3" d="M183,57c0.1,0.1,0.1,0.3,0,0.4l-0.3,0.3c-0.1,0.1-0.3,0.1-0.4-0.1l0,0
						c-0.1-0.1-0.1-0.3,0-0.4l0.3-0.3C182.8,56.9,182.9,56.9,183,57L183,57z"/>
					<path id="XMLID_4_" class="st3" d="M184.8,53.7c0,0-0.3,0.2-0.6,0c-0.3-0.2-0.8-0.6-1.5-0.2c-0.8,0.4-1.1,0.6-1.4,0.8
						c-0.2,0.2-0.4,0.3-0.2,0.5c0.1,0.2,0.3,0.1,0.5,0c0.2-0.1,1-0.5,1.1-0.5c0.1-0.1,0.2,0,0.3,0.1c0.1,0.1,2,1.9,2,1.9
						s0.6-0.4,0.7-0.8C185.8,55.5,184.8,54.1,184.8,53.7z"/>
				</g>
			</g>
		</g>
	</g>
</g>
</svg>
