<?xml version="1.0" encoding="utf-8"?>
<!-- Generator: Adobe Illustrator 19.2.1, SVG Export Plug-In . SVG Version: 6.00 Build 0)  -->
<svg version="1.1" id="Layer_1" xmlns="http://www.w3.org/2000/svg" xmlns:xlink="http://www.w3.org/1999/xlink" x="0px" y="0px"
	 viewBox="0 0 863.3 641.8" style="enable-background:new 0 0 863.3 641.8;" xml:space="preserve">
<style type="text/css">
	.st0{fill:#0055B8;}
	.st1{fill:#929497;}
	.st2{fill:#58595B;}
	.st3{font-family:'Helvetica';}
	.st4{font-size:82.1618px;}
	.st5{letter-spacing:-3;}
	.st6{fill:#D9D9D9;}
	.st7{fill:#F2F2F2;}
</style>
<g id="XMLID_405_">
	<path id="XMLID_406_" class="st0" d="M13.9,74.1v-58h62.3v58H13.9z M13.9,338.2V102.4h62.3v235.8H13.9z"/>
</g>
<g id="XMLID_402_">
	<path id="XMLID_403_" class="st0" d="M499.9,338.2V195.3c0-14.4-3.4-26-10.1-35c-6.7-8.9-15.7-13.4-26.8-13.4
		c-11.5,0-21,4.8-28.5,14.4c-7.5,9.6-11.3,21.6-11.3,35.9v140.9h-62.3V196.3c0-9.6-0.6-17.4-1.9-23.5c-1.3-6.1-3.4-10.9-6.5-14.4
		c-3-3.5-6.9-6-11.7-7.4c-4.8-1.4-10.5-2.2-17.3-2.2c-25.2,0-37.9,15.3-37.9,46v143.3h-62.3V102.4h58.5v34.5
		c8-15.7,17.6-26.4,28.8-32.1c11.2-5.8,24.6-8.6,40.3-8.6c8,0,15.1,0.6,21.3,1.9c6.2,1.3,11.8,3.4,16.8,6.5c4.9,3,9.7,6.9,14.1,11.7
		c4.5,4.8,8.9,10.5,13.4,17.3c6.4-13.1,14.9-22.6,25.4-28.5c10.5-5.9,23.3-8.9,38.3-8.9c11.8,0,22.7,2,32.6,6
		c9.9,4,18.4,9.6,25.4,16.8c7,7.2,12.5,15.6,16.5,25.2c4,9.6,6,19.8,6,30.7v163.4H499.9z"/>
</g>
<g id="XMLID_399_">
	<path id="XMLID_400_" class="st1" d="M662.8,181.5h58v67.1c0,12.5-1.8,24.4-5.5,35.7c-3.7,11.3-9.4,21.4-17.3,30.2
		c-7.8,8.8-17.7,15.7-29.7,20.8c-12,5.1-26.3,7.7-42.9,7.7c-17.3,0-32-2.6-44.1-7.7c-12.1-5.1-22.1-12-30-20.6
		c-7.8-8.6-13.5-18.7-17-30.2c-3.5-11.5-5.3-23.6-5.3-36.4V37.3h61.3V101h130.4v44.1H590.5v96.8c0,15,2.8,26.6,8.4,34.7
		c5.6,8.1,14.8,12.2,27.6,12.2c12.5,0,21.6-4,27.6-12c5.9-8,8.9-19.3,8.9-34V181.5z"/>
</g>
<g id="XMLID_442_">
	<path id="XMLID_443_" class="st1" d="M196,338.1c-1.9-6.1-3.2-13.1-3.9-21.1c-7.3,8.3-17.1,15-29.2,20c-12.1,5-26.2,7.5-42.2,7.5
		c-27.2,0.1-47.1-5.9-59.7-17.8c-12.7-12-19-27.5-19-46.7c0-16.9,2.6-30.4,8.1-40.5c5.4-10.1,12.9-18,22.5-23.8
		c9.6-5.8,21-10,34.2-12.8c13.2-2.7,27.7-5.3,43.4-7.5c15.6-2.3,26.2-5.2,31.6-8.9c5.4-3.7,8.1-9.7,8.1-18c0-7.7-3.6-13.7-10.8-17.9
		c-7.2-4.3-16.9-6.4-29-6.4c-14.4,0-24.7,3.3-30.9,9.7c-6.2,6.4-10.1,14.9-11.7,25.4l-58,0.1c0.3-12.1,2.3-23.3,5.9-33.6
		c3.6-10.2,9.5-19,17.7-26.4c8.1-7.4,18.7-13.1,31.8-17.1c13.1-4,29.1-6.1,47.9-6.1c18.5,0,34.3,2,47.2,6.1
		c12.9,4.1,23.3,10.1,31.2,17.9c7.8,7.8,13.5,17.5,17.1,29.2c3.5,11.7,5.3,24.8,5.4,39.5l0.3,149.1L196,338.1z M191.5,222.6
		c-3.2,3.2-7.8,5.8-13.9,7.7c-6.1,1.9-14.8,4-26.3,6.3c-17.9,3.6-30.2,8.1-36.9,13.5c-6.7,5.5-10,13.3-10,23.5
		c0,17.6,10.1,26.3,30.3,26.3c8,0,15.4-1.4,22.3-4.1c6.9-2.7,12.8-6.4,17.7-11.1c4.9-4.6,8.9-10.1,11.9-16.3
		c3-6.2,4.5-12.9,4.5-19.9L191.5,222.6z"/>
</g>
<text id="XMLID_441_" transform="matrix(1 0 0 1 7.1359 440.7344)"><tspan x="0" y="0" class="st2 st3 st4 st5">Institute of </tspan><tspan x="0" y="80.8" class="st2 st3 st4 st5">Advanced Manufacturing </tspan><tspan x="0" y="161.6" class="st2 st3 st4 st5">and Technology</tspan></text>
<g id="XMLID_393_">
	<path id="XMLID_438_" class="st6" d="M83.4,45.1c0-0.9,0-1.8-0.1-2.7l6.8-6.6c-0.4-1.7-0.8-3.5-1.4-5.1l-9.2-2.3
		c-0.8-1.6-1.7-3.2-2.7-4.7l2.6-9.2c-1.2-1.3-2.4-2.6-3.8-3.8l-9.2,2.6c-1.5-1-3-1.9-4.7-2.7l-2.3-9.2c-1.7-0.6-3.4-1-5.1-1.4
		l-6.6,6.8c-0.9-0.1-1.8-0.1-2.7-0.1c-0.9,0-1.8,0-2.7,0.1L35.8,0c-1.7,0.4-3.5,0.8-5.1,1.4l-2.3,9.2c-1.6,0.8-3.2,1.7-4.7,2.7
		l-9.2-2.6c-1.3,1.2-2.6,2.4-3.8,3.8l2.6,9.2c-1,1.5-1.9,3-2.7,4.7l-9.2,2.3c-0.6,1.7-1,3.4-1.4,5.1l6.8,6.6
		c-0.1,0.9-0.1,1.8-0.1,2.7c0,0.9,0,1.8,0.1,2.7L0,54.4c0.4,1.7,0.8,3.5,1.4,5.1l9.2,2.3c0.8,1.6,1.7,3.2,2.7,4.7l-2.6,9.2
		c1.2,1.3,2.4,2.6,3.8,3.8l9.2-2.6c1.5,1,3,1.9,4.7,2.7l2.3,9.2c1.7,0.6,3.4,1,5.1,1.4l6.6-6.8c0.9,0.1,1.8,0.1,2.7,0.1
		c0.9,0,1.8,0,2.7-0.1l6.6,6.8c1.7-0.4,3.5-0.8,5.1-1.4l2.3-9.2c1.6-0.8,3.2-1.7,4.7-2.7l9.2,2.6c1.3-1.2,2.6-2.4,3.8-3.8l-2.6-9.2
		c1-1.5,1.9-3,2.7-4.7l9.2-2.3c0.6-1.7,1-3.4,1.4-5.1l-6.8-6.6C83.4,46.9,83.4,46,83.4,45.1z M45.1,69c-13.2,0-23.9-10.7-23.9-23.9
		c0-13.2,10.7-23.9,23.9-23.9C58.3,21.2,69,31.9,69,45.1C69,58.3,58.3,69,45.1,69z"/>
	<path id="XMLID_394_" class="st7" d="M45.1,12.9c-17.8,0-32.2,14.4-32.2,32.2c0,17.8,14.4,32.2,32.2,32.2
		c17.8,0,32.2-14.4,32.2-32.2C77.3,27.3,62.9,12.9,45.1,12.9z M45.1,69c-13.2,0-23.9-10.7-23.9-23.9c0-13.2,10.7-23.9,23.9-23.9
		C58.3,21.2,69,31.9,69,45.1C69,58.3,58.3,69,45.1,69z"/>
</g>
</svg>
