<?xml version="1.0" encoding="utf-8"?>
<!-- Generator: Adobe Illustrator 19.2.1, SVG Export Plug-In . SVG Version: 6.00 Build 0)  -->
<svg version="1.1" id="Layer_1" xmlns="http://www.w3.org/2000/svg" xmlns:xlink="http://www.w3.org/1999/xlink" x="0px" y="0px"
	 viewBox="0 0 266 125" style="enable-background:new 0 0 266 125;" xml:space="preserve">
<style type="text/css">
	.st0{fill:#4D4D4C;}
	.st1{fill:#99CC66;}
</style>
<g id="XMLID_1_">
	<g>
		<path class="st0" d="M137.5,1.5c-2.4,0-4.3,1.3-5.1,3.2l-0.2,0.6c0,0.1-0.1,0.2-0.1,0.4c-1-1.6-2.2-2.7-3.5-3.4
			c-0.5-0.2-0.9-0.4-1.4-0.4l-2.5-1.8c1.5-0.2,3-0.2,4.6,0.6c0.9,0.4,1.6,0.9,2.2,1.5c0.2-0.2,0.3-0.3,0.5-0.5
			c1-0.9,2.2-1.3,3.5-1.6L137.5,1.5L137.5,1.5z"/>
	</g>
</g>
<path class="st0" d="M133.6,105v8.8c-6.4,3.3-13.1,5.1-19.6,5.1c-6.3,0-12-1.7-16.9-4.9c-8.1-5.3-12.8-13.9-12.8-23.5
	c0-3.9,0.9-7.7,2.5-11.2l6.2,7.3c-0.3,1.3-0.4,2.7-0.4,4.1c0,11.7,9,20.7,21.5,20.8C120.5,111.5,126.9,109.3,133.6,105z"/>
<path class="st0" d="M133.1,67.2v8.4c-6.6-3.6-12.6-5.5-18.6-5.5l-8.1-6.5c2.6-0.6,5.3-0.9,8.1-0.8C122,62.8,128.1,64.9,133.1,67.2z
	"/>
<path class="st0" d="M130.1,16.9c-0.1,0-0.1,0-0.2,0c-4.9,0-8.6,2.6-10.2,6.3l-0.5,1.3c-0.1,0.3-0.1,0.6-0.2,0.9l-0.1-0.1
	c-2.2-3.1-4.4-5.3-7.1-6.7c-0.8-0.4-1.7-0.7-2.4-1.1l-5-3.6c3-0.3,6.1-0.3,9.2,1.3c1.7,0.9,3.2,2,4.4,3.1c0.3-0.3,0.7-0.7,1-1
	c2-1.9,4.3-2.6,7-3.2L130.1,16.9z"/>
<path class="st0" d="M117.7,43.4c-0.1,0-0.2,0-0.3,0c-9.2,0-16.3,4.9-19.3,11.9l-0.9,2.4c-0.2,0.6-0.3,1.1-0.4,1.7l-0.1-0.2
	c-4.1-5.8-8.3-10-13.4-12.6c-1.6-0.8-3.2-1.4-4.8-1.9L69.1,38c5.8-0.7,11.5-0.6,17.4,2.4c3.3,1.7,6.1,3.7,8.4,5.8
	c0.5-0.7,1.2-1.4,1.8-2c3.8-3.5,8.2-4.9,13.3-6L117.7,43.4z"/>
<path class="st0" d="M84.2,105v8.8c-6.4,3.3-13.1,5.1-19.6,5.1c-6.3,0-12-1.7-16.9-4.9c-8.1-5.3-12.8-13.9-12.8-23.5
	c0-7.3,3.1-14.5,8.5-19.7c5.5-5.3,12.3-8,20.6-8.2l11.2,9.1c-3.4-1.2-6.8-1.8-10.1-1.8c-13,0-22,9.2-22,20.8
	c0,11.7,9,20.7,21.6,20.8C71.1,111.5,77.5,109.3,84.2,105z"/>
<polygon class="st0" points="16.7,89 44.8,117.9 34,117.9 7.8,91 7.8,117.9 0,117.9 0,63.5 7.8,63.5 7.8,87.9 34.5,63.5 44.3,63.5 
	"/>
<path class="st1" d="M161.6,79.9H157c-0.9-1.4-1.9-2.7-3-4.1c-1.1-1.4-2.2-2.7-3.4-4h-0.3v5.7c0,0.3,0,0.5,0.1,0.7
	c0.1,0.2,0.3,0.4,0.5,0.5c0.1,0.1,0.4,0.1,0.7,0.2c0.3,0.1,0.6,0.1,0.8,0.1v0.9h-6.9v-0.8c0.2,0,0.4,0,0.8-0.1
	c0.3,0,0.6-0.1,0.7-0.1c0.2-0.1,0.4-0.2,0.5-0.4c0.1-0.2,0.2-0.4,0.2-0.7V65.9c0-0.3,0-0.5-0.1-0.7c-0.1-0.2-0.3-0.4-0.5-0.5
	c-0.2-0.1-0.5-0.2-0.8-0.3c-0.3-0.1-0.5-0.1-0.8-0.1v-0.8h6.9v0.8c-0.2,0-0.5,0-0.8,0.1c-0.3,0.1-0.6,0.1-0.7,0.2
	c-0.3,0.1-0.4,0.2-0.5,0.5c-0.1,0.2-0.1,0.5-0.1,0.7v5.7h0.2c0.7-0.6,1.4-1.2,2-1.8c0.7-0.6,1.3-1.3,1.8-1.9
	c0.6-0.7,1.1-1.3,1.3-1.7c0.3-0.4,0.4-0.8,0.4-1.1c0-0.1-0.1-0.2-0.2-0.3s-0.3-0.1-0.5-0.2c-0.2,0-0.4-0.1-0.6-0.1
	c-0.2,0-0.3,0-0.4,0v-0.8h6.2v0.8c0,0-0.1,0-0.2,0s-0.2,0-0.3,0c-0.1,0-0.2,0-0.3,0s-0.2,0-0.4,0.1c-0.3,0.1-0.5,0.2-0.8,0.3
	c-0.3,0.1-0.5,0.3-0.7,0.5c-0.8,0.9-1.6,1.8-2.5,2.8c-0.9,1-1.7,1.9-2.6,2.7c1.2,1.3,2.1,2.5,2.9,3.4c0.8,1,1.6,2,2.5,3.1
	c0.3,0.4,0.7,0.7,1,1c0.3,0.2,0.6,0.4,0.9,0.6c0.2,0.1,0.4,0.2,0.7,0.2c0.3,0.1,0.5,0.1,0.7,0.1v0.7L161.6,79.9L161.6,79.9z"/>
<path class="st1" d="M174.9,79.9h-5.6v-0.8c0.2,0,0.4,0,0.6,0c0.2,0,0.4,0,0.5-0.1c0.2-0.1,0.4-0.2,0.5-0.4c0.1-0.2,0.2-0.4,0.2-0.7
	V72c0-0.8-0.2-1.4-0.6-1.9c-0.4-0.5-0.8-0.7-1.4-0.7c-0.4,0-0.8,0.1-1.1,0.2s-0.6,0.3-0.9,0.5c-0.3,0.2-0.5,0.4-0.6,0.6
	c-0.1,0.2-0.3,0.4-0.3,0.5v6.7c0,0.3,0.1,0.5,0.2,0.7c0.1,0.2,0.3,0.3,0.5,0.4c0.2,0.1,0.3,0.1,0.5,0.2c0.2,0,0.4,0.1,0.6,0.1v0.6
	h-5.6v-0.8c0.2,0,0.4,0,0.6,0s0.4,0,0.5-0.1c0.2-0.1,0.4-0.2,0.5-0.4c0.1-0.2,0.2-0.4,0.2-0.7v-7c0-0.3-0.1-0.5-0.2-0.7
	s-0.3-0.4-0.5-0.5c-0.1-0.1-0.3-0.2-0.5-0.2s-0.4-0.1-0.6-0.1v-0.8l3.8-0.2l0.2,0.2v1.6h0.1c0.2-0.2,0.4-0.4,0.7-0.7
	s0.5-0.5,0.8-0.6c0.3-0.2,0.6-0.3,1-0.5c0.4-0.1,0.8-0.2,1.3-0.2c1.1,0,1.9,0.3,2.4,1s0.8,1.6,0.8,2.7v6c0,0.3,0,0.5,0.1,0.7
	c0.1,0.2,0.3,0.3,0.5,0.4c0.2,0.1,0.4,0.1,0.5,0.2c0.1,0,0.3,0.1,0.6,0.1v0.6L174.9,79.9L174.9,79.9z"/>
<path class="st1" d="M186.5,74.1c0,0.8-0.1,1.6-0.4,2.4c-0.3,0.8-0.6,1.4-1.1,2s-1.2,1.1-1.9,1.4c-0.7,0.3-1.5,0.5-2.4,0.5
	c-0.7,0-1.4-0.1-2.1-0.4c-0.7-0.3-1.2-0.7-1.8-1.2c-0.5-0.5-0.9-1.1-1.2-1.9c-0.3-0.7-0.4-1.6-0.4-2.5c0-1.8,0.5-3.2,1.6-4.4
	c1-1.1,2.4-1.7,4.1-1.7c1.6,0,2.9,0.5,4,1.6C186,70.9,186.5,72.3,186.5,74.1z M184.1,74.1c0-0.6-0.1-1.2-0.2-1.8
	c-0.1-0.6-0.3-1.2-0.5-1.6c-0.2-0.5-0.6-0.9-1-1.2c-0.4-0.3-0.9-0.4-1.5-0.4c-0.6,0-1.1,0.1-1.5,0.4c-0.4,0.3-0.8,0.7-1,1.2
	c-0.2,0.5-0.4,1-0.5,1.6c-0.1,0.6-0.2,1.2-0.2,1.7c0,0.7,0.1,1.4,0.2,2.1c0.1,0.6,0.3,1.2,0.6,1.7s0.6,0.9,1,1.2
	c0.4,0.3,0.9,0.4,1.5,0.4c1,0,1.7-0.5,2.3-1.4C183.8,77.1,184.1,75.8,184.1,74.1z"/>
<path class="st1" d="M203.8,69.2c-0.3,0-0.7,0.2-1.1,0.4c-0.4,0.2-0.6,0.6-0.8,1.1c-0.4,1.1-0.8,2.2-1.1,3.2c-0.3,1-0.7,2.2-1.2,3.4
	c-0.1,0.4-0.3,0.8-0.4,1.3s-0.3,0.9-0.4,1.3h-1l-3.1-8.4l-3.1,8.4h-1c-0.6-1.7-1.1-3.4-1.7-5.1c-0.6-1.7-1-3.2-1.5-4.4
	c-0.1-0.4-0.4-0.6-0.7-0.9c-0.3-0.2-0.7-0.3-1-0.4v-0.8h5.1v0.8c-0.3,0-0.5,0-0.8,0.1s-0.4,0.2-0.4,0.4c0,0,0,0.1,0,0.2
	c0,0.1,0.1,0.2,0.1,0.3c0.2,0.8,0.5,1.7,0.8,2.7c0.3,1,0.7,2.3,1.2,3.9l2.9-8.2h1.1l3,8.1c0.3-1,0.7-2,1-3s0.6-1.9,0.9-2.7
	c0.1-0.2,0.1-0.4,0.2-0.6c0.1-0.2,0.1-0.3,0.1-0.5c0-0.1-0.1-0.3-0.2-0.4c-0.1-0.1-0.3-0.2-0.5-0.3s-0.3-0.1-0.5-0.1s-0.3,0-0.4,0
	v-0.7h4.4L203.8,69.2L203.8,69.2L203.8,69.2z"/>
<path class="st1" d="M211.3,74.3c0.3,0.3,0.6,0.6,0.7,1c0.2,0.4,0.3,0.8,0.3,1.3c0,1.1-0.4,1.9-1.2,2.6c-0.8,0.7-1.8,1-3.1,1
	c-0.7,0-1.3-0.1-1.8-0.4c-0.6-0.2-1-0.5-1.2-0.7l-0.2,0.8h-0.9l-0.1-4h0.8c0.1,0.3,0.2,0.7,0.4,1.1c0.2,0.4,0.4,0.8,0.7,1.1
	c0.3,0.3,0.7,0.6,1.1,0.9c0.4,0.2,0.9,0.3,1.4,0.3c0.7,0,1.3-0.2,1.7-0.5c0.4-0.3,0.6-0.8,0.6-1.5c0-0.3-0.1-0.6-0.2-0.8
	c-0.1-0.2-0.3-0.4-0.6-0.6c-0.3-0.2-0.6-0.3-0.9-0.5c-0.4-0.1-0.8-0.3-1.2-0.4c-0.4-0.1-0.8-0.3-1.2-0.4c-0.4-0.2-0.8-0.4-1.1-0.7
	c-0.3-0.3-0.6-0.6-0.8-1c-0.2-0.4-0.3-0.9-0.3-1.4c0-0.9,0.3-1.7,1-2.4c0.7-0.6,1.6-1,2.8-1c0.4,0,0.9,0.1,1.4,0.2
	c0.5,0.1,0.8,0.3,1.1,0.4l0.3-0.6h0.8l0.2,3.7H211c-0.2-0.8-0.5-1.5-1-2s-1.2-0.8-2-0.8c-0.6,0-1.1,0.2-1.5,0.5
	c-0.4,0.3-0.5,0.7-0.5,1.2c0,0.3,0.1,0.6,0.2,0.9c0.1,0.2,0.3,0.4,0.5,0.6c0.2,0.2,0.5,0.3,0.9,0.4c0.4,0.1,0.8,0.3,1.3,0.5
	c0.5,0.2,1,0.4,1.4,0.6C210.7,73.8,211,74.1,211.3,74.3z"/>
<path class="st1" d="M218.9,79.9h-5.6v-0.8c0.2,0,0.4,0,0.6-0.1c0.2,0,0.4,0,0.5-0.1c0.2-0.1,0.4-0.2,0.5-0.4
	c0.1-0.2,0.2-0.4,0.2-0.7V64.7c0-0.3-0.1-0.5-0.2-0.8c-0.1-0.2-0.3-0.4-0.5-0.6c-0.1-0.1-0.4-0.2-0.8-0.3c-0.4-0.1-0.7-0.1-0.9-0.1
	v-0.8l4.3-0.2l0.2,0.2v15.8c0,0.3,0,0.5,0.1,0.7c0.1,0.2,0.3,0.3,0.5,0.4c0.2,0.1,0.3,0.1,0.5,0.2c0.2,0,0.4,0.1,0.6,0.1L218.9,79.9
	L218.9,79.9z"/>
<path class="st1" d="M230,77.2c-0.5,0.9-1.1,1.6-1.9,2.2c-0.8,0.5-1.7,0.8-2.8,0.8c-0.9,0-1.7-0.2-2.4-0.5c-0.7-0.3-1.3-0.8-1.7-1.3
	c-0.4-0.6-0.8-1.2-1-1.9s-0.3-1.5-0.3-2.4c0-0.7,0.1-1.5,0.4-2.2c0.2-0.7,0.6-1.4,1-1.9c0.4-0.5,1-1,1.6-1.3
	c0.7-0.3,1.4-0.5,2.2-0.5c0.8,0,1.6,0.1,2.2,0.4c0.6,0.3,1.1,0.6,1.5,1.1c0.4,0.4,0.6,0.9,0.8,1.5c0.2,0.6,0.3,1.2,0.3,1.9v0.8h-7.6
	c0,0.8,0.1,1.4,0.2,2c0.1,0.6,0.4,1.2,0.7,1.6c0.3,0.5,0.7,0.8,1.2,1.1c0.5,0.3,1.1,0.4,1.7,0.4c0.7,0,1.3-0.2,1.8-0.5
	c0.5-0.3,1-0.9,1.4-1.7L230,77.2z M227.5,72.9c0-0.4,0-0.9-0.1-1.4c-0.1-0.5-0.2-0.9-0.4-1.2c-0.2-0.4-0.4-0.6-0.7-0.9
	c-0.3-0.2-0.7-0.3-1.2-0.3c-0.8,0-1.5,0.3-2,1c-0.5,0.7-0.8,1.6-0.9,2.8L227.5,72.9L227.5,72.9L227.5,72.9z"/>
<path class="st1" d="M230,83.7c0-0.4,0.1-0.7,0.3-0.9c0.2-0.2,0.5-0.4,0.8-0.4c0.2,0,0.5,0,0.6,0.1c0.2,0.1,0.3,0.2,0.5,0.4
	c0.1,0.1,0.2,0.3,0.4,0.5c0.1,0.2,0.2,0.4,0.3,0.5c0.4-0.2,0.8-0.8,1.4-1.6c0.5-0.9,0.9-1.7,1.2-2.3c-0.7-1.8-1.4-3.5-2-4.9
	c-0.6-1.4-1.2-2.9-1.9-4.5c-0.1-0.4-0.4-0.6-0.7-0.8c-0.3-0.2-0.7-0.3-1-0.4v-0.8h5.2v0.8c-0.2,0-0.5,0.1-0.8,0.1
	c-0.3,0.1-0.5,0.2-0.5,0.3c0,0,0,0.1,0.1,0.2c0,0.1,0.1,0.2,0.1,0.3c0.3,0.8,0.7,1.9,1.3,3.3c0.6,1.4,1.1,2.6,1.4,3.4
	c0.3-0.8,0.7-1.7,1.1-2.6c0.4-0.9,0.8-1.9,1.3-3.1c0.1-0.1,0.1-0.3,0.2-0.6c0.1-0.3,0.2-0.5,0.2-0.7s-0.2-0.4-0.5-0.6
	c-0.4-0.2-0.7-0.3-1-0.3v-0.7h4.2v0.7c-0.2,0-0.5,0.2-0.9,0.4c-0.4,0.2-0.7,0.6-0.8,1c-0.9,2.1-1.7,4.1-2.5,5.8
	c-0.7,1.8-1.3,3-1.6,3.9c-0.5,1.1-0.9,1.9-1.3,2.5c-0.4,0.6-0.8,1.1-1.1,1.4c-0.4,0.3-0.7,0.5-1,0.7c-0.3,0.1-0.6,0.2-0.9,0.2
	c-0.6,0-1.1-0.1-1.4-0.4C230.2,84.4,230,84,230,83.7z"/>
<path class="st1" d="M152.8,100.4c-1,0-1.9-0.2-2.8-0.6c-0.9-0.4-1.7-0.9-2.4-1.7c-0.7-0.7-1.2-1.6-1.6-2.7c-0.4-1-0.6-2.2-0.6-3.5
	c0-1.3,0.2-2.5,0.6-3.6c0.4-1.1,1-2,1.7-2.8c0.7-0.8,1.5-1.4,2.5-1.8s2-0.6,3.1-0.6c0.8,0,1.5,0.1,2.2,0.3c0.7,0.2,1.3,0.5,1.9,0.8
	l0.5-0.8h0.9l0.1,5.9H158c-0.1-0.6-0.3-1.2-0.6-1.9c-0.2-0.7-0.5-1.2-0.9-1.7c-0.4-0.5-0.8-0.9-1.3-1.2c-0.5-0.3-1.1-0.4-1.7-0.4
	c-0.7,0-1.4,0.2-2.1,0.5c-0.6,0.3-1.2,0.8-1.7,1.5c-0.4,0.6-0.8,1.4-1.1,2.4c-0.3,1-0.4,2-0.4,3.2c0,1.1,0.1,2,0.4,2.9
	c0.3,0.9,0.6,1.6,1.1,2.3c0.5,0.7,1.1,1.2,1.7,1.5c0.7,0.4,1.4,0.6,2.3,0.6c0.6,0,1.2-0.1,1.7-0.3s1-0.5,1.4-0.8
	c0.4-0.3,0.7-0.7,1-1.2c0.3-0.4,0.5-0.9,0.7-1.4l0.9,0.4c-0.7,1.6-1.5,2.8-2.6,3.5C155.7,100,154.4,100.4,152.8,100.4z"/>
<path class="st1" d="M171.2,94.2c0,0.8-0.1,1.6-0.4,2.4c-0.3,0.8-0.6,1.4-1.1,2c-0.5,0.6-1.2,1.1-1.9,1.4c-0.7,0.3-1.5,0.5-2.4,0.5
	c-0.7,0-1.4-0.1-2.1-0.4c-0.7-0.3-1.2-0.7-1.8-1.2c-0.5-0.5-0.9-1.1-1.2-1.9c-0.3-0.7-0.4-1.6-0.4-2.5c0-1.8,0.5-3.2,1.6-4.4
	c1-1.1,2.4-1.7,4.1-1.7c1.6,0,2.9,0.5,4,1.6C170.7,90.9,171.2,92.4,171.2,94.2z M168.9,94.2c0-0.6-0.1-1.2-0.2-1.8
	c-0.1-0.6-0.3-1.2-0.5-1.6c-0.2-0.5-0.6-0.9-1-1.2c-0.4-0.3-0.9-0.4-1.5-0.4c-0.6,0-1.1,0.1-1.5,0.4c-0.4,0.3-0.8,0.7-1,1.2
	s-0.4,1-0.5,1.6c-0.1,0.6-0.2,1.2-0.2,1.7c0,0.7,0.1,1.4,0.2,2.1c0.1,0.6,0.3,1.2,0.6,1.7c0.3,0.5,0.6,0.9,1,1.2
	c0.4,0.3,0.9,0.4,1.5,0.4c1,0,1.7-0.5,2.3-1.4C168.6,97.1,168.9,95.8,168.9,94.2z"/>
<path class="st1" d="M191.5,100h-5.6v-0.8c0.2,0,0.4,0,0.6,0s0.3,0,0.5-0.1c0.2-0.1,0.4-0.2,0.5-0.4c0.1-0.2,0.2-0.4,0.2-0.7v-5.9
	c0-0.8-0.2-1.4-0.6-1.9c-0.4-0.4-0.8-0.7-1.4-0.7c-0.4,0-0.7,0.1-1.1,0.2c-0.3,0.1-0.6,0.3-0.9,0.5c-0.2,0.2-0.4,0.4-0.6,0.6
	c-0.2,0.2-0.3,0.4-0.3,0.5v6.6c0,0.3,0,0.5,0.1,0.7c0.1,0.2,0.3,0.3,0.5,0.4c0.2,0.1,0.3,0.1,0.5,0.2c0.1,0,0.3,0.1,0.6,0.1v0.8H179
	v-0.8c0.2,0,0.3,0,0.5,0s0.3,0,0.5-0.1s0.4-0.2,0.5-0.4c0.1-0.2,0.2-0.4,0.2-0.7v-5.9c0-0.8-0.2-1.4-0.5-1.9
	c-0.4-0.4-0.8-0.7-1.4-0.7c-0.4,0-0.7,0.1-1.1,0.2c-0.3,0.1-0.6,0.3-0.9,0.5c-0.2,0.2-0.4,0.4-0.6,0.6c-0.2,0.2-0.3,0.4-0.3,0.5v6.5
	c0,0.3,0.1,0.5,0.2,0.7c0.1,0.2,0.3,0.3,0.5,0.4c0.2,0.1,0.3,0.1,0.5,0.2c0.2,0,0.4,0.1,0.6,0.1v0.8h-5.6v-0.8c0.2,0,0.4,0,0.6,0
	s0.4,0,0.5-0.1c0.2-0.1,0.4-0.2,0.5-0.4c0.1-0.2,0.2-0.4,0.2-0.7v-7.2c0-0.2-0.1-0.5-0.2-0.7c-0.1-0.2-0.3-0.4-0.5-0.5
	c-0.1-0.1-0.3-0.2-0.5-0.2c-0.2-0.1-0.4-0.1-0.7-0.1v-0.8l3.9-0.2l0.2,0.2v1.6h0.1c0.2-0.2,0.4-0.4,0.7-0.7c0.3-0.3,0.5-0.5,0.8-0.6
	c0.3-0.2,0.6-0.3,1-0.5c0.4-0.1,0.8-0.2,1.3-0.2c0.7,0,1.4,0.2,1.9,0.6s0.9,0.9,1.1,1.4c0.3-0.3,0.5-0.5,0.7-0.7
	c0.2-0.2,0.5-0.4,0.8-0.7c0.3-0.2,0.6-0.4,1-0.5c0.4-0.1,0.8-0.2,1.3-0.2c1,0,1.7,0.3,2.3,1c0.6,0.6,0.8,1.6,0.8,2.9v5.9
	c0,0.3,0,0.5,0.1,0.7c0.1,0.2,0.3,0.3,0.5,0.4s0.4,0.1,0.5,0.2c0.2,0,0.4,0.1,0.6,0.1v0.7L191.5,100L191.5,100z"/>
<path class="st1" d="M212,100h-5.6v-0.8c0.2,0,0.4,0,0.6,0s0.3,0,0.5-0.1c0.2-0.1,0.4-0.2,0.5-0.4c0.1-0.2,0.2-0.4,0.2-0.7v-5.9
	c0-0.8-0.2-1.4-0.5-1.9c-0.4-0.4-0.8-0.7-1.4-0.7c-0.4,0-0.7,0.1-1.1,0.2c-0.3,0.1-0.6,0.3-0.9,0.5c-0.2,0.2-0.4,0.4-0.6,0.6
	c-0.2,0.2-0.3,0.4-0.3,0.5v6.6c0,0.3,0,0.5,0.1,0.7c0.1,0.2,0.3,0.3,0.5,0.4s0.3,0.1,0.5,0.2c0.1,0,0.3,0.1,0.6,0.1v0.8h-5.5v-0.8
	c0.2,0,0.3,0,0.5,0c0.2,0,0.3,0,0.5-0.1c0.2-0.1,0.4-0.2,0.5-0.4c0.1-0.2,0.2-0.4,0.2-0.7v-5.9c0-0.8-0.2-1.4-0.5-1.9
	c-0.4-0.4-0.8-0.7-1.4-0.7c-0.4,0-0.7,0.1-1.1,0.2c-0.3,0.1-0.6,0.3-0.9,0.5c-0.2,0.2-0.4,0.4-0.6,0.6c-0.2,0.2-0.3,0.4-0.3,0.5v6.5
	c0,0.3,0.1,0.5,0.2,0.7c0.1,0.2,0.3,0.3,0.5,0.4s0.3,0.1,0.5,0.2c0.2,0,0.4,0.1,0.6,0.1v0.8h-5.6v-0.8c0.2,0,0.4,0,0.6,0
	s0.4,0,0.5-0.1c0.2-0.1,0.4-0.2,0.5-0.4c0.1-0.2,0.2-0.4,0.2-0.7v-7.2c0-0.2-0.1-0.5-0.2-0.7c-0.1-0.2-0.3-0.4-0.5-0.5
	c-0.1-0.1-0.3-0.2-0.5-0.2c-0.2-0.1-0.4-0.1-0.7-0.1v-0.8l3.9-0.2l0.2,0.2v1.6h0.1c0.2-0.2,0.4-0.4,0.7-0.7c0.3-0.3,0.5-0.5,0.8-0.6
	c0.3-0.2,0.6-0.3,1-0.5c0.4-0.1,0.8-0.2,1.3-0.2c0.7,0,1.4,0.2,1.9,0.6s0.9,0.9,1.1,1.4c0.3-0.3,0.5-0.5,0.7-0.7
	c0.2-0.2,0.5-0.4,0.8-0.7c0.3-0.2,0.6-0.4,1-0.5c0.4-0.1,0.8-0.2,1.3-0.2c1,0,1.7,0.3,2.3,1c0.6,0.6,0.8,1.6,0.8,2.9v5.9
	c0,0.3,0,0.5,0.1,0.7c0.1,0.2,0.3,0.3,0.5,0.4s0.4,0.1,0.5,0.2c0.2,0,0.4,0.1,0.6,0.1v0.7L212,100L212,100z"/>
<path class="st1" d="M225.1,99.8l-3.7,0.2l-0.2-0.2v-1.4h-0.1c-0.2,0.2-0.4,0.4-0.6,0.6c-0.2,0.2-0.5,0.4-0.8,0.6
	c-0.3,0.2-0.7,0.4-1,0.5c-0.3,0.1-0.8,0.2-1.4,0.2c-1,0-1.8-0.3-2.3-1c-0.5-0.7-0.8-1.6-0.8-2.9v-5.5c0-0.3-0.1-0.5-0.2-0.7
	s-0.3-0.4-0.5-0.5c-0.1-0.1-0.3-0.2-0.5-0.2s-0.4-0.1-0.7-0.1v-0.8l3.8-0.2l0.2,0.2v7.9c0,0.8,0.2,1.5,0.6,1.9
	c0.4,0.4,0.8,0.6,1.3,0.6c0.4,0,0.8-0.1,1.1-0.2c0.3-0.1,0.6-0.3,0.8-0.5c0.2-0.2,0.4-0.3,0.5-0.5c0.2-0.2,0.3-0.4,0.4-0.5v-6.5
	c0-0.3-0.1-0.5-0.2-0.7c-0.1-0.2-0.3-0.4-0.5-0.5c-0.1-0.1-0.3-0.1-0.6-0.2c-0.3,0-0.6,0-0.9-0.1v-0.8l4.2-0.2l0.2,0.2v9.1
	c0,0.3,0.1,0.5,0.2,0.7c0.1,0.2,0.3,0.3,0.5,0.5c0.1,0.1,0.3,0.1,0.5,0.2c0.2,0,0.4,0,0.6,0.1v0.7L225.1,99.8L225.1,99.8L225.1,99.8
	z"/>
<path class="st1" d="M238.7,100H233v-0.8c0.2,0,0.4,0,0.6,0c0.2,0,0.4,0,0.5-0.1c0.2-0.1,0.4-0.2,0.5-0.4c0.1-0.2,0.2-0.4,0.2-0.7
	v-5.9c0-0.8-0.2-1.4-0.6-1.9c-0.4-0.4-0.8-0.7-1.4-0.7c-0.4,0-0.8,0.1-1.1,0.2c-0.3,0.1-0.6,0.3-0.9,0.5c-0.3,0.2-0.5,0.4-0.6,0.6
	s-0.3,0.4-0.3,0.5v6.6c0,0.3,0.1,0.5,0.2,0.6c0.1,0.2,0.3,0.3,0.5,0.4c0.2,0.1,0.3,0.1,0.5,0.2c0.2,0,0.4,0.1,0.6,0.1v0.8H226v-0.8
	c0.2,0,0.4,0,0.6,0c0.2,0,0.4,0,0.5-0.1c0.2-0.1,0.4-0.2,0.5-0.4c0.1-0.2,0.2-0.4,0.2-0.7v-7.1c0-0.3-0.1-0.5-0.2-0.7
	c-0.1-0.2-0.3-0.4-0.5-0.5c-0.1-0.1-0.3-0.2-0.5-0.2c-0.2,0-0.4-0.1-0.6-0.1v-0.8l3.8-0.2l0.2,0.2v1.6h0.1c0.2-0.2,0.4-0.4,0.7-0.7
	c0.3-0.3,0.5-0.5,0.8-0.6c0.3-0.2,0.6-0.3,1-0.5c0.4-0.1,0.8-0.2,1.3-0.2c1.1,0,1.9,0.3,2.4,1c0.5,0.7,0.8,1.6,0.8,2.7v6
	c0,0.3,0,0.5,0.1,0.7c0.1,0.2,0.3,0.3,0.5,0.4c0.2,0.1,0.4,0.1,0.5,0.2c0.1,0,0.3,0.1,0.6,0.1v0.7L238.7,100L238.7,100z"/>
<path class="st1" d="M245.2,100h-5.6v-0.8c0.2,0,0.4,0,0.6,0s0.4,0,0.5-0.1c0.2-0.1,0.4-0.2,0.5-0.4c0.1-0.2,0.2-0.4,0.2-0.7v-7.1
	c0-0.2-0.1-0.5-0.2-0.7c-0.1-0.2-0.3-0.4-0.5-0.5c-0.1-0.1-0.4-0.2-0.6-0.2c-0.3-0.1-0.5-0.1-0.8-0.1v-0.8l4-0.2l0.2,0.2v9.3
	c0,0.3,0.1,0.5,0.2,0.7c0.1,0.2,0.3,0.3,0.5,0.4c0.2,0.1,0.3,0.1,0.5,0.2c0.2,0,0.3,0.1,0.5,0.1L245.2,100L245.2,100z M243.7,83.9
	c0,0.4-0.1,0.8-0.4,1.2c-0.3,0.3-0.6,0.5-1.1,0.5c-0.4,0-0.7-0.2-1-0.5c-0.3-0.3-0.4-0.7-0.4-1.1c0-0.4,0.1-0.8,0.4-1.1
	c0.3-0.3,0.6-0.5,1-0.5c0.4,0,0.8,0.1,1.1,0.4C243.6,83.2,243.7,83.5,243.7,83.9z"/>
<path class="st1" d="M253.2,99.5c-0.5,0.2-1,0.4-1.4,0.5c-0.5,0.1-1,0.2-1.7,0.2c-1,0-1.6-0.2-2-0.7c-0.4-0.5-0.6-1.2-0.6-2.1v-7.8
	h-2.1v-1.1h2.1v-3.6h2.1v3.6h3.3v1.1h-3.3V96c0,0.5,0,0.9,0.1,1.2c0,0.3,0.1,0.6,0.3,0.8c0.1,0.2,0.3,0.4,0.6,0.5
	c0.2,0.1,0.6,0.2,1,0.2c0.2,0,0.5,0,0.9-0.1c0.4,0,0.6-0.1,0.8-0.1v1L253.2,99.5L253.2,99.5z"/>
<path class="st1" d="M253.9,103.7c0-0.4,0.1-0.7,0.3-0.9c0.2-0.2,0.5-0.4,0.8-0.4c0.2,0,0.5,0,0.6,0.1c0.2,0.1,0.3,0.2,0.5,0.4
	c0.1,0.1,0.2,0.3,0.4,0.5c0.1,0.2,0.2,0.4,0.3,0.5c0.4-0.2,0.8-0.8,1.4-1.6c0.5-0.9,0.9-1.7,1.2-2.3c-0.7-1.8-1.4-3.5-2-4.9
	c-0.6-1.4-1.2-2.9-1.9-4.5c-0.1-0.4-0.4-0.6-0.7-0.8c-0.3-0.2-0.7-0.3-1-0.4v-0.8h5.2v0.8c-0.2,0-0.5,0.1-0.8,0.1
	c-0.3,0.1-0.5,0.2-0.5,0.3c0,0,0,0.1,0.1,0.2c0,0.1,0.1,0.2,0.1,0.3c0.3,0.8,0.7,1.9,1.3,3.3c0.6,1.4,1.1,2.6,1.4,3.4
	c0.3-0.8,0.7-1.7,1.1-2.6c0.4-0.9,0.8-1.9,1.3-3.1c0.1-0.1,0.1-0.3,0.2-0.6c0.1-0.3,0.2-0.5,0.2-0.7s-0.2-0.4-0.5-0.6
	c-0.4-0.2-0.7-0.3-1-0.3v-0.7h4.2v0.7c-0.2,0-0.5,0.2-0.9,0.4c-0.4,0.2-0.7,0.6-0.8,1c-0.9,2.1-1.7,4.1-2.5,5.8
	c-0.7,1.8-1.3,3-1.6,3.9c-0.5,1.1-0.9,1.9-1.3,2.5c-0.4,0.6-0.8,1.1-1.1,1.4c-0.4,0.3-0.7,0.5-1,0.7c-0.3,0.1-0.6,0.2-0.9,0.2
	c-0.6,0-1.1-0.1-1.4-0.4C254,104.4,253.9,104.1,253.9,103.7z"/>
<path class="st1" d="M152.8,120.4c-1,0-1.9-0.2-2.8-0.6c-0.9-0.4-1.7-0.9-2.4-1.7c-0.7-0.7-1.2-1.6-1.6-2.7c-0.4-1-0.6-2.2-0.6-3.5
	c0-1.3,0.2-2.5,0.6-3.6c0.4-1.1,1-2,1.7-2.8c0.7-0.8,1.5-1.4,2.5-1.8s2-0.6,3.1-0.6c0.8,0,1.5,0.1,2.2,0.3c0.7,0.2,1.3,0.5,1.9,0.8
	l0.5-0.8h0.9l0.1,5.9H158c-0.1-0.6-0.3-1.2-0.6-1.9c-0.2-0.7-0.5-1.2-0.9-1.7c-0.4-0.5-0.8-0.9-1.3-1.2c-0.5-0.3-1.1-0.4-1.7-0.4
	c-0.7,0-1.4,0.2-2.1,0.5c-0.6,0.3-1.2,0.8-1.7,1.5c-0.4,0.6-0.8,1.4-1.1,2.4c-0.3,1-0.4,2-0.4,3.2c0,1.1,0.1,2,0.4,2.9
	c0.3,0.9,0.6,1.6,1.1,2.3c0.5,0.7,1.1,1.2,1.7,1.5c0.7,0.4,1.4,0.6,2.3,0.6c0.6,0,1.2-0.1,1.7-0.3s1-0.5,1.4-0.8
	c0.4-0.3,0.7-0.7,1-1.2c0.3-0.4,0.5-0.9,0.7-1.4l0.9,0.4c-0.7,1.6-1.5,2.8-2.6,3.5C155.7,120.1,154.4,120.4,152.8,120.4z"/>
<path class="st1" d="M170.8,114.2c0,0.8-0.1,1.6-0.4,2.4c-0.3,0.8-0.6,1.4-1.1,2c-0.5,0.6-1.2,1.1-1.9,1.4c-0.7,0.3-1.5,0.5-2.4,0.5
	c-0.7,0-1.4-0.1-2.1-0.4c-0.7-0.3-1.2-0.7-1.8-1.2c-0.5-0.5-0.9-1.1-1.2-1.9c-0.3-0.7-0.4-1.6-0.4-2.5c0-1.8,0.5-3.2,1.6-4.4
	c1-1.1,2.4-1.7,4.1-1.7c1.6,0,2.9,0.5,4,1.6C170.2,111,170.8,112.4,170.8,114.2z M168.4,114.2c0-0.6-0.1-1.2-0.2-1.8
	c-0.1-0.6-0.3-1.2-0.5-1.6c-0.2-0.5-0.6-0.9-1-1.2c-0.4-0.3-0.9-0.4-1.5-0.4c-0.6,0-1.1,0.1-1.5,0.4c-0.4,0.3-0.8,0.7-1,1.2
	s-0.4,1-0.5,1.6c-0.1,0.6-0.2,1.2-0.2,1.7c0,0.7,0.1,1.4,0.2,2.1c0.1,0.6,0.3,1.2,0.6,1.7c0.3,0.5,0.6,0.9,1,1.2
	c0.4,0.3,0.9,0.4,1.5,0.4c1,0,1.7-0.5,2.3-1.4C168.1,117.2,168.4,115.9,168.4,114.2z"/>
<path class="st1" d="M176.4,120h-5.6v-0.8c0.2,0,0.4,0,0.6-0.1c0.2,0,0.4,0,0.5-0.1c0.2-0.1,0.4-0.2,0.5-0.4
	c0.1-0.2,0.2-0.4,0.2-0.7v-13.2c0-0.3-0.1-0.5-0.2-0.8c-0.1-0.2-0.3-0.4-0.5-0.6c-0.1-0.1-0.4-0.2-0.8-0.3c-0.4-0.1-0.7-0.1-0.9-0.1
	v-0.8l4.3-0.2l0.2,0.2v15.7c0,0.3,0,0.5,0.1,0.7c0.1,0.2,0.3,0.3,0.5,0.4c0.2,0.1,0.3,0.1,0.5,0.2c0.2,0,0.4,0.1,0.6,0.1L176.4,120
	L176.4,120z"/>
<path class="st1" d="M182.7,120h-5.6v-0.8c0.2,0,0.4,0,0.6-0.1c0.2,0,0.4,0,0.5-0.1c0.2-0.1,0.4-0.2,0.5-0.4
	c0.1-0.2,0.2-0.4,0.2-0.7v-13.2c0-0.3-0.1-0.5-0.2-0.8c-0.1-0.2-0.3-0.4-0.5-0.6c-0.1-0.1-0.4-0.2-0.8-0.3c-0.4-0.1-0.7-0.1-0.9-0.1
	v-0.8l4.3-0.2l0.2,0.2v15.7c0,0.3,0,0.5,0.1,0.7c0.1,0.2,0.3,0.3,0.5,0.4c0.2,0.1,0.3,0.1,0.5,0.2c0.2,0,0.4,0.1,0.6,0.1L182.7,120
	L182.7,120z"/>
<path class="st1" d="M193.8,117.3c-0.5,0.9-1.1,1.6-1.9,2.2c-0.8,0.5-1.7,0.8-2.8,0.8c-0.9,0-1.7-0.2-2.4-0.5
	c-0.7-0.3-1.3-0.8-1.7-1.3c-0.4-0.6-0.8-1.2-1-1.9c-0.2-0.7-0.3-1.5-0.3-2.4c0-0.7,0.1-1.5,0.4-2.2c0.2-0.7,0.6-1.4,1-1.9
	c0.4-0.5,1-1,1.6-1.3c0.7-0.3,1.4-0.5,2.2-0.5c0.8,0,1.6,0.1,2.2,0.4c0.6,0.3,1.1,0.6,1.5,1.1c0.4,0.4,0.6,0.9,0.8,1.5
	c0.2,0.6,0.3,1.2,0.3,1.9v0.8h-7.6c0,0.8,0.1,1.4,0.2,2c0.1,0.6,0.4,1.2,0.7,1.6c0.3,0.5,0.7,0.8,1.2,1.1s1.1,0.4,1.7,0.4
	c0.7,0,1.3-0.2,1.8-0.5c0.5-0.3,1-0.9,1.4-1.7L193.8,117.3z M191.2,113c0-0.4,0-0.9-0.1-1.4c-0.1-0.5-0.2-0.9-0.4-1.2
	c-0.2-0.4-0.4-0.6-0.7-0.9c-0.3-0.2-0.7-0.3-1.2-0.3c-0.8,0-1.5,0.3-2,1c-0.5,0.7-0.8,1.6-0.9,2.8L191.2,113L191.2,113z"/>
<path class="st1" d="M204.4,118.9c0.3,0.3,0.6,0.6,0.7,1c0.2,0.4,0.3,0.8,0.3,1.4c0,0.5-0.1,1.1-0.4,1.5c-0.2,0.5-0.6,0.9-1.1,1.3
	s-1.1,0.6-1.9,0.8c-0.7,0.2-1.6,0.3-2.7,0.3c-1.7,0-3-0.3-3.9-0.8c-0.9-0.5-1.3-1.2-1.3-2.2c0-0.8,0.3-1.4,0.9-1.9
	c0.6-0.5,1.4-0.7,2.4-0.7v-0.2c-0.2-0.1-0.5-0.2-0.7-0.3c-0.2-0.1-0.5-0.2-0.6-0.4c-0.2-0.2-0.4-0.4-0.5-0.6
	c-0.1-0.2-0.2-0.5-0.2-0.8c0-0.4,0.1-0.8,0.4-1.1c0.3-0.3,0.7-0.6,1.3-0.9v-0.2c-0.7-0.3-1.3-0.8-1.7-1.3c-0.4-0.5-0.6-1.2-0.6-1.9
	c0-1.1,0.4-2,1.2-2.7c0.8-0.7,1.8-1,3.1-1c0.3,0,0.7,0,1,0.1c0.3,0.1,0.7,0.2,1,0.3h4v1.1h-2.7v0.1c0.3,0.3,0.5,0.7,0.6,1.1
	c0.1,0.4,0.2,0.8,0.2,1.2c0,1-0.4,1.9-1.2,2.5c-0.8,0.7-1.8,1-2.8,1H198c-0.2,0.1-0.4,0.2-0.6,0.3c-0.2,0.2-0.3,0.4-0.3,0.7
	c0,0.3,0.1,0.5,0.2,0.7c0.2,0.2,0.4,0.3,0.6,0.3c0.2,0.1,0.5,0.1,0.8,0.1s0.6,0,0.9,0c0.3,0,0.8,0,1.4,0.1c0.6,0,1,0.1,1.3,0.1
	c0.4,0,0.7,0.1,1.1,0.3C203.8,118.4,204.1,118.6,204.4,118.9z M203.5,121.7c0-0.4-0.1-0.8-0.3-1.1c-0.2-0.3-0.5-0.5-0.9-0.6
	c-0.2,0-0.7-0.1-1.3-0.1c-0.7,0-1.5-0.1-2.3-0.1c-0.8,0.2-1.4,0.4-1.8,0.8c-0.4,0.4-0.5,0.9-0.5,1.5c0,0.3,0.1,0.5,0.2,0.8
	c0.1,0.2,0.3,0.5,0.6,0.7c0.3,0.2,0.6,0.4,1.1,0.5s1,0.2,1.7,0.2c1.1,0,2-0.2,2.7-0.7C203.2,123.2,203.5,122.5,203.5,121.7z
	 M201.3,112.1c0-0.9-0.2-1.6-0.6-2.2c-0.4-0.5-0.9-0.8-1.6-0.8c-0.4,0-0.7,0.1-0.9,0.2c-0.3,0.2-0.5,0.4-0.6,0.6
	c-0.2,0.3-0.3,0.6-0.3,0.9c-0.1,0.4-0.1,0.7-0.1,1.1c0,0.9,0.2,1.6,0.6,2.1s0.9,0.8,1.5,0.8c0.7,0,1.2-0.3,1.5-0.8
	C201.1,113.6,201.3,112.9,201.3,112.1z"/>
<path class="st1" d="M216.4,117.3c-0.5,0.9-1.1,1.6-1.9,2.2c-0.8,0.5-1.7,0.8-2.8,0.8c-0.9,0-1.7-0.2-2.4-0.5
	c-0.7-0.3-1.3-0.8-1.7-1.3c-0.4-0.6-0.8-1.2-1-1.9c-0.2-0.7-0.3-1.5-0.3-2.4c0-0.7,0.1-1.5,0.4-2.2c0.2-0.7,0.6-1.4,1-1.9
	c0.4-0.5,1-1,1.6-1.3c0.7-0.3,1.4-0.5,2.2-0.5s1.6,0.1,2.2,0.4c0.6,0.3,1.1,0.6,1.5,1.1c0.4,0.4,0.6,0.9,0.8,1.5
	c0.2,0.6,0.3,1.2,0.3,1.9v0.8h-7.6c0,0.8,0.1,1.4,0.2,2c0.1,0.6,0.4,1.2,0.7,1.6c0.3,0.5,0.7,0.8,1.2,1.1s1.1,0.4,1.7,0.4
	c0.7,0,1.3-0.2,1.8-0.5c0.5-0.3,1-0.9,1.4-1.7L216.4,117.3z M213.8,113c0-0.4,0-0.9-0.1-1.4c-0.1-0.5-0.2-0.9-0.4-1.2
	c-0.2-0.4-0.4-0.6-0.7-0.9c-0.3-0.2-0.7-0.3-1.2-0.3c-0.8,0-1.5,0.3-2,1c-0.5,0.7-0.8,1.6-0.9,2.8L213.8,113L213.8,113z"/>
</svg>
