<?xml version="1.0" encoding="utf-8"?>
<!-- Generator: Adobe Illustrator 19.2.1, SVG Export Plug-In . SVG Version: 6.00 Build 0)  -->
<svg version="1.1" id="Layer_1" xmlns="http://www.w3.org/2000/svg" xmlns:xlink="http://www.w3.org/1999/xlink" x="0px" y="0px"
	 viewBox="0 0 167 211.7" style="enable-background:new 0 0 167 211.7;" xml:space="preserve">
<style type="text/css">
	.st0{fill:#FFFFFF;}
	.st1{fill:#99CC66;}
</style>
<title>kcc-vertical-logo</title>
<path class="st0" d="M128.7,2.4c1.4,0.8,2.7,2,3.6,3.4l0,0l0,0c0-0.2,0.1-0.3,0.1-0.4l0.2-0.7c0.9-2,2.9-3.3,5.1-3.2h0.1l-2-1.3
	c-1.3,0.2-2.5,0.7-3.5,1.6c-0.2,0.2-0.3,0.3-0.5,0.5c-0.7-0.6-1.4-1.1-2.2-1.5c-1.4-0.7-3-0.9-4.6-0.6l2.5,1.8
	C127.9,2,128.3,2.2,128.7,2.4z"/>
<path class="st0" d="M112,18.7c2.9,1.6,5.3,3.9,7.1,6.7l0,0l0.1,0.1c0.1-0.3,0.1-0.6,0.2-0.9l0.4-1.3c1.6-3.7,5.3-6.3,10.2-6.3h0.2
	l-4.1-2.8c-2.7,0.6-5,1.3-7,3.2c-0.3,0.3-0.7,0.7-1,1c-1.3-1.2-2.8-2.3-4.4-3.1c-2.9-1.4-6.1-1.8-9.2-1.3l5,3.6
	C110.3,18,111.2,18.3,112,18.7z"/>
<path class="st0" d="M83.4,46.7c5.1,2.6,9.3,6.8,13.4,12.7l0,0l0.1,0.2c0.1-0.6,0.2-1.1,0.4-1.7l0.9-2.4c3-7,10.1-11.9,19.3-11.9
	h0.3l-7.7-5.2c-5.1,1.1-9.5,2.5-13.3,6c-0.6,0.6-1.3,1.3-1.8,2c-2.5-2.3-5.4-4.3-8.4-5.8c-5.9-3-11.6-3.1-17.4-2.4l9.4,6.8
	C80.3,45.3,81.9,45.9,83.4,46.7z M44.5,63.6h-9.8L8,88V63.6H0.2V118H8V91.1L34.2,118H45L16.8,89.1L44.5,63.6z M43.2,90.8
	c0-11.6,9-20.8,22-20.8c3.5,0,6.9,0.6,10.1,1.8l-11.2-9.1c-8.3,0.2-15.1,2.9-20.7,8.2c-11,10.5-11.4,27.9-0.9,38.9
	c1.6,1.6,3.3,3.1,5.2,4.3c5,3.3,10.9,5,16.9,4.9c6.9-0.1,13.6-1.8,19.6-5.1v-8.8c-6.7,4.3-13.2,6.4-19.5,6.4
	C52.2,111.5,43.2,102.5,43.2,90.8z M92.7,90.8c0-1.4,0.1-2.7,0.4-4.1l-6.2-7.3c-1.6,3.5-2.5,7.3-2.5,11.2
	c-0.1,9.5,4.8,18.4,12.8,23.5c5,3.2,10.9,4.9,16.9,4.9c6.9-0.1,13.6-1.8,19.6-5.1v-8.8c-6.7,4.3-13.2,6.4-19.5,6.4
	C101.7,111.5,92.7,102.5,92.7,90.8z M106.6,63.7l8.1,6.4c6,0,12,1.9,18.6,5.5v-8.4c-5.8-2.8-12.1-4.3-18.6-4.4
	C112,62.8,109.3,63.1,106.6,63.7z"/>
<path class="st1" d="M22.4,149.1H16c-1.3-2-2.6-3.9-4.1-5.7c-1.5-1.9-3.1-3.7-4.7-5.5H6.8v7.9c0,0.3,0.1,0.7,0.2,0.9
	c0.2,0.3,0.4,0.5,0.7,0.7c0.3,0.1,0.6,0.2,0.9,0.3c0.4,0.1,0.8,0.2,1.2,0.2v1.2H0.3v-1.2l1.1-0.1c0.3,0,0.7-0.1,1-0.2
	c0.3-0.1,0.6-0.3,0.7-0.6c0.2-0.3,0.2-0.7,0.2-1v-16.4c0-0.3-0.1-0.7-0.2-0.9c-0.2-0.3-0.4-0.5-0.7-0.6c-0.3-0.2-0.7-0.3-1-0.4
	c-0.3-0.1-0.7-0.2-1.1-0.2v-1.2h9.5v1.2c-0.4,0-0.8,0.1-1.1,0.1c-0.3,0.1-0.7,0.1-1,0.2c-0.3,0.1-0.6,0.3-0.7,0.6
	c-0.1,0.3-0.2,0.7-0.2,1v7.9h0.3c1-0.8,1.9-1.7,2.8-2.6c0.9-0.9,1.8-1.8,2.5-2.6c0.7-0.7,1.3-1.5,1.9-2.3c0.3-0.4,0.5-1,0.6-1.5
	c0-0.2-0.1-0.3-0.3-0.4c-0.2-0.1-0.4-0.2-0.7-0.2c-0.3-0.1-0.5-0.1-0.8-0.1h-0.6v-1.2h8.5v1.2h-0.2h-0.4c-0.2,0-0.3,0-0.5,0.1
	l-0.6,0.1c-0.4,0.1-0.8,0.2-1.2,0.4c-0.4,0.2-0.7,0.4-1,0.7l-3.4,3.9c-1.2,1.3-2.4,2.6-3.6,3.7c1.6,1.8,3,3.4,4,4.8l3.4,4.2
	c0.4,0.5,0.9,1,1.4,1.4c0.4,0.3,0.8,0.5,1.2,0.8c0.3,0.2,0.7,0.3,1,0.3c0.3,0.1,0.7,0.1,1,0.1v1.2L22.4,149.1z"/>
<path class="st1" d="M40.9,149.1h-7.8V148l0.8-0.1c0.2,0,0.5-0.1,0.7-0.1c0.3-0.1,0.5-0.3,0.7-0.5c0.2-0.3,0.2-0.6,0.2-0.9v-8.1
	c0.1-0.9-0.2-1.9-0.8-2.6c-0.5-0.6-1.2-0.9-1.9-0.9c-0.5,0-1,0.1-1.5,0.3c-0.4,0.2-0.9,0.4-1.2,0.6c-0.3,0.2-0.6,0.5-0.8,0.8
	c-0.2,0.2-0.3,0.4-0.5,0.7v9.1c0,0.3,0.1,0.6,0.2,0.9c0.2,0.2,0.4,0.4,0.7,0.6c0.2,0.1,0.5,0.2,0.7,0.2c0.3,0.1,0.5,0.1,0.8,0.1v1.1
	h-7.8V148l0.8-0.1c0.2,0,0.5-0.1,0.7-0.1c0.3-0.1,0.5-0.3,0.7-0.5c0.2-0.3,0.2-0.6,0.2-0.9v-9.8c0-0.3-0.1-0.7-0.2-1
	c-0.2-0.3-0.4-0.6-0.6-0.8c-0.2-0.1-0.5-0.2-0.7-0.3c-0.3-0.1-0.6-0.1-0.9-0.1v-1.1l5.3-0.3l0.2,0.2v2.2h0.1c0.3-0.3,0.6-0.6,1-0.9
	c0.3-0.3,0.7-0.6,1.1-0.9c0.4-0.3,0.9-0.5,1.4-0.6c0.6-0.2,1.2-0.3,1.8-0.3c1.3-0.1,2.5,0.4,3.4,1.4c0.8,1.1,1.1,2.4,1,3.8v8.2
	c0,0.3,0.1,0.6,0.2,0.9c0.2,0.3,0.4,0.4,0.7,0.5c0.2,0.1,0.4,0.2,0.7,0.2c0.3,0.1,0.5,0.1,0.8,0.1V149.1z"/>
<path class="st1" d="M57,141c0,1.1-0.2,2.2-0.5,3.3c-0.3,1-0.8,1.9-1.5,2.7c-0.7,0.8-1.6,1.5-2.6,1.9c-1,0.4-2.2,0.6-3.3,0.6
	c-1,0-2-0.2-2.9-0.6c-0.9-0.4-1.7-0.9-2.4-1.7c-0.7-0.8-1.3-1.6-1.7-2.6c-0.4-1.1-0.6-2.3-0.6-3.5c-0.1-2.2,0.7-4.4,2.2-6.1
	c1.5-1.6,3.5-2.4,5.7-2.4c2.1-0.1,4.1,0.7,5.5,2.2C56.3,136.7,57.1,138.8,57,141z M53.7,141c0-0.9-0.1-1.7-0.2-2.5
	c-0.1-0.8-0.4-1.6-0.7-2.3c-0.3-0.6-0.8-1.2-1.4-1.6c-0.6-0.4-1.3-0.6-2-0.6c-0.8,0-1.5,0.2-2.1,0.6c-0.6,0.4-1.1,1-1.4,1.7
	c-0.4,0.7-0.6,1.5-0.7,2.2c-0.1,0.8-0.2,1.6-0.2,2.4c0,1,0.1,1.9,0.2,2.9c0.1,0.8,0.4,1.6,0.8,2.3c0.3,0.6,0.8,1.2,1.4,1.6
	c0.6,0.4,1.3,0.6,2.1,0.6c1.3,0,2.6-0.7,3.2-1.9C53.4,144.7,53.8,142.9,53.7,141L53.7,141z"/>
<path class="st1" d="M80.9,134.2c-0.5,0.1-1,0.3-1.4,0.6c-0.5,0.4-0.9,0.9-1.1,1.5l-1.5,4.5l-1.6,4.8c-0.2,0.6-0.4,1.2-0.6,1.8
	s-0.4,1.3-0.6,1.9h-1.3l-4.3-11.7l-4.3,11.7h-1.3c-0.8-2.4-1.6-4.7-2.3-7.1s-1.4-4.4-2-6.1c-0.2-0.5-0.5-0.9-1-1.2
	c-0.4-0.3-0.9-0.4-1.4-0.5v-1.1h7.1v1.1c-0.4,0-0.8,0.1-1.2,0.2c-0.3,0-0.6,0.2-0.6,0.5c0,0.1,0,0.2,0.1,0.3c0,0.1,0.1,0.3,0.1,0.4
	c0.3,1.1,0.7,2.4,1.2,3.8l1.7,5.4l4-11.4H70l4.1,11.2c0.5-1.4,0.9-2.8,1.4-4.2s0.9-2.6,1.2-3.8c0.1-0.3,0.2-0.5,0.2-0.8
	c0.1-0.2,0.1-0.4,0.1-0.7c0-0.2-0.1-0.4-0.3-0.5c-0.2-0.2-0.4-0.3-0.6-0.4c-0.2-0.1-0.5-0.2-0.7-0.2c-0.2,0-0.4-0.1-0.6-0.1v-1h6
	L80.9,134.2L80.9,134.2z"/>
<path class="st1" d="M91.3,141.3c0.4,0.4,0.8,0.8,1,1.3c0.2,0.6,0.4,1.2,0.3,1.8c0,1.4-0.6,2.7-1.7,3.6c-1.2,1-2.7,1.5-4.2,1.4
	c-0.9,0-1.7-0.2-2.5-0.5c-0.6-0.2-1.2-0.5-1.7-0.9l-0.3,1h-1.2l-0.2-5.5H82c0.1,0.5,0.3,1,0.5,1.5c0.3,0.5,0.6,1,1,1.5
	c0.4,0.5,0.9,0.9,1.5,1.2c0.6,0.3,1.3,0.5,2,0.5c0.8,0.1,1.7-0.2,2.4-0.7c0.6-0.5,0.9-1.2,0.8-2c0-0.4-0.1-0.8-0.3-1.2
	c-0.2-0.3-0.5-0.6-0.8-0.9c-0.4-0.3-0.8-0.5-1.3-0.7c-0.5-0.2-1.1-0.4-1.7-0.6c-0.6-0.2-1.1-0.4-1.7-0.6c-0.6-0.2-1.1-0.5-1.6-0.9
	c-0.5-0.4-0.9-0.8-1.2-1.4c-0.3-0.6-0.5-1.3-0.4-1.9c0-1.3,0.5-2.5,1.4-3.3c1.1-0.9,2.4-1.4,3.9-1.4c0.6,0,1.3,0.1,1.9,0.2
	c0.5,0.1,1.1,0.3,1.6,0.6l0.4-0.9h1.2l0.2,5.1h-1.1c-0.2-1.1-0.7-2-1.4-2.8c-0.7-0.7-1.7-1.1-2.7-1.1c-0.7,0-1.5,0.2-2.1,0.7
	c-0.5,0.4-0.8,1-0.8,1.6c0,0.4,0.1,0.8,0.2,1.2c0.2,0.3,0.4,0.6,0.8,0.8c0.4,0.2,0.8,0.4,1.2,0.6c0.5,0.2,1.1,0.4,1.8,0.6
	c0.7,0.2,1.4,0.5,2,0.8C90.4,140.6,90.9,140.9,91.3,141.3z"/>
<path class="st1" d="M101.9,149.1h-7.8V148l0.8-0.1c0.2,0,0.5-0.1,0.7-0.1c0.3-0.1,0.5-0.3,0.7-0.5c0.2-0.3,0.2-0.6,0.2-0.9V128
	c0-0.4-0.1-0.7-0.2-1.1c-0.1-0.3-0.4-0.6-0.7-0.8c-0.3-0.2-0.7-0.3-1.1-0.3c-0.4-0.1-0.8-0.2-1.2-0.2v-1.1l6-0.3l0.2,0.2v21.7
	c0,0.3,0.1,0.6,0.2,0.9c0.2,0.3,0.4,0.4,0.7,0.6c0.2,0.1,0.5,0.2,0.7,0.2c0.3,0.1,0.5,0.1,0.8,0.1V149.1L101.9,149.1z"/>
<path class="st1" d="M117.2,145.3c-0.6,1.2-1.5,2.2-2.7,3c-1.1,0.8-2.5,1.2-3.8,1.1c-1.2,0-2.3-0.2-3.3-0.7c-0.9-0.4-1.7-1-2.4-1.8
	c-0.6-0.8-1.1-1.7-1.4-2.7c-0.3-1.1-0.5-2.2-0.5-3.3c0-1,0.2-2,0.5-3c0.3-1,0.8-1.9,1.4-2.7c0.6-0.8,1.4-1.4,2.3-1.8
	c0.9-0.5,2-0.7,3.1-0.7c1,0,2,0.2,3,0.5c0.8,0.3,1.5,0.8,2,1.5c0.5,0.6,0.9,1.3,1.1,2.1c0.2,0.9,0.4,1.7,0.4,2.6v1.1h-10.5
	c0,1,0.1,1.9,0.3,2.8c0.2,0.8,0.5,1.6,0.9,2.2c0.4,0.6,1,1.1,1.6,1.5c0.7,0.4,1.6,0.6,2.4,0.5c0.9,0,1.7-0.2,2.5-0.7
	c0.9-0.6,1.5-1.5,2-2.4L117.2,145.3z M113.7,139.3c0-0.6-0.1-1.3-0.2-1.9c-0.1-0.6-0.2-1.2-0.5-1.7c-0.2-0.5-0.6-0.9-1-1.2
	c-0.5-0.3-1.1-0.5-1.7-0.5c-1.1,0-2.2,0.5-2.8,1.4c-0.8,1.1-1.2,2.5-1.2,3.9L113.7,139.3L113.7,139.3z"/>
<path class="st1" d="M117.2,154.2c0-0.5,0.1-0.9,0.4-1.3c0.3-0.3,0.7-0.5,1.1-0.5c0.3,0,0.6,0.1,0.9,0.2c0.2,0.1,0.5,0.3,0.7,0.5
	c0.2,0.2,0.4,0.4,0.5,0.7c0.2,0.3,0.3,0.5,0.4,0.7c0.8-0.6,1.5-1.4,1.9-2.3c0.6-1,1.2-2.1,1.6-3.2c-1-2.5-1.9-4.8-2.8-6.8
	c-0.8-2-1.7-4.1-2.6-6.2c-0.2-0.5-0.5-0.9-1-1.1c-0.4-0.3-0.9-0.4-1.4-0.5v-1.1h7.2v1.1c-0.4,0-0.8,0.1-1.2,0.2
	c-0.3,0-0.5,0.2-0.7,0.4c0,0.1,0,0.2,0.1,0.3c0,0.1,0.1,0.3,0.2,0.5c0.4,1.1,1,2.6,1.9,4.6c0.8,2,1.5,3.6,1.9,4.8l1.5-3.5
	c0.5-1.2,1.1-2.7,1.7-4.3l0.3-0.8c0.1-0.3,0.2-0.6,0.2-0.9c-0.1-0.4-0.4-0.7-0.7-0.8c-0.4-0.2-0.9-0.4-1.4-0.4v-1h5.9v1
	c-0.5,0.1-0.9,0.3-1.3,0.6c-0.5,0.3-0.9,0.8-1.2,1.3c-1.3,3-2.4,5.6-3.4,8.1c-1,2.4-1.7,4.2-2.3,5.4c-0.5,1.2-1.1,2.4-1.8,3.5
	c-0.4,0.7-1,1.4-1.6,2c-0.4,0.4-0.8,0.7-1.3,0.9c-0.4,0.2-0.8,0.2-1.2,0.2c-0.7,0-1.4-0.2-2-0.6
	C117.5,155.3,117.2,154.8,117.2,154.2z"/>
<path class="st1" d="M10.3,177.4c-1.3,0-2.7-0.3-3.9-0.8c-1.2-0.5-2.4-1.3-3.3-2.3c-1-1.1-1.8-2.3-2.3-3.7C0.3,169,0,167.3,0,165.6
	c0-1.7,0.3-3.4,0.8-5c0.5-1.4,1.3-2.7,2.3-3.8c1-1.1,2.1-1.9,3.4-2.5c1.3-0.6,2.8-0.9,4.2-0.9c1,0,2,0.1,3,0.4
	c0.9,0.3,1.8,0.7,2.6,1.2l0.7-1.1h1.3l0.2,8.1h-1.3c-0.2-0.9-0.5-1.7-0.8-2.6c-0.3-0.8-0.7-1.6-1.2-2.4c-0.5-0.7-1.1-1.3-1.8-1.7
	c-0.7-0.4-1.6-0.6-2.4-0.6c-1,0-2,0.2-2.9,0.7c-0.9,0.5-1.7,1.2-2.3,2c-0.7,1-1.2,2.1-1.5,3.3c-0.4,1.5-0.5,3-0.5,4.5
	c0,1.4,0.2,2.7,0.5,4c0.4,1.2,0.9,2.3,1.6,3.2c0.6,0.9,1.5,1.6,2.4,2.1c1,0.5,2,0.8,3.1,0.8c0.8,0,1.6-0.1,2.4-0.4
	c0.7-0.3,1.3-0.6,1.9-1.1c0.5-0.5,1-1,1.4-1.6c0.4-0.6,0.8-1.3,1-2l1.2,0.6c-0.7,2-2,3.6-3.6,4.8C14.2,176.9,12.3,177.4,10.3,177.4z
	"/>
<path class="st1" d="M35.8,168.7c0,1.1-0.2,2.2-0.5,3.3c-0.3,1-0.8,1.9-1.5,2.7c-0.7,0.8-1.6,1.5-2.6,1.9c-1,0.4-2.2,0.6-3.3,0.6
	c-1,0-2-0.2-2.9-0.6c-0.9-0.4-1.7-0.9-2.4-1.7c-0.7-0.8-1.3-1.6-1.7-2.6c-0.4-1.1-0.6-2.3-0.6-3.5c-0.1-2.2,0.7-4.4,2.2-6.1
	c1.5-1.6,3.5-2.4,5.7-2.4c2.1-0.1,4.1,0.7,5.5,2.2C35.1,164.4,35.9,166.6,35.8,168.7z M32.5,168.7c0-0.9-0.1-1.7-0.2-2.5
	c-0.1-0.8-0.4-1.6-0.7-2.3c-0.3-0.6-0.8-1.2-1.4-1.6c-0.6-0.4-1.3-0.6-2-0.6c-0.8,0-1.5,0.2-2.1,0.6c-0.6,0.4-1.1,1-1.4,1.7
	c-0.4,0.7-0.6,1.5-0.7,2.2c-0.1,0.8-0.2,1.6-0.2,2.4c0,1,0.1,1.9,0.2,2.9c0.1,0.8,0.4,1.6,0.8,2.3c0.3,0.6,0.8,1.2,1.4,1.6
	c0.6,0.4,1.3,0.6,2.1,0.6c1.3,0,2.6-0.7,3.2-1.9C32.2,172.5,32.6,170.6,32.5,168.7L32.5,168.7z"/>
<path class="st1" d="M63.9,176.8h-7.8v-1.1l0.8-0.1c0.2,0,0.5-0.1,0.7-0.1c0.3-0.1,0.5-0.3,0.7-0.5c0.2-0.3,0.2-0.6,0.2-0.9v-8.2
	c0.1-0.9-0.2-1.8-0.8-2.6c-0.5-0.6-1.2-0.9-1.9-0.9c-0.5,0-1,0.1-1.5,0.2c-0.5,0.2-0.9,0.4-1.3,0.7c-0.3,0.2-0.6,0.5-0.8,0.8
	c-0.2,0.2-0.3,0.4-0.5,0.7v9.2c0,0.3,0.1,0.6,0.2,0.9c0.2,0.3,0.4,0.5,0.7,0.6c0.2,0.1,0.4,0.2,0.7,0.2c0.3,0.1,0.5,0.1,0.8,0.1v1.1
	h-7.6v-1.1l0.7-0.1c0.2,0,0.4-0.1,0.6-0.1c0.3-0.1,0.5-0.3,0.7-0.5c0.2-0.3,0.2-0.6,0.2-0.9V166c0.1-0.9-0.2-1.8-0.8-2.6
	c-0.5-0.6-1.2-0.9-1.9-0.9c-0.5,0-1,0.1-1.5,0.2c-0.5,0.2-0.9,0.4-1.3,0.7c-0.3,0.2-0.6,0.5-0.8,0.8l-0.5,0.7v9.1
	c0,0.3,0.1,0.6,0.2,0.9c0.2,0.3,0.4,0.4,0.7,0.6c0.2,0.1,0.5,0.2,0.7,0.2c0.3,0.1,0.5,0.1,0.8,0.1v1.1h-7.8v-1.1l0.8-0.1
	c0.2,0,0.5-0.1,0.7-0.1c0.3-0.1,0.5-0.3,0.7-0.5c0.2-0.3,0.2-0.6,0.2-0.9v-9.8c0-0.3-0.1-0.6-0.2-0.9c-0.2-0.3-0.4-0.5-0.7-0.7
	c-0.2-0.1-0.5-0.2-0.8-0.3c-0.3-0.1-0.6-0.1-0.9-0.1v-1.1l5.3-0.3l0.2,0.2v2.3h0.1l1-0.9c0.3-0.3,0.7-0.6,1.1-0.9
	c0.4-0.3,0.9-0.5,1.4-0.6c0.6-0.2,1.2-0.3,1.8-0.3c0.9,0,1.9,0.3,2.6,0.8c0.7,0.5,1.3,1.2,1.6,2l1-1c0.4-0.3,0.7-0.6,1.2-0.9
	c0.4-0.3,0.9-0.5,1.4-0.7c0.6-0.2,1.2-0.3,1.8-0.3c1.2-0.1,2.4,0.4,3.2,1.3c0.9,1.2,1.3,2.6,1.2,4.1v8.1c0,0.3,0.1,0.6,0.2,0.9
	c0.1,0.3,0.4,0.5,0.7,0.6c0.2,0.1,0.5,0.2,0.7,0.2c0.3,0.1,0.5,0.1,0.8,0.1V176.8L63.9,176.8z"/>
<path class="st1" d="M92.2,176.8h-7.8v-1.1l0.8-0.1c0.2,0,0.5-0.1,0.7-0.1c0.3-0.1,0.5-0.3,0.7-0.5c0.2-0.3,0.2-0.6,0.2-0.9v-8.2
	c0.1-0.9-0.2-1.8-0.8-2.6c-0.5-0.6-1.2-0.9-1.9-0.9c-0.5,0-1,0.1-1.5,0.2c-0.5,0.2-0.9,0.4-1.3,0.7c-0.3,0.2-0.6,0.5-0.8,0.8
	c-0.2,0.2-0.3,0.4-0.5,0.7v9.2c0,0.3,0.1,0.6,0.2,0.9c0.2,0.3,0.4,0.5,0.7,0.6c0.2,0.1,0.4,0.2,0.7,0.2c0.3,0.1,0.5,0.1,0.8,0.1v1.1
	h-7.6v-1.1l0.7-0.1c0.2,0,0.4-0.1,0.6-0.1c0.3-0.1,0.5-0.3,0.7-0.5c0.2-0.3,0.2-0.6,0.2-0.9V166c0.1-0.9-0.2-1.8-0.8-2.6
	c-0.5-0.6-1.2-0.9-1.9-0.9c-0.5,0-1,0.1-1.5,0.2c-0.5,0.2-0.9,0.4-1.3,0.7c-0.3,0.2-0.6,0.5-0.8,0.8l-0.5,0.7v9.1
	c0,0.3,0.1,0.6,0.2,0.9c0.2,0.3,0.4,0.4,0.7,0.6c0.2,0.1,0.5,0.2,0.7,0.2c0.3,0.1,0.5,0.1,0.8,0.1v1.1h-7.8v-1.1l0.8-0.1
	c0.2,0,0.5-0.1,0.7-0.1c0.3-0.1,0.5-0.3,0.7-0.5c0.2-0.3,0.2-0.6,0.2-0.9v-9.8c0-0.3-0.1-0.6-0.2-0.9c-0.2-0.3-0.4-0.5-0.7-0.7
	c-0.2-0.1-0.5-0.2-0.8-0.3c-0.3-0.1-0.6-0.1-0.9-0.1v-1.1l5.3-0.3l0.2,0.2v2.3h0.1l1-0.9c0.3-0.3,0.7-0.6,1.1-0.9
	c0.4-0.3,0.9-0.5,1.4-0.6c0.6-0.2,1.2-0.3,1.8-0.3c0.9,0,1.9,0.3,2.6,0.8c0.7,0.5,1.3,1.2,1.6,2l1-1c0.4-0.3,0.7-0.6,1.2-0.9
	c0.4-0.3,0.9-0.5,1.4-0.7c0.6-0.2,1.2-0.3,1.8-0.3c1.2-0.1,2.4,0.4,3.2,1.3c0.9,1.2,1.3,2.6,1.2,4.1v8.1c0,0.3,0.1,0.6,0.2,0.9
	c0.1,0.3,0.4,0.5,0.7,0.6c0.2,0.1,0.5,0.2,0.7,0.2c0.3,0.1,0.5,0.1,0.8,0.1L92.2,176.8L92.2,176.8z"/>
<path class="st1" d="M110.4,176.5l-5.2,0.3l-0.2-0.2v-2h-0.1c-0.3,0.3-0.5,0.6-0.9,0.9c-0.3,0.3-0.7,0.6-1.1,0.8
	c-0.4,0.3-0.9,0.5-1.4,0.7c-0.6,0.2-1.3,0.3-1.9,0.2c-1.2,0.1-2.4-0.4-3.2-1.4c-0.8-1.2-1.2-2.6-1.1-4v-7.6c0-0.3-0.1-0.7-0.2-1
	c-0.3-0.5-0.8-0.9-1.4-1c-0.3-0.1-0.6-0.1-0.9-0.1v-1.1l5.3-0.3l0.2,0.3v11c-0.1,0.9,0.2,1.9,0.8,2.6c0.5,0.6,1.1,0.9,1.8,0.9
	c0.5,0,1.1-0.1,1.6-0.3c0.4-0.2,0.8-0.4,1.2-0.6c0.3-0.2,0.5-0.5,0.8-0.7c0.2-0.2,0.4-0.4,0.5-0.7v-9c0-0.3-0.1-0.7-0.2-0.9
	c-0.2-0.3-0.4-0.5-0.6-0.7c-0.3-0.1-0.6-0.2-0.9-0.2l-1.3-0.1v-1.1l5.8-0.3l0.3,0.2v12.6c0,0.3,0.1,0.6,0.2,0.9
	c0.2,0.3,0.4,0.5,0.6,0.7c0.2,0.1,0.4,0.2,0.7,0.2c0.3,0,0.6,0.1,0.9,0.1L110.4,176.5L110.4,176.5z"/>
<path class="st1" d="M129.2,176.8h-7.8v-1.1l0.8-0.1c0.2,0,0.5-0.1,0.7-0.1c0.3-0.1,0.5-0.3,0.7-0.5c0.2-0.3,0.2-0.6,0.2-0.9V166
	c0.1-0.9-0.2-1.9-0.8-2.6c-0.5-0.6-1.2-0.9-1.9-0.9c-0.5,0-1,0.1-1.5,0.3c-0.4,0.2-0.9,0.4-1.2,0.6c-0.3,0.2-0.6,0.5-0.8,0.8
	c-0.2,0.2-0.3,0.4-0.4,0.7v9.1c0,0.3,0.1,0.6,0.2,0.9c0.2,0.2,0.4,0.4,0.7,0.6c0.2,0.1,0.5,0.2,0.7,0.2c0.3,0.1,0.5,0.1,0.8,0.1v1.1
	h-7.8v-1.1l0.8-0.1c0.2,0,0.5-0.1,0.7-0.1c0.3-0.1,0.5-0.3,0.7-0.5c0.2-0.3,0.2-0.6,0.2-0.9v-9.8c0-0.3-0.1-0.7-0.2-1
	c-0.2-0.3-0.4-0.6-0.7-0.8c-0.2-0.1-0.5-0.2-0.7-0.3c-0.3-0.1-0.6-0.1-0.9-0.1v-1.1l5.3-0.3l0.2,0.2v2.2h0.1c0.3-0.3,0.6-0.6,1-0.9
	c0.3-0.3,0.7-0.6,1.1-0.9c0.4-0.3,0.9-0.5,1.4-0.6c0.6-0.2,1.2-0.3,1.8-0.3c1.3-0.1,2.5,0.4,3.4,1.4c0.8,1.1,1.2,2.4,1.1,3.8v8.2
	c0,0.3,0.1,0.6,0.2,0.9c0.2,0.3,0.4,0.4,0.7,0.5c0.2,0.1,0.4,0.2,0.7,0.2c0.3,0.1,0.5,0.1,0.8,0.1L129.2,176.8L129.2,176.8z"/>
<path class="st1" d="M138.2,176.8h-7.7v-1.1l0.8-0.1c0.2,0,0.5-0.1,0.7-0.1c0.3-0.1,0.5-0.3,0.7-0.5c0.2-0.3,0.2-0.6,0.2-0.9v-9.8
	c0-0.3-0.1-0.7-0.2-0.9c-0.2-0.3-0.4-0.5-0.6-0.7c-0.3-0.2-0.6-0.3-0.9-0.3c-0.3-0.1-0.7-0.1-1-0.2v-1.1l5.6-0.3l0.2,0.2v12.9
	c0,0.3,0.1,0.6,0.2,0.9c0.2,0.3,0.4,0.5,0.7,0.6c0.2,0.1,0.5,0.2,0.7,0.2c0.2,0.1,0.5,0.1,0.8,0.1L138.2,176.8L138.2,176.8z
	 M136.2,154.5c0,0.6-0.2,1.2-0.6,1.6c-0.4,0.4-0.9,0.7-1.5,0.7c-0.5,0-1.1-0.2-1.4-0.6c-0.4-0.4-0.6-0.9-0.6-1.5
	c0-0.6,0.2-1.1,0.6-1.5c0.4-0.4,0.9-0.7,1.4-0.7c0.6,0,1.1,0.2,1.5,0.6C136,153.5,136.2,154,136.2,154.5L136.2,154.5z"/>
<path class="st1" d="M149.3,176.2c-0.7,0.3-1.3,0.5-2,0.7c-0.7,0.2-1.5,0.3-2.3,0.3c-1,0.1-2.1-0.3-2.8-1c-0.6-0.8-0.9-1.8-0.8-2.8
	v-10.8h-2.9V161h2.9v-4.9h2.9v4.9h4.6v1.5h-4.5v8.9c0,0.6,0,1.1,0.1,1.7c0,0.4,0.2,0.8,0.4,1.2c0.2,0.3,0.4,0.6,0.8,0.7
	c0.4,0.2,0.9,0.3,1.4,0.2c0.3,0,0.7,0,1.2-0.1c0.4,0,0.7-0.1,1.1-0.2L149.3,176.2L149.3,176.2z"/>
<path class="st1" d="M150.2,182c0-0.5,0.1-0.9,0.4-1.3c0.3-0.3,0.7-0.5,1.1-0.5c0.3,0,0.6,0.1,0.9,0.2c0.2,0.1,0.5,0.3,0.7,0.5
	c0.2,0.2,0.4,0.4,0.5,0.7c0.2,0.3,0.3,0.5,0.4,0.7c0.8-0.6,1.5-1.4,1.9-2.3c0.6-1,1.2-2.1,1.6-3.2c-1-2.5-1.9-4.8-2.8-6.8
	c-0.8-2-1.7-4.1-2.6-6.2c-0.2-0.5-0.5-0.9-1-1.1c-0.4-0.3-0.9-0.4-1.4-0.5V161h7.2v1.1c-0.4,0-0.8,0.1-1.2,0.2
	c-0.3,0-0.5,0.2-0.7,0.4c0,0.1,0,0.2,0.1,0.3c0,0.1,0.1,0.3,0.2,0.5c0.4,1.1,1,2.6,1.9,4.6c0.8,2,1.5,3.6,1.9,4.8l1.5-3.5
	c0.5-1.2,1.1-2.7,1.7-4.3l0.3-0.8c0.1-0.3,0.2-0.6,0.2-0.9c-0.1-0.4-0.4-0.7-0.7-0.8c-0.4-0.2-0.9-0.4-1.4-0.4v-1h5.9v1
	c-0.5,0.1-0.9,0.3-1.3,0.6c-0.5,0.3-0.9,0.8-1.2,1.3c-1.3,3-2.4,5.6-3.4,8.1c-1,2.4-1.7,4.2-2.3,5.4c-0.5,1.2-1.1,2.4-1.8,3.5
	c-0.4,0.7-1,1.4-1.6,2c-0.4,0.4-0.8,0.7-1.3,0.9c-0.4,0.2-0.8,0.2-1.2,0.2c-0.7,0-1.4-0.2-2-0.6C150.5,183.1,150.2,182.6,150.2,182z
	"/>
<path class="st1" d="M10.3,205.1c-1.3,0-2.7-0.3-3.9-0.8c-1.3-0.5-2.4-1.3-3.3-2.3c-1-1.1-1.8-2.3-2.3-3.7c-0.6-1.6-0.9-3.2-0.8-4.9
	c0-1.7,0.3-3.4,0.8-5c0.5-1.4,1.3-2.7,2.3-3.8c1-1.1,2.1-1.9,3.4-2.5c1.3-0.6,2.8-0.9,4.2-0.9c1,0,2,0.1,3,0.4
	c0.9,0.3,1.8,0.7,2.6,1.2l0.7-1.1h1.3l0.2,8.1h-1.3c-0.2-0.9-0.5-1.7-0.8-2.6c-0.3-0.8-0.7-1.6-1.2-2.4c-0.5-0.7-1.1-1.3-1.8-1.7
	c-0.7-0.4-1.6-0.6-2.4-0.6c-1,0-2,0.2-2.9,0.7c-0.9,0.5-1.7,1.2-2.3,2c-0.7,1-1.2,2.1-1.5,3.3c-0.4,1.5-0.5,3-0.5,4.5
	c0,1.4,0.2,2.7,0.5,4c0.3,1.2,0.9,2.3,1.6,3.3c0.6,0.9,1.5,1.6,2.4,2.1c1,0.5,2,0.8,3.1,0.8c0.8,0,1.6-0.1,2.4-0.4
	c0.7-0.3,1.3-0.6,1.9-1.1c0.5-0.5,1-1,1.4-1.6c0.4-0.6,0.8-1.3,1-2l1.2,0.6c-0.7,2-2,3.6-3.6,4.8C14.2,204.7,12.3,205.2,10.3,205.1z
	"/>
<path class="st1" d="M35.2,196.5c0,1.1-0.2,2.2-0.5,3.3c-0.3,1-0.8,1.9-1.5,2.7c-0.7,0.8-1.6,1.5-2.6,1.9c-1,0.4-2.2,0.6-3.3,0.6
	c-1,0-2-0.2-2.9-0.6c-0.9-0.4-1.7-0.9-2.4-1.7c-0.7-0.8-1.3-1.6-1.7-2.6c-0.4-1.1-0.6-2.3-0.6-3.5c-0.1-2.2,0.7-4.4,2.2-6.1
	c1.5-1.6,3.5-2.4,5.7-2.4c2.1-0.1,4.1,0.7,5.5,2.2C34.5,192.2,35.3,194.3,35.2,196.5z M31.9,196.5c0-0.8-0.1-1.7-0.2-2.5
	c-0.1-0.8-0.4-1.6-0.7-2.3c-0.3-0.6-0.8-1.2-1.4-1.6c-0.6-0.4-1.3-0.6-2-0.6c-0.8,0-1.5,0.2-2.1,0.6c-0.6,0.4-1.1,1-1.4,1.7
	c-0.4,0.7-0.6,1.5-0.7,2.2c-0.1,0.8-0.2,1.6-0.2,2.4c0,1,0.1,1.9,0.2,2.9c0.1,0.8,0.4,1.6,0.8,2.3c0.3,0.6,0.8,1.2,1.4,1.6
	c0.6,0.4,1.3,0.6,2.1,0.6c1.3,0,2.6-0.7,3.2-1.9C31.5,200.3,31.9,198.4,31.9,196.5L31.9,196.5z"/>
<path class="st1" d="M42.9,204.6h-7.8v-1.1l0.8-0.1c0.2,0,0.5-0.1,0.7-0.1c0.3-0.1,0.5-0.3,0.7-0.5c0.2-0.3,0.2-0.6,0.2-0.9v-18.3
	c0-0.4-0.1-0.7-0.2-1.1c-0.1-0.3-0.4-0.6-0.7-0.8c-0.3-0.2-0.7-0.3-1.1-0.4c-0.4-0.1-0.8-0.2-1.2-0.2v-1.1l6-0.3l0.2,0.2v21.7
	c0,0.3,0.1,0.6,0.2,0.9c0.2,0.3,0.4,0.4,0.7,0.6c0.2,0.1,0.5,0.2,0.7,0.2c0.3,0.1,0.5,0.1,0.8,0.1L42.9,204.6L42.9,204.6z"/>
<path class="st1" d="M51.7,204.6h-7.8v-1.1l0.8-0.1c0.2,0,0.5-0.1,0.7-0.1c0.3-0.1,0.5-0.3,0.7-0.5c0.2-0.3,0.2-0.6,0.2-0.9v-18.3
	c0-0.4-0.1-0.7-0.2-1.1c-0.1-0.3-0.4-0.6-0.7-0.8c-0.3-0.2-0.7-0.3-1.1-0.4c-0.4-0.1-0.8-0.2-1.2-0.2v-1.1l6-0.3l0.2,0.2v21.7
	c0,0.3,0.1,0.6,0.2,0.9c0.2,0.3,0.4,0.4,0.7,0.6c0.2,0.1,0.5,0.2,0.7,0.2c0.3,0.1,0.5,0.1,0.8,0.1L51.7,204.6L51.7,204.6z"/>
<path class="st1" d="M67,200.9c-0.6,1.2-1.5,2.2-2.7,3c-1.1,0.8-2.5,1.2-3.8,1.1c-1.2,0-2.3-0.2-3.3-0.7c-0.9-0.4-1.7-1-2.4-1.8
	c-0.6-0.8-1.1-1.7-1.4-2.7c-0.3-1.1-0.5-2.2-0.5-3.3c0-1,0.2-2,0.5-3c0.3-1,0.8-1.9,1.4-2.7c0.6-0.8,1.4-1.4,2.3-1.9
	c0.9-0.5,2-0.7,3-0.7c1,0,2,0.2,3,0.5c0.8,0.3,1.5,0.8,2,1.5c0.5,0.6,0.9,1.3,1.1,2.1c0.2,0.9,0.4,1.7,0.4,2.6v1.1H56.1
	c0,1,0.1,1.9,0.3,2.8c0.2,0.8,0.5,1.6,0.9,2.2c0.4,0.6,1,1.1,1.6,1.5c0.7,0.4,1.6,0.6,2.4,0.5c0.9,0,1.7-0.2,2.5-0.7
	c0.9-0.6,1.5-1.5,2-2.4L67,200.9z M63.4,194.9c0-0.6-0.1-1.3-0.2-1.9c-0.1-0.6-0.2-1.2-0.5-1.7c-0.2-0.5-0.6-0.9-1-1.2
	c-0.5-0.3-1.1-0.5-1.7-0.5c-1.1,0-2.2,0.5-2.8,1.4c-0.8,1.1-1.2,2.5-1.2,3.9L63.4,194.9L63.4,194.9z"/>
<path class="st1" d="M81.8,203c0.4,0.4,0.8,0.9,1,1.4c0.3,0.6,0.4,1.3,0.4,1.9c0,0.7-0.2,1.5-0.5,2.1c-0.4,0.7-0.9,1.3-1.5,1.7
	c-0.8,0.5-1.7,0.9-2.6,1.2c-1.2,0.3-2.4,0.4-3.7,0.4c-1.9,0.1-3.7-0.2-5.4-1.1c-1.1-0.6-1.8-1.8-1.8-3.1c-0.1-1,0.4-2,1.3-2.6
	c1-0.7,2.1-1,3.3-1v-0.2c-0.3-0.1-0.7-0.2-1-0.4c-0.3-0.1-0.6-0.3-0.9-0.5c-0.3-0.2-0.5-0.5-0.7-0.8c-0.2-0.3-0.3-0.7-0.3-1.1
	c0-0.6,0.2-1.1,0.6-1.6c0.5-0.5,1.1-1,1.8-1.2v-0.2c-0.9-0.4-1.8-1-2.4-1.9c-0.6-0.8-0.9-1.7-0.8-2.6c0-1.4,0.6-2.8,1.7-3.7
	c1.2-1,2.7-1.5,4.3-1.4c0.5,0,1,0,1.4,0.1c0.5,0.1,1,0.2,1.4,0.4h5.5v1.5h-3.7v0.1c0.4,0.4,0.7,1,0.9,1.5c0.2,0.5,0.3,1.1,0.3,1.6
	c0,1.4-0.6,2.7-1.7,3.5c-1.1,0.9-2.5,1.5-3.9,1.4h-1.9c-0.3,0.1-0.5,0.3-0.8,0.5c-0.3,0.2-0.4,0.6-0.4,0.9c0,0.3,0.1,0.7,0.3,0.9
	c0.2,0.2,0.5,0.4,0.8,0.4c0.4,0.1,0.7,0.1,1.1,0.2h1.3c0.5,0,1.1,0,1.9,0.1l1.7,0.1c0.5,0,1,0.1,1.5,0.4
	C80.9,202.3,81.4,202.6,81.8,203z M80.5,206.9c0-0.5-0.1-1-0.4-1.5c-0.3-0.4-0.8-0.7-1.3-0.8c-0.3,0-0.9-0.1-1.8-0.1
	c-0.9-0.1-2-0.1-3.2-0.1c-0.9,0.1-1.8,0.5-2.5,1.1c-0.5,0.6-0.7,1.3-0.7,2c0,0.8,0.4,1.6,1.1,2c0.5,0.3,1,0.5,1.5,0.7
	c0.8,0.2,1.5,0.3,2.3,0.3c1.3,0.1,2.6-0.2,3.7-0.9C80.1,208.9,80.6,207.9,80.5,206.9L80.5,206.9z M77.5,193.6c0.1-1.1-0.2-2.1-0.8-3
	c-0.5-0.7-1.3-1.1-2.2-1.1c-0.5,0-0.9,0.1-1.3,0.3c-0.4,0.2-0.7,0.5-0.9,0.9c-0.2,0.4-0.4,0.8-0.5,1.3c-0.1,0.5-0.1,1-0.1,1.5
	c0,1,0.2,2,0.8,2.9c0.4,0.7,1.2,1.1,2,1.1c0.9,0,1.7-0.4,2.1-1.1C77.2,195.6,77.5,194.6,77.5,193.6L77.5,193.6z"/>
<path class="st1" d="M98.4,200.9c-0.6,1.2-1.5,2.2-2.7,3c-1.1,0.8-2.5,1.2-3.8,1.1c-1.2,0-2.3-0.2-3.3-0.7c-0.9-0.4-1.7-1-2.4-1.8
	c-0.6-0.8-1.1-1.7-1.4-2.7c-0.3-1.1-0.5-2.2-0.5-3.3c0-1,0.2-2,0.5-3c0.3-1,0.8-1.9,1.4-2.7c0.6-0.8,1.4-1.4,2.3-1.9
	c0.9-0.5,2-0.7,3.1-0.7c1,0,2,0.2,3,0.5c0.8,0.3,1.5,0.8,2,1.5c0.5,0.6,0.9,1.3,1.1,2.1c0.2,0.9,0.4,1.7,0.4,2.6v1.1H87.5
	c0,1,0.1,1.9,0.3,2.8c0.2,0.8,0.5,1.6,0.9,2.2c0.4,0.6,1,1.1,1.6,1.5c0.7,0.4,1.6,0.6,2.4,0.5c0.9,0,1.7-0.2,2.5-0.7
	c0.9-0.6,1.5-1.5,2-2.4L98.4,200.9z M94.8,194.9c0-0.6-0.1-1.3-0.2-1.9c-0.1-0.6-0.2-1.2-0.5-1.7c-0.2-0.5-0.6-0.9-1-1.2
	c-0.5-0.3-1.1-0.5-1.7-0.5c-1.1,0-2.2,0.5-2.8,1.4c-0.8,1.1-1.2,2.5-1.2,3.9L94.8,194.9L94.8,194.9z"/>
</svg>
