<?xml version="1.0" encoding="utf-8"?>
<!-- Generator: Adobe Illustrator 19.2.1, SVG Export Plug-In . SVG Version: 6.00 Build 0)  -->
<svg version="1.1" id="Layer_1" xmlns="http://www.w3.org/2000/svg" xmlns:xlink="http://www.w3.org/1999/xlink" x="0px" y="0px"
	 viewBox="0 0 248.9 81" style="enable-background:new 0 0 248.9 81;" xml:space="preserve">
<style type="text/css">
	.st0{fill:#6B478E;}
	.st1{font-family:'Georgia';}
	.st2{font-size:22px;}
</style>
<title>knowsley-university-centre</title>
<g>
	<polygon class="st0" points="44.3,18.7 34.5,18.7 7.8,43.2 7.8,18.7 0,18.7 0,73.2 7.8,73.2 7.8,46.2 34,73.2 44.9,73.2 16.7,44.2 
			"/>
	<path class="st0" d="M43.1,46c0-11.6,9-20.8,22-20.8c3.4,0,6.9,0.6,10.1,1.8l-11.2-9.1c-8.3,0.2-15.1,2.9-20.7,8.2
		C32.3,36.6,31.9,54,42.4,65c1.6,1.6,3.3,3.1,5.2,4.3c5,3.2,10.9,4.9,16.9,4.9c6.8-0.1,13.6-1.8,19.6-5.1v-8.8
		c-6.7,4.3-13.2,6.4-19.5,6.4C52.1,66.7,43.1,57.6,43.1,46z"/>
	<path class="st0" d="M92.6,46c0-1.4,0.1-2.7,0.4-4.1l-6.2-7.3c-1.6,3.5-2.5,7.3-2.5,11.2c-0.1,9.5,4.8,18.4,12.8,23.5
		c5,3.2,10.9,4.9,16.9,4.9c6.9-0.1,13.6-1.8,19.6-5.1v-8.8c-6.7,4.3-13.2,6.4-19.5,6.4C101.6,66.7,92.6,57.6,92.6,46L92.6,46z"/>
	<path class="st0" d="M106.4,18.8l8.1,6.4c6,0,12,1.9,18.6,5.5v-8.4c-5.8-2.8-12.1-4.3-18.6-4.4C111.8,17.9,109.1,18.2,106.4,18.8z"
		/>
	<path class="st0" d="M82.8,19l2.4,3.4c0,0,5.2,1.1,9.2-1.8c5.1-3.7,4.6-8.2,4.6-8.2l-2.7-3.7L93,16.6c-0.2,0.6-0.8,1-1.4,1L82.8,19
		z"/>
	<path class="st0" d="M87,9.9c-0.6,0.5-1.4,0.8-2.2,0.9l-5.4,7.6l11.6-1.9c0.6-0.1,1.1-0.5,1.4-1l5.7-13c0.4-0.9-0.1-2-1-2.3
		C96.7,0,96.4,0,96.1,0l-14,2.3c-0.6,0.1-1.1,0.5-1.4,1l-5.8,13c-0.4,0.9,0,2,0.9,2.4c0.3,0.1,0.7,0.2,1,0.1l3.8,5.3
		c-0.5,0.7-0.3,1.8,0.4,2.3c0.3,0.2,0.6,0.3,0.9,0.3c0.4,0.7,0.5,1.5,0.3,2.2c-0.2,1,0.4,1.9,1.4,2.1c0.1,0,0.3,0,0.4,0h0.3
		c0.5,0,1-0.2,1.4-0.6c0.3-0.4,0.5-0.9,0.4-1.4c-0.3-1.5-1.2-2.9-2.5-3.7c0.1-0.9-0.5-1.7-1.4-1.9c-0.2,0-0.5,0-0.7,0l-3.6-5
		l5.8-8.3c-0.1-0.3-0.1-0.6-0.1-0.9c0,0.1,0.9,1.2,2.5,0c0.9-0.7,1.5-1.5,1-2.2c-0.1-0.1-0.2-0.2-0.3-0.3c0.4,0.1,0.9,0.3,1.2,0.7
		C88.7,8.1,88.1,9.1,87,9.9z"/>
	<text transform="matrix(1 0 0 1 147.54 34.3636)" class="st0 st1 st2">Knowsley</text>
	<text transform="matrix(1 0 0 1 147.54 54.3636)" class="st0 st1 st2">University</text>
	<text transform="matrix(1 0 0 1 147.54 74.3636)" class="st0 st1 st2">Centre</text>
</g>
</svg>
