<?xml version="1.0" encoding="utf-8"?>
<!-- Generator: Adobe Illustrator 19.2.1, SVG Export Plug-In . SVG Version: 6.00 Build 0)  -->
<svg version="1.1" id="Layer_1" xmlns="http://www.w3.org/2000/svg" xmlns:xlink="http://www.w3.org/1999/xlink" x="0px" y="0px"
	 viewBox="0 0 432.2 137.5" style="enable-background:new 0 0 432.2 137.5;" xml:space="preserve">
<style type="text/css">
	.st0{fill:#FFFFFF;}
</style>
<g>
	<path class="st0" d="M82.2,34.8H64L14.5,80.1V34.8H0v101h14.5v-50l48.6,50h20.1L30.9,82.1L82.2,34.8z M79.9,85.3
		c0-21.6,16.7-38.6,40.8-38.6c6.2,0,12.4,1.1,18.8,3.2l-20.9-16.8c-15.3,0.4-28,5.4-38.3,15.2c-10,9.7-15.8,23-15.8,36.6
		c0,17.9,8.7,33.9,23.8,43.6c9.2,5.9,19.7,9,31.3,9c12.1,0,24.5-3.2,36.4-9.5v-16.3c-12.4,8-24.4,12-36.2,12
		C96.6,123.7,79.9,106.9,79.9,85.3z M171.7,85.3c0-2.6,0.2-5.1,0.7-7.6l-11.5-13.6c-3,6.5-4.6,13.6-4.6,20.8
		c0,17.9,8.7,33.9,23.8,43.6c9.2,5.9,19.7,9,31.3,9c12.1,0,24.5-3.2,36.4-9.5v-16.3c-12.4,8-24.4,12-36.2,12
		C188.4,123.7,171.7,106.9,171.7,85.3z M197.4,34.9l15.1,12c11.1,0,22.2,3.5,34.4,10.2V41.4c-9.3-4.3-20.5-8.1-34.4-8.1
		C207.2,33.3,202.1,33.8,197.4,34.9z"/>
	<g>
		<g>
			<path class="st0" d="M153.6,35.3l4.5,6.3c0,0,9.6,2,17.1-3.4c9.4-6.8,8.6-15.2,8.6-15.2l-4.9-6.8l-6.4,14.5c-0.5,1-1.4,1.8-2.5,2
				L153.6,35.3z"/>
			<path class="st0" d="M161.3,18.3c-1.4,1-3,1.7-4.2,1.6l-10,14.3l21.5-3.5c1.1-0.2,2.1-0.9,2.5-1.9l10.7-24.1
				c0.5-1.1,0.3-2.4-0.4-3.4s-2-1.5-3.2-1.3l-26,4.3c-1.1,0.2-2.1,0.9-2.5,1.9L139,30.3c-0.5,1.1-0.3,2.4,0.4,3.4
				c0.8,1,2,1.5,3.2,1.3l7,9.8c-0.7,1-0.7,2.4,0,3.5c0.6,0.8,1.5,1.2,2.4,1.3c0.8,1.5,0.9,2.9,0.6,4.1c-0.2,1,0.1,2,0.7,2.8
				c0.6,0.8,1.6,1.2,2.6,1.2h0.5c1,0,1.9-0.4,2.5-1.1s0.9-1.7,0.8-2.6c-0.4-3.3-3.2-5.8-4.7-6.9c0.1-0.8,0-1.6-0.5-2.2
				c-0.8-1.1-2.1-1.5-3.3-1.1l-6.7-9.3L155.3,19c-0.3-0.7-0.1-1.7-0.1-1.7c0.1,0.2,1.6,2.2,4.7-0.1c1.8-1.3,2.8-2.9,1.9-4
				c-0.2-0.2-0.4-0.4-0.6-0.6c0.9,0.3,1.7,0.7,2.1,1.3C164.5,15,163.3,16.9,161.3,18.3z"/>
		</g>
	</g>
	<g>
		<path class="st0" d="M293.9,65.6H286c-1.5-2.4-3.2-4.7-5.1-7s-3.8-4.6-5.9-6.8h-0.5v9.8c0,0.4,0.1,0.8,0.2,1.2
			c0.2,0.3,0.5,0.6,0.9,0.8c0.2,0.1,0.6,0.2,1.2,0.3s1.1,0.2,1.4,0.2v1.4h-11.7v-1.4c0.3,0,0.7-0.1,1.3-0.1c0.6-0.1,1-0.1,1.2-0.2
			c0.4-0.2,0.7-0.4,0.9-0.8c0.2-0.3,0.3-0.7,0.3-1.2V41.4c0-0.5-0.1-0.8-0.2-1.2c-0.2-0.3-0.5-0.6-0.9-0.8s-0.8-0.3-1.3-0.5
			c-0.5-0.1-0.9-0.2-1.3-0.2v-1.4h11.7v1.4c-0.4,0-0.8,0.1-1.4,0.2c-0.6,0.1-1,0.2-1.2,0.3c-0.5,0.2-0.8,0.4-0.9,0.8
			c-0.2,0.4-0.2,0.8-0.2,1.2V51h0.4c1.2-1,2.4-2.1,3.5-3.2c1.2-1.1,2.2-2.2,3.1-3.3c1-1.2,1.8-2.2,2.3-2.9s0.7-1.4,0.7-1.9
			c0-0.2-0.1-0.4-0.4-0.5c-0.2-0.1-0.5-0.2-0.8-0.3c-0.4-0.1-0.7-0.1-1-0.2s-0.5,0-0.7,0v-1.4h10.6v1.4c0,0-0.1,0-0.3,0
			c-0.1,0-0.3,0-0.5,0s-0.4,0-0.6,0.1c-0.2,0-0.4,0.1-0.7,0.1c-0.5,0.1-0.9,0.3-1.4,0.5s-0.9,0.5-1.2,0.9c-1.4,1.6-2.8,3.2-4.3,4.8
			c-1.5,1.7-3,3.2-4.4,4.5c2,2.3,3.7,4.2,5,5.9c1.3,1.6,2.7,3.4,4.2,5.3c0.6,0.7,1.1,1.3,1.7,1.7s1.1,0.8,1.5,1
			c0.3,0.2,0.8,0.3,1.3,0.4c0.5,0.1,0.9,0.1,1.3,0.2L293.9,65.6L293.9,65.6z"/>
		<path class="st0" d="M314.1,65.6h-9.6v-1.3c0.3,0,0.6-0.1,1-0.1s0.7-0.1,0.9-0.2c0.4-0.1,0.6-0.3,0.8-0.6c0.2-0.3,0.3-0.7,0.3-1.2
			v-10c0-1.4-0.3-2.5-1-3.2c-0.7-0.8-1.5-1.1-2.4-1.1c-0.7,0-1.4,0.1-1.9,0.3c-0.6,0.2-1.1,0.5-1.6,0.8c-0.4,0.3-0.8,0.6-1,1
			c-0.3,0.4-0.4,0.6-0.6,0.8v11.3c0,0.5,0.1,0.8,0.3,1.1c0.2,0.3,0.5,0.5,0.8,0.7c0.3,0.1,0.6,0.2,0.9,0.3s0.7,0.1,1,0.1v1.3h-9.6
			v-1.3c0.3,0,0.6-0.1,0.9-0.1s0.6-0.1,0.8-0.2c0.4-0.1,0.6-0.3,0.8-0.6s0.3-0.7,0.3-1.2V50.1c0-0.5-0.1-0.9-0.3-1.2
			c-0.2-0.4-0.5-0.7-0.8-0.9s-0.6-0.3-0.9-0.3c-0.3-0.1-0.7-0.1-1.1-0.1v-1.3l6.5-0.4L299,46v2.8h0.1c0.3-0.3,0.7-0.7,1.2-1.1
			c0.5-0.4,0.9-0.8,1.4-1.1s1.1-0.6,1.8-0.8c0.7-0.2,1.4-0.3,2.3-0.3c1.9,0,3.3,0.6,4.2,1.8c0.9,1.2,1.4,2.7,1.4,4.7v10.2
			c0,0.5,0.1,0.8,0.2,1.1c0.2,0.3,0.4,0.5,0.8,0.7c0.3,0.1,0.6,0.2,0.8,0.3c0.2,0.1,0.6,0.1,1,0.1L314.1,65.6L314.1,65.6z"/>
		<path class="st0" d="M332.3,55.6c0,1.4-0.2,2.7-0.7,4.1c-0.4,1.3-1.1,2.5-1.9,3.4c-0.9,1.1-2,1.9-3.2,2.4s-2.6,0.8-4.1,0.8
			c-1.2,0-2.4-0.2-3.6-0.7c-1.1-0.5-2.1-1.2-3-2.1c-0.9-0.9-1.6-2-2.1-3.3s-0.8-2.7-0.8-4.3c0-3.1,0.9-5.6,2.7-7.5
			c1.8-2,4.1-2.9,7-2.9c2.8,0,5,0.9,6.8,2.8C331.4,50,332.3,52.5,332.3,55.6z M328.2,55.6c0-1-0.1-2-0.3-3.2c-0.2-1.1-0.5-2-0.9-2.8
			s-1-1.5-1.7-2s-1.5-0.7-2.5-0.7s-1.9,0.3-2.6,0.8s-1.3,1.2-1.8,2.1c-0.4,0.8-0.7,1.7-0.9,2.8c-0.2,1-0.3,2-0.3,3
			c0,1.3,0.1,2.5,0.3,3.5c0.2,1.1,0.5,2.1,1,2.9c0.5,0.8,1,1.5,1.7,2s1.5,0.7,2.5,0.7c1.7,0,3-0.8,4-2.4
			C327.7,60.7,328.2,58.5,328.2,55.6z"/>
		<path class="st0" d="M361,47.2c-0.6,0.1-1.2,0.3-1.8,0.7c-0.6,0.4-1.1,1-1.4,1.9c-0.7,2-1.3,3.8-1.9,5.5s-1.3,3.7-2,5.9
			c-0.2,0.7-0.5,1.4-0.7,2.2c-0.2,0.8-0.5,1.6-0.7,2.3h-1.7l-5.3-14.5l-5.3,14.5h-1.6c-1-2.9-2-5.9-2.9-8.8c-1-2.9-1.8-5.4-2.5-7.6
			c-0.2-0.6-0.6-1.1-1.2-1.5s-1.2-0.6-1.7-0.6V46h8.8v1.4c-0.4,0-0.9,0.1-1.4,0.2c-0.5,0.1-0.8,0.4-0.8,0.7c0,0.1,0,0.2,0.1,0.3
			c0,0.2,0.1,0.4,0.2,0.6c0.4,1.4,0.9,2.9,1.4,4.7c0.5,1.7,1.2,3.9,2.1,6.7l5-14.1h1.9l5.1,13.9c0.6-1.8,1.1-3.5,1.7-5.2
			s1.1-3.2,1.5-4.7c0.1-0.3,0.2-0.7,0.3-0.9c0.1-0.3,0.1-0.6,0.1-0.8s-0.1-0.5-0.3-0.6c-0.2-0.2-0.5-0.3-0.8-0.5
			c-0.3-0.1-0.6-0.2-0.9-0.2c-0.3-0.1-0.5-0.1-0.7-0.1V46h7.5v1.2H361z"/>
		<path class="st0" d="M373,56c0.5,0.5,1,1,1.3,1.7s0.4,1.4,0.4,2.3c0,1.8-0.7,3.3-2,4.5c-1.4,1.2-3.1,1.7-5.3,1.7
			c-1.1,0-2.2-0.2-3.2-0.6s-1.7-0.8-2.1-1.1l-0.4,1.3h-1.5L360,59h1.4c0.1,0.5,0.3,1.1,0.7,1.8c0.3,0.7,0.8,1.3,1.3,1.9
			c0.5,0.6,1.1,1.1,1.9,1.5c0.7,0.4,1.5,0.6,2.4,0.6c1.3,0,2.3-0.3,2.9-0.9c0.7-0.6,1-1.4,1-2.5c0-0.6-0.1-1-0.3-1.4
			c-0.2-0.4-0.5-0.8-1-1.1c-0.4-0.3-1-0.6-1.6-0.8s-1.3-0.5-2.1-0.7c-0.6-0.2-1.3-0.4-2.1-0.8c-0.8-0.3-1.4-0.7-2-1.1
			c-0.6-0.5-1.1-1-1.4-1.7s-0.6-1.5-0.6-2.4c0-1.6,0.6-3,1.8-4.1c1.2-1.1,2.8-1.7,4.8-1.7c0.8,0,1.6,0.1,2.4,0.3s1.5,0.4,2,0.7
			l0.5-1h1.4l0.3,6.3h-1.4c-0.3-1.4-0.9-2.6-1.8-3.5s-2.1-1.3-3.4-1.3c-1.1,0-1.9,0.3-2.6,0.8c-0.6,0.5-0.9,1.2-0.9,2
			c0,0.6,0.1,1.1,0.3,1.5c0.2,0.4,0.5,0.7,0.9,1s0.9,0.5,1.5,0.7s1.4,0.5,2.2,0.8c0.9,0.3,1.7,0.6,2.5,1
			C371.8,55.1,372.4,55.5,373,56z"/>
		<path class="st0" d="M384.2,65.6h-9.6v-1.3c0.3,0,0.6-0.1,1-0.1c0.3,0,0.6-0.1,0.9-0.1c0.4-0.1,0.7-0.3,0.8-0.6
			c0.2-0.3,0.3-0.7,0.3-1.2V39.5c0-0.5-0.1-0.9-0.3-1.3c-0.2-0.4-0.5-0.7-0.8-1c-0.2-0.2-0.7-0.3-1.3-0.4c-0.6-0.1-1.1-0.2-1.5-0.2
			v-1.3l7.4-0.4l0.3,0.3v27c0,0.5,0.1,0.8,0.3,1.1s0.5,0.5,0.8,0.7c0.3,0.1,0.6,0.2,0.9,0.3s0.6,0.1,1,0.1v1.2H384.2z"/>
		<path class="st0" d="M401.5,61c-0.8,1.6-1.9,2.8-3.3,3.7c-1.4,0.9-3,1.4-4.8,1.4c-1.6,0-3-0.3-4.2-0.8c-1.2-0.6-2.2-1.3-2.9-2.3
			c-0.8-1-1.3-2.1-1.7-3.3s-0.6-2.6-0.6-4c0-1.3,0.2-2.5,0.6-3.8c0.4-1.2,1-2.3,1.8-3.3c0.8-0.9,1.7-1.7,2.8-2.3
			c1.1-0.6,2.4-0.9,3.8-0.9s2.7,0.2,3.7,0.7s1.9,1.1,2.5,1.9c0.6,0.7,1.1,1.6,1.4,2.6s0.4,2.1,0.4,3.3v1.3h-13
			c0,1.3,0.1,2.5,0.4,3.5c0.2,1.1,0.6,2,1.2,2.8c0.5,0.8,1.2,1.4,2,1.8c0.8,0.4,1.8,0.7,3,0.7s2.2-0.3,3.1-0.8
			c0.9-0.6,1.7-1.6,2.5-3L401.5,61z M397.1,53.5c0-0.7-0.1-1.5-0.2-2.4c-0.1-0.8-0.3-1.6-0.6-2.1c-0.3-0.6-0.7-1.1-1.3-1.5
			s-1.2-0.6-2.1-0.6c-1.4,0-2.6,0.6-3.5,1.7c-0.9,1.2-1.4,2.8-1.5,4.8L397.1,53.5L397.1,53.5z"/>
		<path class="st0" d="M400.5,72c0-0.7,0.2-1.2,0.5-1.6c0.4-0.4,0.8-0.6,1.4-0.6c0.4,0,0.8,0.1,1.1,0.2c0.3,0.2,0.6,0.4,0.8,0.6
			c0.2,0.2,0.4,0.5,0.6,0.8s0.4,0.6,0.5,0.8c0.7-0.4,1.5-1.3,2.4-2.8s1.6-2.8,2-4c-1.3-3.1-2.4-6-3.4-8.4c-1-2.5-2.1-5.1-3.2-7.7
			c-0.3-0.6-0.7-1.1-1.3-1.4c-0.6-0.3-1.2-0.6-1.8-0.6V46h9v1.4c-0.4,0-0.9,0.1-1.4,0.2s-0.8,0.3-0.8,0.5c0,0.1,0,0.2,0.1,0.4
			s0.1,0.4,0.2,0.6c0.5,1.3,1.3,3.2,2.3,5.7s1.8,4.5,2.4,5.9c0.6-1.4,1.2-2.9,1.9-4.4c0.6-1.5,1.4-3.3,2.2-5.4
			c0.1-0.3,0.2-0.6,0.4-1c0.2-0.4,0.3-0.8,0.3-1.1s-0.3-0.7-0.9-1s-1.2-0.5-1.7-0.5V46h7.3v1.2c-0.4,0.1-0.9,0.3-1.6,0.7
			s-1.1,0.9-1.5,1.7c-1.6,3.7-3,7-4.2,10s-2.2,5.2-2.8,6.7c-0.8,1.9-1.6,3.3-2.2,4.4c-0.7,1-1.3,1.9-1.9,2.5s-1.2,0.9-1.7,1.1
			s-1,0.3-1.5,0.3c-1,0-1.8-0.2-2.4-0.7C400.8,73.2,400.5,72.7,400.5,72z"/>
		<path class="st0" d="M295,74c-0.4,0-0.9,0.1-1.6,0.2s-1.3,0.4-1.8,0.7c-0.5,0.3-0.8,0.9-0.9,1.9c-0.2,1-0.3,2.1-0.3,3.5v12.3
			c0,1.6-0.3,2.9-1,4.1s-1.5,2.1-2.6,2.8c-1,0.7-2.2,1.2-3.3,1.5c-1.2,0.3-2.3,0.5-3.3,0.5c-1.7,0-3.2-0.2-4.5-0.7
			c-1.3-0.4-2.4-1-3.3-1.8s-1.6-1.6-2-2.6c-0.5-1-0.7-2-0.7-3.1V76.7c0-0.5-0.1-0.9-0.2-1.2c-0.2-0.3-0.5-0.6-0.9-0.9
			c-0.3-0.2-0.8-0.3-1.3-0.4S266.4,74,266,74v-1.4h11.8V74c-0.4,0-0.8,0.1-1.4,0.2s-1,0.2-1.2,0.3c-0.5,0.2-0.8,0.4-0.9,0.8
			c-0.2,0.4-0.2,0.8-0.2,1.2v15.6c0,0.8,0.1,1.5,0.2,2.4c0.2,0.8,0.5,1.6,1,2.3c0.5,0.7,1.2,1.3,2.1,1.8s2.1,0.7,3.7,0.7
			c1.5,0,2.7-0.2,3.7-0.7s1.8-1.1,2.3-1.8c0.5-0.7,0.9-1.5,1.2-2.2c0.2-0.8,0.3-1.6,0.3-2.4V80.5c0-1.5-0.1-2.7-0.3-3.6
			c-0.2-0.9-0.5-1.6-0.9-1.8c-0.5-0.3-1.1-0.6-1.9-0.8c-0.8-0.2-1.4-0.3-1.8-0.3v-1.4H295V74z"/>
		<path class="st0" d="M314.2,100.9h-9.6v-1.3c0.3,0,0.6-0.1,1-0.1s0.7-0.1,0.9-0.2c0.4-0.1,0.6-0.3,0.8-0.6s0.3-0.7,0.3-1.2V87.4
			c0-1.4-0.3-2.5-1-3.2c-0.7-0.8-1.5-1.1-2.4-1.1c-0.7,0-1.4,0.1-1.9,0.3c-0.6,0.2-1.1,0.5-1.6,0.8c-0.4,0.3-0.8,0.6-1,1
			c-0.3,0.4-0.4,0.6-0.6,0.8v11.3c0,0.5,0.1,0.8,0.3,1.1c0.2,0.3,0.5,0.5,0.8,0.7c0.3,0.1,0.6,0.2,0.9,0.3c0.3,0.1,0.7,0.1,1,0.1
			v1.3h-9.6v-1.3c0.3,0,0.6-0.1,0.9-0.1s0.6-0.1,0.8-0.2c0.4-0.1,0.6-0.3,0.8-0.6c0.2-0.3,0.3-0.7,0.3-1.2v-12
			c0-0.5-0.1-0.9-0.3-1.2c-0.2-0.4-0.5-0.7-0.8-0.9c-0.3-0.2-0.6-0.3-0.9-0.3s-0.7-0.1-1.1-0.1v-1.3l6.5-0.4l0.3,0.3V84h0.1
			c0.3-0.3,0.7-0.7,1.2-1.1s0.9-0.8,1.4-1.1c0.5-0.3,1.1-0.6,1.8-0.8c0.7-0.2,1.4-0.3,2.3-0.3c1.9,0,3.3,0.6,4.2,1.8
			c0.9,1.2,1.4,2.7,1.4,4.7v10.2c0,0.5,0.1,0.8,0.2,1.1c0.2,0.3,0.4,0.5,0.8,0.7c0.3,0.1,0.6,0.2,0.8,0.3c0.2,0.1,0.6,0.1,1,0.1
			L314.2,100.9L314.2,100.9z"/>
		<path class="st0" d="M322.7,100.9h-9.5v-1.3c0.3,0,0.6-0.1,0.9-0.1s0.6-0.1,0.8-0.2c0.4-0.1,0.6-0.3,0.8-0.6
			c0.2-0.3,0.3-0.7,0.3-1.2V85.4c0-0.4-0.1-0.8-0.3-1.2c-0.2-0.4-0.5-0.6-0.8-0.9c-0.3-0.2-0.6-0.3-1.1-0.4s-0.9-0.2-1.3-0.2v-1.3
			l6.9-0.4l0.3,0.3v16c0,0.5,0.1,0.8,0.3,1.2c0.2,0.3,0.5,0.5,0.8,0.7c0.3,0.1,0.6,0.2,0.9,0.3c0.3,0.1,0.6,0.1,0.9,0.2v1.2H322.7z
			 M320.2,73.2c0,0.8-0.2,1.4-0.7,2s-1.1,0.8-1.8,0.8c-0.7,0-1.3-0.3-1.8-0.8s-0.7-1.2-0.7-1.8c0-0.7,0.2-1.4,0.7-1.9
			s1.1-0.8,1.8-0.8c0.8,0,1.4,0.3,1.9,0.8C320,71.9,320.2,72.5,320.2,73.2z"/>
		<path class="st0" d="M342.8,82.4c-0.6,0.1-1.2,0.3-1.7,0.6c-0.5,0.3-1,0.9-1.4,1.7c-0.8,1.8-1.6,3.6-2.4,5.6
			c-0.8,1.9-1.7,4-2.6,6.1c-0.3,0.6-0.5,1.3-0.8,2.2c-0.3,0.8-0.6,1.6-0.8,2.4h-1.6c-1.3-3.1-2.4-6-3.5-8.5
			c-1.1-2.6-2.2-5.2-3.3-7.9c-0.3-0.6-0.7-1.1-1.3-1.4c-0.6-0.3-1.2-0.6-1.8-0.6v-1.3h9.1v1.4c-0.4,0-0.9,0.1-1.5,0.2
			c-0.6,0.2-0.9,0.4-0.9,0.6c0,0,0,0.1,0.1,0.3c0.1,0.2,0.1,0.4,0.2,0.6c0.5,1.4,1.3,3.2,2.3,5.7c1,2.4,1.8,4.4,2.4,5.9
			c0.5-1.1,1.1-2.6,1.8-4.3c0.7-1.7,1.5-3.6,2.3-5.7c0.1-0.4,0.3-0.7,0.4-1s0.2-0.6,0.2-0.9c0-0.2-0.1-0.4-0.3-0.6
			c-0.2-0.2-0.5-0.3-0.8-0.5c-0.3-0.1-0.6-0.2-0.9-0.3c-0.3-0.1-0.5-0.1-0.7-0.1v-1.3h7.5L342.8,82.4L342.8,82.4z"/>
		<path class="st0" d="M359.3,96.2c-0.8,1.6-1.9,2.8-3.3,3.7c-1.4,0.9-3,1.4-4.8,1.4c-1.6,0-3-0.3-4.2-0.8c-1.2-0.6-2.2-1.3-2.9-2.3
			c-0.8-1-1.3-2.1-1.7-3.3c-0.4-1.3-0.6-2.6-0.6-4c0-1.3,0.2-2.5,0.6-3.8c0.4-1.2,1-2.3,1.8-3.3c0.8-0.9,1.7-1.7,2.8-2.3
			s2.4-0.9,3.8-0.9s2.7,0.2,3.7,0.7s1.9,1.1,2.5,1.9c0.6,0.7,1.1,1.6,1.4,2.6s0.4,2.1,0.4,3.3v1.3h-13c0,1.3,0.1,2.5,0.4,3.5
			c0.2,1.1,0.6,2,1.2,2.8c0.5,0.8,1.2,1.4,2,1.8s1.8,0.7,3,0.7s2.2-0.3,3.1-0.8s1.7-1.6,2.5-3L359.3,96.2z M354.9,88.7
			c0-0.7-0.1-1.5-0.2-2.4s-0.3-1.6-0.6-2.1c-0.3-0.6-0.7-1.1-1.3-1.5c-0.5-0.4-1.2-0.6-2.1-0.6c-1.4,0-2.6,0.6-3.5,1.7
			c-0.9,1.2-1.4,2.8-1.5,4.8L354.9,88.7L354.9,88.7z"/>
		<path class="st0" d="M374.8,83.7c0,0.7-0.2,1.3-0.5,1.8s-0.8,0.8-1.5,0.8s-1.3-0.2-1.7-0.6c-0.4-0.4-0.6-0.8-0.6-1.3
			c0-0.3,0-0.6,0.1-0.8c0-0.2,0.1-0.5,0.1-0.7c-0.6,0-1.4,0.3-2.2,0.8s-1.5,1.2-2.1,2.2v11.4c0,0.5,0.1,0.8,0.3,1.1
			c0.2,0.3,0.5,0.5,0.8,0.7c0.3,0.1,0.8,0.2,1.3,0.3c0.5,0.1,1,0.1,1.4,0.1v1.3h-10.4v-1.3c0.3,0,0.6-0.1,0.9-0.1s0.6-0.1,0.8-0.2
			c0.4-0.1,0.6-0.3,0.8-0.6c0.2-0.3,0.3-0.7,0.3-1.2v-12c0-0.4-0.1-0.8-0.3-1.2c-0.2-0.4-0.5-0.7-0.8-1c-0.3-0.2-0.6-0.3-0.9-0.3
			c-0.3-0.1-0.7-0.1-1.1-0.1v-1.3l6.5-0.4l0.3,0.3V84h0.1c0.8-1.1,1.7-1.9,2.7-2.5s1.9-0.8,2.8-0.8s1.5,0.3,2,0.8
			C374.5,82.1,374.8,82.8,374.8,83.7z"/>
		<path class="st0" d="M387.7,91.2c0.5,0.5,1,1,1.3,1.7c0.3,0.6,0.4,1.4,0.4,2.3c0,1.8-0.7,3.3-2,4.5c-1.4,1.2-3.1,1.7-5.3,1.7
			c-1.1,0-2.2-0.2-3.2-0.6s-1.7-0.8-2.1-1.1l-0.4,1.3h-1.5l-0.2-6.8h1.4c0.1,0.5,0.3,1.1,0.7,1.8c0.3,0.7,0.8,1.3,1.3,1.9
			s1.1,1.1,1.9,1.5c0.7,0.4,1.5,0.6,2.4,0.6c1.3,0,2.3-0.3,2.9-0.9c0.7-0.6,1-1.4,1-2.5c0-0.6-0.1-1-0.3-1.4c-0.2-0.4-0.5-0.8-1-1.1
			c-0.4-0.3-1-0.6-1.6-0.8c-0.6-0.2-1.3-0.5-2.1-0.7c-0.6-0.2-1.3-0.4-2.1-0.8c-0.8-0.3-1.4-0.7-2-1.1c-0.6-0.5-1.1-1-1.4-1.7
			s-0.6-1.5-0.6-2.4c0-1.6,0.6-3,1.8-4.1c1.2-1.1,2.8-1.7,4.8-1.7c0.8,0,1.6,0.1,2.4,0.3c0.8,0.2,1.5,0.4,2,0.7l0.5-1h1.4l0.3,6.3
			H387c-0.3-1.4-0.9-2.6-1.8-3.5s-2.1-1.3-3.4-1.3c-1.1,0-1.9,0.3-2.6,0.8s-0.9,1.2-0.9,2c0,0.6,0.1,1.1,0.3,1.5
			c0.2,0.4,0.5,0.7,0.9,1s0.9,0.5,1.5,0.7s1.4,0.5,2.2,0.8c0.9,0.3,1.7,0.6,2.5,1C386.5,90.4,387.1,90.8,387.7,91.2z"/>
		<path class="st0" d="M400,100.9h-9.5v-1.3c0.3,0,0.6-0.1,0.9-0.1s0.6-0.1,0.8-0.2c0.4-0.1,0.6-0.3,0.8-0.6
			c0.2-0.3,0.3-0.7,0.3-1.2V85.4c0-0.4-0.1-0.8-0.3-1.2c-0.2-0.4-0.5-0.6-0.8-0.9c-0.3-0.2-0.6-0.3-1.1-0.4s-0.9-0.2-1.3-0.2v-1.3
			l6.9-0.4l0.3,0.3v16c0,0.5,0.1,0.8,0.3,1.2c0.2,0.3,0.5,0.5,0.8,0.7c0.3,0.1,0.6,0.2,0.8,0.3c0.3,0.1,0.6,0.1,0.9,0.2v1.2H400z
			 M397.6,73.2c0,0.8-0.2,1.4-0.7,2s-1.1,0.8-1.8,0.8c-0.7,0-1.3-0.3-1.8-0.8s-0.7-1.2-0.7-1.8c0-0.7,0.2-1.4,0.7-1.9
			s1.1-0.8,1.8-0.8c0.8,0,1.4,0.3,1.9,0.8C397.3,71.9,397.6,72.5,397.6,73.2z"/>
		<path class="st0" d="M412.8,100c-0.9,0.4-1.7,0.7-2.5,0.9c-0.8,0.2-1.7,0.4-2.8,0.4c-1.6,0-2.8-0.4-3.5-1.2c-0.7-0.8-1-2-1-3.5
			V83.2h-3.5v-1.9h3.6v-6.1h3.6v6.1h5.6v1.9h-5.6v11c0,0.8,0,1.5,0.1,2.1s0.2,1,0.4,1.4c0.2,0.4,0.5,0.7,1,0.9
			c0.4,0.2,1,0.3,1.7,0.3c0.3,0,0.8,0,1.5-0.1c0.6-0.1,1.1-0.1,1.4-0.2L412.8,100L412.8,100z"/>
		<path class="st0" d="M411.5,107.3c0-0.7,0.2-1.2,0.5-1.6c0.4-0.4,0.8-0.6,1.4-0.6c0.4,0,0.8,0.1,1.1,0.2c0.3,0.2,0.6,0.4,0.8,0.6
			c0.2,0.2,0.4,0.5,0.6,0.8s0.4,0.6,0.5,0.8c0.7-0.4,1.5-1.3,2.4-2.8s1.6-2.8,2-4c-1.3-3.1-2.4-6-3.4-8.4c-1-2.5-2.1-5.1-3.2-7.7
			c-0.3-0.6-0.7-1.1-1.3-1.4s-1.2-0.6-1.8-0.6v-1.3h9v1.4c-0.4,0-0.9,0.1-1.4,0.2c-0.6,0.2-0.8,0.3-0.8,0.5c0,0.1,0,0.2,0.1,0.4
			c0.1,0.2,0.1,0.4,0.2,0.6c0.5,1.3,1.3,3.2,2.3,5.7s1.8,4.5,2.4,5.9c0.6-1.4,1.2-2.9,1.9-4.4c0.6-1.5,1.4-3.3,2.2-5.4
			c0.1-0.3,0.2-0.6,0.4-1c0.2-0.4,0.3-0.8,0.3-1.1c0-0.3-0.3-0.7-0.9-1s-1.2-0.5-1.7-0.5v-1.3h7.3v1.2c-0.4,0.1-0.9,0.3-1.6,0.7
			c-0.7,0.4-1.1,0.9-1.5,1.7c-1.6,3.7-3,7-4.2,10s-2.2,5.2-2.8,6.7c-0.8,1.9-1.6,3.3-2.2,4.4c-0.7,1-1.3,1.9-1.9,2.5
			s-1.2,0.9-1.7,1.1s-1,0.3-1.5,0.3c-1,0-1.8-0.2-2.4-0.7C411.8,108.5,411.5,107.9,411.5,107.3z"/>
		<path class="st0" d="M278.9,136.8c-1.7,0-3.3-0.3-4.8-1s-2.9-1.6-4.1-2.9c-1.2-1.2-2.1-2.8-2.8-4.6c-0.7-1.8-1.1-3.8-1.1-6.1
			c0-2.3,0.3-4.3,1-6.1c0.7-1.8,1.6-3.4,2.9-4.8c1.2-1.3,2.6-2.3,4.3-3.1c1.6-0.7,3.4-1.1,5.3-1.1c1.4,0,2.7,0.2,3.8,0.5
			s2.2,0.8,3.2,1.5l0.8-1.4h1.6l0.2,10.1h-1.6c-0.2-1-0.5-2-1-3.2c-0.4-1.1-0.9-2.1-1.5-2.9c-0.6-0.9-1.4-1.6-2.3-2.1
			s-1.9-0.8-3-0.8c-1.3,0-2.5,0.3-3.6,0.9s-2.1,1.4-2.9,2.5s-1.4,2.4-1.8,4.1s-0.7,3.5-0.7,5.6c0,1.8,0.2,3.5,0.7,5s1.1,2.8,2,4
			c0.8,1.1,1.9,2,3,2.7c1.2,0.6,2.5,1,3.9,1c1.1,0,2.1-0.2,3-0.5s1.7-0.8,2.3-1.3c0.7-0.6,1.2-1.2,1.8-2c0.5-0.7,0.9-1.6,1.2-2.4
			l1.5,0.7c-1.1,2.8-2.7,4.8-4.5,6C283.7,136.2,281.5,136.8,278.9,136.8z"/>
		<path class="st0" d="M307.8,131.5c-0.8,1.6-1.9,2.8-3.3,3.7s-3,1.4-4.8,1.4c-1.6,0-3-0.3-4.2-0.8c-1.2-0.6-2.2-1.3-2.9-2.3
			c-0.8-1-1.3-2.1-1.7-3.3c-0.4-1.3-0.6-2.6-0.6-4c0-1.3,0.2-2.5,0.6-3.8c0.4-1.2,1-2.3,1.8-3.3c0.8-0.9,1.7-1.7,2.8-2.3
			c1.1-0.6,2.4-0.9,3.8-0.9s2.7,0.2,3.7,0.7s1.9,1.1,2.5,1.9c0.6,0.7,1.1,1.6,1.4,2.6s0.4,2.1,0.4,3.3v1.3h-13
			c0,1.3,0.1,2.5,0.4,3.5c0.2,1.1,0.6,2,1.2,2.8c0.5,0.8,1.2,1.4,2,1.8c0.8,0.4,1.8,0.7,3,0.7s2.2-0.3,3.1-0.8s1.7-1.6,2.5-3
			L307.8,131.5z M303.4,124c0-0.7-0.1-1.5-0.2-2.4c-0.1-0.8-0.3-1.6-0.6-2.1c-0.3-0.6-0.7-1.1-1.3-1.5c-0.5-0.4-1.2-0.6-2.1-0.6
			c-1.4,0-2.6,0.6-3.5,1.7c-0.9,1.2-1.4,2.8-1.5,4.8L303.4,124L303.4,124z"/>
		<path class="st0" d="M329.9,136.1h-9.6v-1.3c0.3,0,0.6-0.1,1-0.1s0.7-0.1,0.9-0.2c0.4-0.1,0.6-0.3,0.8-0.6s0.3-0.7,0.3-1.2v-10.1
			c0-1.4-0.3-2.5-1-3.2s-1.5-1.1-2.4-1.1c-0.7,0-1.4,0.1-1.9,0.3c-0.6,0.2-1.1,0.5-1.6,0.8c-0.4,0.3-0.8,0.6-1,1
			c-0.3,0.4-0.4,0.6-0.6,0.8v11.3c0,0.5,0.1,0.8,0.3,1.1c0.2,0.3,0.5,0.5,0.8,0.7c0.3,0.1,0.6,0.2,0.9,0.3s0.7,0.1,1,0.1v1.3h-9.6
			v-1.3c0.3,0,0.6-0.1,0.9-0.1s0.6-0.1,0.8-0.2c0.4-0.1,0.6-0.3,0.8-0.6c0.2-0.3,0.3-0.7,0.3-1.2v-12.1c0-0.5-0.1-0.9-0.3-1.2
			c-0.2-0.4-0.5-0.7-0.8-0.9c-0.3-0.2-0.6-0.3-0.9-0.3c-0.3-0.1-0.7-0.1-1.1-0.1v-1.3l6.5-0.4l0.3,0.3v2.8h0.1
			c0.3-0.3,0.7-0.7,1.2-1.1s0.9-0.8,1.4-1.1c0.5-0.3,1.1-0.6,1.8-0.8s1.4-0.3,2.3-0.3c1.9,0,3.3,0.6,4.2,1.8
			c0.9,1.2,1.4,2.7,1.4,4.7v10.2c0,0.5,0.1,0.8,0.2,1.1c0.2,0.3,0.4,0.5,0.8,0.7c0.3,0.1,0.6,0.2,0.8,0.3c0.2,0.1,0.6,0.1,1,0.1
			L329.9,136.1L329.9,136.1z"/>
		<path class="st0" d="M342.7,135.2c-0.9,0.4-1.7,0.7-2.5,0.9s-1.7,0.4-2.8,0.4c-1.6,0-2.8-0.4-3.5-1.2s-1-2-1-3.5v-13.3h-3.5v-1.9
			h3.6v-6.1h3.6v6.1h5.6v1.9h-5.6v11c0,0.8,0,1.5,0.1,2.1s0.2,1,0.4,1.4c0.2,0.4,0.5,0.7,1,0.9c0.4,0.2,1,0.3,1.7,0.3
			c0.3,0,0.8,0,1.5-0.1c0.6-0.1,1.1-0.1,1.4-0.2L342.7,135.2L342.7,135.2z"/>
		<path class="st0" d="M357.9,119c0,0.7-0.2,1.3-0.5,1.8s-0.8,0.8-1.5,0.8s-1.3-0.2-1.7-0.6c-0.4-0.4-0.6-0.8-0.6-1.3
			c0-0.3,0-0.6,0.1-0.8c0-0.2,0.1-0.5,0.1-0.7c-0.6,0-1.4,0.3-2.2,0.8c-0.8,0.5-1.5,1.2-2.1,2.2v11.4c0,0.5,0.1,0.8,0.3,1.1
			c0.2,0.3,0.5,0.5,0.8,0.7c0.3,0.1,0.8,0.2,1.3,0.3s1,0.1,1.4,0.1v1.3h-10.4v-1.3c0.3,0,0.6-0.1,0.9-0.1s0.6-0.1,0.8-0.2
			c0.4-0.1,0.6-0.3,0.8-0.6c0.2-0.3,0.3-0.7,0.3-1.2v-12.1c0-0.4-0.1-0.8-0.3-1.2c-0.2-0.4-0.5-0.7-0.8-1c-0.3-0.2-0.6-0.3-0.9-0.3
			c-0.3-0.1-0.7-0.1-1.1-0.1v-1.3l6.5-0.4l0.3,0.3v2.8h0.1c0.8-1.1,1.7-1.9,2.7-2.5s1.9-0.8,2.8-0.8s1.5,0.3,2,0.8
			C357.6,117.3,357.9,118.1,357.9,119z"/>
		<path class="st0" d="M375.2,131.5c-0.8,1.6-1.9,2.8-3.3,3.7s-3,1.4-4.8,1.4c-1.6,0-3-0.3-4.2-0.8c-1.2-0.6-2.2-1.3-2.9-2.3
			c-0.8-1-1.3-2.1-1.7-3.3c-0.4-1.3-0.6-2.6-0.6-4c0-1.3,0.2-2.5,0.6-3.8c0.4-1.2,1-2.3,1.8-3.3c0.8-0.9,1.7-1.7,2.8-2.3
			c1.1-0.6,2.4-0.9,3.8-0.9s2.7,0.2,3.7,0.7s1.9,1.1,2.5,1.9c0.6,0.7,1.1,1.6,1.4,2.6s0.4,2.1,0.4,3.3v1.3h-13
			c0,1.3,0.1,2.5,0.4,3.5c0.2,1.1,0.6,2,1.2,2.8c0.5,0.8,1.2,1.4,2,1.8c0.8,0.4,1.8,0.7,3,0.7s2.2-0.3,3.1-0.8s1.7-1.6,2.5-3
			L375.2,131.5z M370.8,124c0-0.7-0.1-1.5-0.2-2.4c-0.1-0.8-0.3-1.6-0.6-2.1c-0.3-0.6-0.7-1.1-1.3-1.5c-0.5-0.4-1.2-0.6-2.1-0.6
			c-1.4,0-2.6,0.6-3.5,1.7c-0.9,1.2-1.4,2.8-1.5,4.8L370.8,124L370.8,124z"/>
	</g>
</g>
</svg>
