<?xml version="1.0" encoding="utf-8"?>
<!-- Generator: Adobe Illustrator 19.2.1, SVG Export Plug-In . SVG Version: 6.00 Build 0)  -->
<svg version="1.1" xmlns="http://www.w3.org/2000/svg" xmlns:xlink="http://www.w3.org/1999/xlink" x="0px" y="0px"
	 viewBox="0 0 809.5 550.6" style="enable-background:new 0 0 809.5 550.6;" xml:space="preserve">
<style type="text/css">
	.st0{display:none;}
	.st1{fill:#FFFFFF;stroke:#FFFFFF;stroke-miterlimit:10;}
</style>
<g id="Layer_1" class="st0">
</g>
<g id="Layer_2">
	<g>
		<g>
			<path class="st1" d="M224.9,375.4c-6.4,1.5-11.7,2.7-18.3,4.2c5.3-6.2,9.9-11.5,14.3-16.9c6.2-7.4,6.4-4.7,0.9-13.8
				c-3.6-5.9-7.2-11.8-11.5-18.9c9,3.7,16.7,6.8,24.3,10.1c3.1,1.4,5.1,0.8,7.2-1.8c5.3-6.5,10.9-12.9,16.9-19.8
				c-0.6,9.5-1,18.1-1.8,26.6c-0.3,3.1,0.8,4.5,3.5,5.5c7.7,3,15.3,6.3,22.9,10.5c-7.6,1.8-15.3,3.9-22.9,5.5
				c-3.8,0.8-5.7,2.3-5.9,6.4c-0.4,7.9-1.2,15.8-2.7,24c-3.1-4.7-6.1-9.4-8.9-13.8c-5.2,10.8-10.9,21.2-15.2,32
				c-4.2,10.6-3.8,21.6,1.9,31.9c2.8,5,6.6,6.5,12.2,4.9c6-1.8,10.7-5.4,14.3-10.4c4.9-6.7,9.5-13.7,14.6-20.3
				c1.7-2.3,4.2-4.3,6.7-5.6c1.6-0.9,4.7-1,5.9,0c1.1,1,1.3,4,0.7,5.9c-1.8,6.4-4.6,12.5-5.9,19c-1.3,6.3-1.3,12.9-1.7,19.3
				c-0.1,1.3,0.9,2.7,1.4,4.1c1.5-0.6,3.4-0.8,4.3-1.8c6.8-8.1,13.3-16.6,20.2-24.7c2-2.4,4.7-4.7,7.6-5.7c3.4-1.2,6.1,0.9,6.6,4.8
				c0.4,3.5,0.6,7,0.9,10.4c0.6,5.6,4.1,8.5,9.2,6.5c4.6-1.9,9.9-4.3,12.7-8.2c10.3-14,25.3-21.9,39-31.6c1.1-0.7,2.4-1.4,3.7-1.5
				c2.7-0.1,6.7-0.9,7.9,0.5c2.9,3.4,1.9,9-1.5,11.6c-5.6,4.4-11.5,8.5-17.4,12.6c-2.8,2-5.7,4-8.6,6c-1.1,0.8-2.1,1.7-3,2.6
				c-4.7,4.8-6.7,12.4-4.3,16.9c2,3.8,9.4,5.7,16,3.8c3-0.9,6-2.3,8.5-4.1c10.9-8.1,21.9-16,30.7-26.8c8.6-10.6,19.1-19.6,31.9-25.1
				c3.3-1.4,7.3-3.8,10.1-0.2c2.9,3.7,2.4,8.9-0.9,12c-6.9,6.5-14.4,12.2-21.7,18.3c-3.3,2.7-7.1,5.1-10,8.2
				c-2.2,2.3-3.4,5.6-5.1,8.5c0.6,0.4,1.1,0.9,1.7,1.3c4.2-3.4,8.4-6.7,12.5-10.2c4.9-4.2,9.4-9,14.6-12.9c2.7-2,6.6-2.6,9.9-3.8
				c1,3.4,2.1,6.7,2.9,10.2c0.7,3.3,0.6,6.9,1.7,10c1.3,3.7,4.5,4.4,7.7,2.1c3.4-2.4,6.7-5,9.6-8c9.9-10.2,17.7-21.9,25.4-35.7
				c-7.3,0-13.3,0.2-19.4,0c-7.3-0.3-8.2-1.5-7.9-8.9c0.3-6.6,1.5-7.6,8.8-7.5c7.3,0.1,14.7,0.2,22,0.5c2.8,0.1,4.6-0.8,5.7-3.6
				c1.2-3.1,2.7-6.1,4.3-9c0.8-1.6,1.7-3.6,3.1-4.4c2.4-1.4,5.7-3.4,7.7-2.7c3.7,1.4,3.1,5.2,1.8,8.6c-1.3,3.2-2.2,6.6-3.3,9.8
				c5.4,2.7,6.2,5.5,4.3,14.8c-1.2,6-6.6,1.8-10,4c-5.1,16.7-10.8,33.8-11.1,52c0.4,0.3,0.8,0.7,1.3,1c2.5-1.7,5.1-3.2,7.5-5
				c11.4-8.5,21-18.9,29.9-30c4.5-5.6,11.6-4.7,15.3,1.5c0.9,1.5,1.1,3.4,1.5,5.2c1,5,1.4,10.3,2.9,15.1c1.7,5.6,5.1,6.7,10,3.4
				c4.7-3.2,9-6.9,13.2-10.7c9.8-9,19.6-18,29.1-27.4c3.7-3.6,7.3-3.8,12.1-2.3c-0.6,2-1.1,3.6-1.4,4.7c5.6,0,11.5-1.2,16.6,0.3
				c6.4,1.9,7.4,8.4,7.3,16c4.1-4.9,7.7-8.4,10.4-12.6c2.9-4.5,7.3-5.7,11.7-6.9c3.9-1.1,8.2,2.9,7.9,7.5c-0.3,4.8-1.1,9.6-2.4,14.2
				c-1.9,6.6-4.4,13-6.6,19.6c0.5,0.3,0.9,0.5,1.4,0.8c1.2-1.3,2.3-2.6,3.5-3.8c6.1-6.3,12-13,18.5-18.9c7.6-6.8,14.8-5.1,19.4,4
				c1.5,3,2.6,6.1,3.8,9.2c2.3,6.1,5.5,7.2,11.2,3.7c1.2-0.7,2.5-1.5,3.8-2.2c2.1,8.9-1.6,15.1-10.9,19.3c-5.8,2.6-10.8,0.7-15.7-6
				c-1.8-2.4-3.2-5.1-4.8-7.6c-3.8-5.9-5.2-6.4-10.4-1.9c-4.9,4.3-9.4,9-13.9,13.6c-4.6,4.8-9,9.8-13.6,14.6
				c-1.1,1.2-2.6,2.2-4.1,2.6c-6.3,2-8.7,0.4-7.7-5.9c1.2-7.7,3.5-15.2,5.3-22.8c0.8-3.5,1.5-7.1,2.5-11.6c-6.3,0.9-10,4.3-13.4,8
				c-4.7,5-8.8,10.6-14,14.9c-5,4.2-10.8,7.5-16.7,10.5c-7,3.6-13.9,2-19.5-2.9c-5-4.4-4.7-10.7-3.5-16.8c0.4-1.9,0.8-3.8,1.6-7.1
				c-3.8,3.3-6.5,5.9-9.4,8.2c-4.7,3.7-9.3,7.7-14.4,10.7c-8.3,4.9-14.9,2.9-19.6-5.5c-1.9-3.3-3.4-6.8-5.2-10.2
				c-3-5.6-4.7-6-9.4-1.6c-8.5,7.8-16.8,15.7-25.2,23.6c-2.7,2.5-5.5,4.9-8.2,7.3c-2.6,2.3-5.3,3.2-8.6,1.3c-3.3-1.8-6-3.8-5.4-8.1
				c1.6-11.3,3.3-22.6,5-34c0.2-1.4,0.6-2.8,0.1-4.8c-1.1,1.3-2.2,2.6-3.4,3.8c-8,8-15.9,16.1-24.3,23.7c-2.5,2.3-6.4,3.7-9.9,4.2
				c-9.2,1.4-14.1-2.7-15.5-11.9c-0.3-1.9-0.7-3.8-1.3-6.7c-2,1.5-3.5,2.4-4.8,3.5c-5.6,5-10.9,10.4-16.6,15.1
				c-3.4,2.8-7.3,5.4-11.4,7c-8.4,3.2-13.1-0.9-11.9-9.7c0.2-1.6,0.6-3.2,1-5.7c-3.6,2.7-6.5,4.8-9.4,6.9
				c-7.6,5.5-15.6,10.2-25.1,11.8c-14.1,2.4-22.4-3.3-25.2-17.3c-0.2-1.2-0.6-2.5-0.9-3.8c-4.5,2.8-8.5,5.8-12.9,7.9
				c-10.1,4.9-16.5,2.1-20.1-8.5c-0.4-1.2-1-2.3-1.9-4.3c-3.7,4.4-6.7,8.3-10.1,11.8c-3.7,3.9-7.3,7.9-11.6,10.9
				c-8.8,6.2-17.4,2.1-18.7-8.6c-0.6-4.8-1-9.5-1.7-15.7c-2.5,2-4.4,3.4-6.1,5c-5.2,5.2-11.3,8.7-18.7,9.7
				c-7.3,0.9-13.3-0.8-16.9-7.7c-2.5-5-4.6-10.2-7.3-16.3c-1.7,1.8-3.3,3.4-4.8,5.2c-7.5,8.9-14.9,17.9-22.6,26.6
				c-3.4,3.8-7.8,6-13.3,5.3c-4.9-0.7-6.7-3.4-6.2-7.8c0.4-3.7,1.4-7.4,2.3-11.9c-2.4,1.5-4.3,3-6.4,4c-4,1.9-8.1,4.2-12.4,5.1
				c-7.8,1.5-15.6,0.9-20.8-6.3c-6.5-9-8.1-19-3.9-29.4c4.7-11.5,10.8-22.2,21.4-29.5c1.6-1.1,3.2-2.4,4.9-3.4
				c4.9-2.6,10.2-2.1,13.5,1.1c3.3,3.1,4.5,8.7,1.9,13.4c-2.5,4.5-5.6,8.7-9.1,12.4c-4.1,4.4-8.8,8.1-13.4,12
				c-2.4,2.1-5.7,4.2-3.5,7.7c1.8,2.8,4.5,5.7,7.5,6.9c2.6,1,6.3,0.2,9.2-0.6c7.2-2.1,12.8-6.6,18-12.1
				c11.1-11.7,21.8-23.9,34.3-34.1c6.5-5.3,10.5-10.6,12.6-18.3C220.4,385.1,222.7,380.8,224.9,375.4z M272.9,360.6c0-0.5,0-1,0-1.5
				c-3.9-1.7-7.9-3.4-11.8-5c-8.3-3.4-8.2-3.4-7.1-12.5c0.5-4,0.6-8,0.9-12c-0.5-0.1-0.9-0.3-1.4-0.4c-3.4,4-7.1,7.8-10.2,12
				c-2.4,3.3-4.8,3.8-8.5,2c-4.8-2.3-9.9-4.1-14.9-6.1c-0.3,0.4-0.5,0.7-0.8,1.1c2.3,3.8,4.6,7.6,6.9,11.4c4.2,6.9,4.2,6.8-0.9,12.8
				c-3,3.5-5.9,7-8.8,10.5c5.2,0,9.7-1,14.2-2.1c7.5-1.8,7.5-1.8,11.5,4.7c2.4,4,4.9,7.9,7.3,11.9c0.4-0.2,0.9-0.4,1.3-0.7
				c0.4-5.4,1.1-10.9,1.2-16.3c0-3.7,1.5-5.4,5-6.1C262.1,363.3,267.5,361.9,272.9,360.6z M638.4,442.3c-1.6-2.5-2.6-6.2-4.2-6.4
				c-3.3-0.5-8.1-0.4-10.1,1.6c-5.2,5.2-9.3,11.4-13.5,17.5c-1.1,1.6-1.2,4.2-1.2,6.3c0.1,5.3,3.7,7.8,8.3,5.1
				c4.8-2.8,9.8-6,13.4-10.1C634.5,452.6,635.9,447.4,638.4,442.3z M181.5,458.9c0.5,0.5,1,0.9,1.6,1.4c1.2-0.8,2.7-1.4,3.5-2.5
				c7.9-10.2,15.8-20.5,23.3-31c1.2-1.7,0.6-4.7,0.9-7.2c-0.5-0.1-1-0.2-1.5-0.3C198.3,431.3,187.9,443.7,181.5,458.9z M137.5,430.5
				c7.1-1.5,12.2-7.5,11.1-12.5C143.9,418.9,138.6,424.6,137.5,430.5z"/>
			<g>
				<path class="st1" d="M360,158.4c-5.8-0.8-11.2-1.6-16.7-2.4c0-0.4,0.1-0.8,0.1-1.2c5.5,0,11.1,0,16.8,0c0-9.7,0-19.1-0.1-28.5
					c0-0.9-0.7-1.8-1.3-2.6c-9.4-12.9-7.9-26.7-2.4-40.4c2.3-5.8,6.3-10.9,9.2-16.5c0.8-1.5,1.2-3.9,0.4-5.2
					c-4.3-7.8-4.7-15.8-2-24.1c1.2-3.8,1.4-7.5-2.4-10.1c-5.7-3.8-4.8-10.6-7.4-15.8c-0.4-0.9-0.8-1.8-1.5-3.2
					c-3.4,2.3-6.7,4.5-10.2,6.8c4.7-13.1,23-17.9,32-12.2c4.1,2.6,8.4,2.6,13.1,2.8c11.7,0.6,23.4,1.8,34.8,4.3
					c5.3,1.2,10,3.3,15.8,2.2c3-0.6,6.6,0.4,9.7,1.4c4.9,1.7,9.9,3.4,14.1,6.1c3,2,4.8,5.7,7.7,9.5c-7,1.9-8.4-4.2-13.1-5.5
					c-2,2.8-3.9,6.3-6.6,8.9c-2.9,2.8-6.3,5.3-9.9,7c-3,1.4-3.9,3-4,6c-0.1,4.3-0.6,8.5-1,12.6c8.8,13.5,16.7,27.8,20.3,43.9
					c0.9,4.1,0.5,8.7-0.1,12.9c-0.7,5.7,1.2,10.4,4.2,14.9c8.3,12.8,8.2,23.6-0.5,36.6c-1.4,2.1-1,5.9-0.4,8.7
					c1.2,5.8,0.9,8.3-4.2,10c-4,1.3-8.7,0.3-11.4-2.7c-1.6-1.8-1.5-5.8-1.1-8.7c0.4-2.6,2.2-5,3.7-8.1c-1.6,0-2.7-0.3-3.1,0
					c-7.3,6.5-14.4,13.2-14.5,24.2c-0.1,8.3-0.3,16.6-0.2,24.9c0,4-1.3,6.2-5.4,6.8c-2.7,0.4-5.3,1.9-8,2.1c-6.4,0.5-9.5-4.8-7.4-11
					c3.7-11,7.1-22.1,10-33.3c1.6-5.9-0.4-7.1-6.5-6.2c-2.8,0.4-5.9-0.5-8.6-1.3c-3.5-1.1-6.8-2.5-10.1-4.1c-3.1-1.5-6-3.4-9.7-5.6
					c-0.6,2.3-1.4,4.2-1.4,6.2c0,4.4-0.3,9.1,0.9,13.3c2.2,7.8-1.6,14.3-3.3,21.2c-1.4,5.4-7.1,4.9-11.2,5.6
					c-1.9,0.3-4.6-2.3-6.4-4.1c-3-3-2.3-6.2,0.2-9.3c4.3-5.4,7.7-11.2,8.2-17.7c-3.6,2.3-7.1,5.2-11.1,7c-5,2.3-7.7-2.2-9.6-5.4
					c-0.8-1.4,1.1-5.4,2.9-7.1C355.6,168.3,359.2,164.4,360,158.4z"/>
			</g>
			<path class="st1" d="M793.4,280c0-11.1,0-21.5,0-32.2c5.4,0,10.4,0,15.6,0c0,37.6,0,75.1,0,112.6c-0.3,0.2-0.5,0.5-0.8,0.5
				c-17.6,0.1-35.3,0.4-52.9,0c-8.7-0.2-15.4-7.5-15.6-16.5c-0.3-15.8-0.3-31.6,0-47.4c0.2-9.9,7.8-16.9,17.9-17
				C769.3,280,780.9,280,793.4,280z M756.4,296.4c0,16.6,0,32.6,0,48.5c12.5,0,24.5,0,36.5,0c0-16.3,0-32.3,0-48.5
				C780.5,296.4,768.6,296.4,756.4,296.4z"/>
			<path class="st1" d="M139.8,328.8c-17.9,0-35.4,0-53.1,0c0,5.6,0,10.6,0,16.3c17.6,0,35,0,52.3,0c0.5,7.7-5.6,15.5-13.4,15.8
				c-13.6,0.5-27.3,0.5-41,0c-7.3-0.2-14.1-7.3-14.2-14.5c-0.3-21.7-0.1-43.3-0.1-65c0-0.3,0.3-0.6,0.7-1.3c6.9,0,14,0,21.1,0
				c10,0,20-0.1,30,0c10.2,0.2,17.3,7.2,17.4,17.3C139.9,307.7,139.8,318,139.8,328.8z M123.4,312.4c0-5.7,0-10.7,0-16
				c-12.4,0-24.4,0-36.5,0c0,5.5,0,10.7,0,16C99.2,312.4,111.1,312.4,123.4,312.4z"/>
			<path class="st1" d="M391.6,312.7c17.5,0,34.8,0,52.4,0c0-5.6,0-10.8,0-16.5c-17.5,0-34.9,0-52.2,0c-0.4-8.2,6.4-15.7,15-16
				c12.6-0.4,25.3-0.4,37.9,0c7.9,0.2,15.4,7,15.5,14.4c0.3,21.9,0.1,43.9,0.1,66.3c-1.7,0.2-3.1,0.4-4.5,0.4
				c-15.3,0-30.6,0.1-45.9,0c-12-0.1-18.8-6.8-18.9-18.9c-0.1-9.2,0-18.3,0.1-27.5C391.2,314.4,391.4,313.9,391.6,312.7z M444.2,345
				c0-5.6,0-10.6,0-15.7c-12.4,0-24.6,0-36.5,0c0,5.5,0,10.5,0,15.7C420,345,431.9,345,444.2,345z"/>
			<path class="st1" d="M225.8,328.8c-18.2,0-35.4,0-53.1,0c0,5.3,0,10.4,0,16.3c2.3,0,4.7,0,7.1,0c9.8,0,19.7,0.3,29.5-0.1
				c5.3-0.3,9,1,10.9,6.1c0.4,1.1,1.1,2,1.8,3.2c-2.8,4.4-6.9,6.7-12,6.8c-12.7,0.2-25.3,0.3-38,0c-8.3-0.2-15.5-7.2-15.6-15.3
				c-0.3-21.6-0.1-43.3-0.1-65.7c1.8,0,3.3,0,4.9,0c15.2,0,30.3,0,45.5,0c12,0,18.9,6.9,19,18.8
				C225.9,308.7,225.8,318.5,225.8,328.8z M209.5,296.4c-12.5,0-24.6,0-36.7,0c0,5.5,0,10.7,0,15.9c12.4,0,24.5,0,36.7,0
				C209.5,306.9,209.5,302,209.5,296.4z"/>
			<path class="st1" d="M653.5,321.1c0,7.7,0.1,15.3,0,23c-0.1,9.7-6.8,16.8-16.6,17.1c-12.2,0.3-24.3,0.3-36.5,0
				c-9.2-0.2-16.1-7.1-16.3-16.3c-0.3-16-0.3-32,0-48c0.2-9.6,7.4-16.6,17-16.7c11.8-0.2,23.7-0.2,35.5,0c9.4,0.2,16.5,7.6,16.8,17
				c0,0.3,0,0.7,0,1C653.5,305.8,653.5,313.5,653.5,321.1z M600.4,344.7c12.2,0,24.4,0,36.7,0c0-16.1,0-32.1,0-48.2
				c-12.4,0-24.5,0-36.7,0C600.4,312.6,600.4,328.4,600.4,344.7z"/>
			<g>
				<path class="st1" d="M264.2,345c17.3,0,34.5,0,52.1,0c0-5.4,0-10.5,0-16.2c-10,0-20,0-29.9,0c-4.2,0-8.4,0.1-12.4-0.5
					c-6.7-1.1-10.1-4.7-10.4-11.4c-0.3-7.1-0.4-14.3-0.1-21.5c0.4-8.1,7.9-15.1,16.4-15.3c12.8-0.2,25.6-0.3,38.5,0.1
					c10.2,0.3,14.4,5.1,14,15.8c-17.4,0-34.8,0-52.6,0c0,5.8,0,11,0,16.9c7.1,0,14.2,0,21.3,0c4.8,0,9.7-0.1,14.5,0
					c9.6,0.2,16.7,6.9,17.2,16.5c0.2,5.3,0.2,10.7,0,16c-0.5,9.2-6.9,14.8-16,16c-18.4,2.4-34.7-3.6-50.7-11.4c-1.3-0.6-2-2.4-3-3.6
					C263.4,345.9,263.8,345.5,264.2,345z"/>
			</g>
			<path class="st1" d="M514.1,247.5c0,5.8,0,10.7,0,16.1c-6.8,0-13.4,0-20.3,0c0,11,0,21.6,0,32.6c4.4,0,8.7,0,13.3,0
				c0,5.4,0,10.4,0,16c-4.3,0-8.7,0-13.6,0c0,16.6,0,32.5,0,48.7c-5.6,0-10.6,0-16.4,0c0-2.3,0-4.2,0-6.2c0-28.8,0-57.6,0-86.4
				c0-14.3,6.5-20.8,20.6-20.8C503,247.5,508.3,247.5,514.1,247.5z"/>
			<path class="st1" d="M546.8,361c-5.7,0-10.7,0-16.3,0c0-1.7,0-3.3,0-4.9c0-29.6,0-59.3,0-88.9c0-12.6,6.8-19.5,19.3-19.7
				c5.6-0.1,11.3,0,17.4,0c0,5.4,0,10.4,0,16c-6.5,0-13.1,0-20.1,0c0,11,0,21.5,0,32.7c4.3,0,8.6,0,13.2,0c0,5.6,0,10.7,0,16.3
				c-4.5,0-8.7,0-13.5,0C546.8,328.8,546.8,344.6,546.8,361z"/>
			<g>
				<path class="st1" d="M0.6,280.3c5.5,0,10.5,0,16,0c0,21.6,0,43,0,64.9c10.9,0,21.2,0.3,31.5-0.1c4.7-0.2,6.2,1.3,5.8,5.9
					c-0.3,3.1-0.1,6.3-0.1,9.6c-1.2,0.3-2.1,0.7-3.1,0.7c-11.2,0-22.3,0.2-33.5,0c-9.1-0.2-16.5-7.1-16.6-16
					C0.4,323.7,0.6,302.2,0.6,280.3z"/>
			</g>
			<path class="st1" d="M723.2,280c0,5.6,0,10.4,0,15.9c-12.2,0-24.2,0-36.9,0c0,22,0,43.4,0,65c-5.6,0-10.5,0-15.9,0
				c-0.1-1.9-0.3-3.7-0.3-5.4c0-18.7,0-37.3,0-56c0-12.7,6.8-19.5,19.4-19.5C700.6,280,711.7,280,723.2,280z"/>
			<path class="st1" d="M349.4,264.1c5.6,0,10.4,0,15.7,0c0,5.1,0,10.1,0,15.8c3.2,0.1,6,0.3,9,0.4c0,5.2,0,10.3,0,15.6
				c-2.7,0.2-5.3,0.3-8.5,0.5c0,21.5,0,42.8,0,64.2c-8.9,0.6-16.2-6.8-16.2-16.1c-0.1-19.2,0-38.3,0-57.5
				C349.4,279.5,349.4,272,349.4,264.1z"/>
			<path class="st1" d="M569.9,371.7c0.6,1,2.5,2.8,2.3,4.4c-0.9,8.5-3.6,16.4-11.5,20.9c-2.4,1.4-6.5,1.8-8.8,0.6
				c-1.9-1-3.1-4.9-3.2-7.6C548.5,383,561.3,371.5,569.9,371.7z"/>
			<path class="st1" d="M649.7,541.2c0-5.4-0.1-10.9,0.1-16.3c0.1-1.2,1.4-2.4,2.1-3.6c0.7,1.2,2.1,2.4,2.1,3.6
				c0.2,6.7,0.2,13.3,0,20c0,1.5-1.2,3-1.8,4.5c-1.9-0.9-4.7-1.2-5.6-2.7c-3.1-5.1-5.6-10.5-8.4-15.9c-0.4-0.7-0.9-1.3-1.3-2
				c-0.5,0-1,0-1.4,0.1c0,4.5,0.2,9-0.1,13.4c-0.2,2.3-1.5,6.7-1.9,6.6c-4.4-0.6-2.4-4.2-2.5-6.6c-0.3-5.5-0.3-11,0-16.5
				c0.1-1.6,1.7-4.5,2.2-4.4c2,0.4,4.6,1.2,5.5,2.7c3,4.8,5.2,10,7.8,15c0.4,0.8,1.1,1.5,1.7,2.3
				C648.8,541.4,649.2,541.3,649.7,541.2z"/>
			<path class="st1" d="M376,529.1c0,5.2,0.2,10.4-0.1,15.7c-0.1,1.5-1.5,3-2.3,4.5c-0.7-1.4-2-2.9-2-4.4c-0.2-6.5-0.2-13,0-19.5
				c0.1-1.4,1.6-4,2.2-3.9c1.8,0.2,4.3,1,5.2,2.4c2.8,4.5,4.9,9.4,7.4,14.1c0.6,1.2,1.5,2.3,2.2,3.5c0.4-0.1,0.8-0.2,1.3-0.3
				c0-5.1-0.2-10.1,0.1-15.2c0.1-1.6,1.3-3.1,2-4.7c0.8,1.5,2.1,3,2.2,4.5c0.3,6.3,0.3,12.7,0,19c-0.1,1.6-1.4,3.1-2.2,4.6
				c-1.8-1-4.4-1.6-5.3-3.2c-2.9-4.6-5.1-9.7-7.7-14.6c-0.5-1-1.1-1.8-1.7-2.8C376.7,528.9,376.4,529,376,529.1z"/>
			<path class="st1" d="M697.8,541.1c0-5.1-0.2-10.3,0.1-15.4c0.1-1.5,1.5-3,2.2-4.4c0.7,1.4,2,2.8,2.1,4.2c0.2,6.5,0.2,13,0,19.5
				c-0.1,1.5-1.3,2.9-2,4.4c-1.8-0.9-4.3-1.3-5.1-2.7c-2.9-4.8-5.3-10-7.9-15c-0.5-1-1.2-1.9-3.1-2.8c0,3.3,0,6.6,0,9.9
				c0,2.7,0.2,5.3-0.1,8c-0.1,0.9-1.4,1.7-2.2,2.6c-0.7-0.7-1.7-1.4-2-2.2c-0.4-0.9-0.1-2-0.1-3c0-7.4,0-14.9,0-22.1
				c4.4-1.7,6.7-0.6,8.4,3.2c2.5,5.5,5.5,10.8,8.3,16.2C696.9,541.3,697.3,541.2,697.8,541.1z"/>
			<path class="st1" d="M223.4,548.5c-3.3,1.6-5.2,1-6.2-2.1c-0.9-2.5-1.6-5.2-3.2-7.3c-0.9-1.3-3.2-1.6-5.9-2.8
				c0,4,0.2,6.8-0.1,9.6c-0.2,1.2-1.6,2.3-2.4,3.4c-0.9-1-2.5-1.9-2.5-2.9c-0.2-7.5-0.2-15,0-22.5c0-0.9,1.7-2.6,2.7-2.6
				c3.5-0.2,7.1-0.4,10.4,0.6c2.3,0.7,5.2,3.1,5.6,5.1c0.4,2.1-1.9,4.7-3.1,7c-0.3,0.5-1,0.8-1,0.9
				C219.6,539.6,221.4,543.9,223.4,548.5z M208.4,534.5c3.4-1.5,5.9-2.3,8-3.7c0.6-0.4,0.4-3.6-0.3-4c-2.2-1.3-4.7-1.8-7.7-2.8
				C208.4,527.9,208.4,530.3,208.4,534.5z"/>
			<path class="st1" d="M325.7,535.1c0-1.2-0.3-2.5,0.1-3.5c1.3-3.4-3.4-9.2,2.9-10.3c11.1-1.9,19.1,2.4,20.3,10.2
				c0.8,5.2,0.7,10.5-3.9,14.2c-5.2,4.1-11.5,3.7-17.6,3.3c-0.6,0-1.6-1.9-1.7-3C325.5,542.5,325.7,538.8,325.7,535.1
				C325.7,535.1,325.7,535.1,325.7,535.1z M332.5,524.6c-0.5,0.7-2.1,1.9-2.2,3.3c-0.3,4.8-0.4,9.6,0,14.4c0.1,1.2,2.2,3.2,3.5,3.3
				c5.9,0.2,10.4-4.5,10.4-10.3C344.2,529.5,339.7,524.8,332.5,524.6z"/>
			<path class="st1" d="M262.5,535.2c0-9.3,4.6-14.3,13.4-14.3c8.7,0,13.7,5.1,13.9,14c0.1,9-5.2,14.7-13.9,14.7
				C267.4,549.6,262.5,544.4,262.5,535.2z M284.7,535.1c0-6.2-3.5-10.6-8.6-10.7c-5.1-0.1-8.8,4.2-8.9,10.4
				c-0.1,6.4,3.5,11.2,8.6,11.3C281,546.3,284.7,541.6,284.7,535.1z"/>
			<path class="st1" d="M733.7,524.5c-3.7,0-6.5-0.2-9.2,0c-5.7,0.4-9.6,5.2-9.4,11.4c0.2,5.7,4.6,10.2,10.1,10.3
				c2.2,0,4.7,0.3,4.5-3c-0.1-2.5,1.4-6-3.4-6.2c-0.9,0-1.7-0.6-3.2-1.2c2.9-3.6,6.4-2.2,9.3-1.9c0.8,0.1,1.2,2.9,1.8,4.4
				c0.1,0.1,0,0.3,0,0.5c-1.1,3.6,2.9,9.1-3.8,10.6c-8.1,1.9-16.4-1.2-19.1-7.1c-2.5-5.6-1.4-13.2,2.5-17.3
				c3.3-3.5,13.2-5.6,17.8-3.6C732.4,521.8,732.9,523.2,733.7,524.5z"/>
			<path class="st1" d="M437.8,521.2c4,0,7.2-0.2,10.3,0.1c3.3,0.3,7,0.6,8,4.6c1.1,4,0,7.3-4.2,8.9c2.1,4.7,4.1,9.1,6.2,13.8
				c-3.4,1.5-5.4,0.8-6.4-2.4c-0.7-2-1.2-4.3-2.5-5.9c-1.1-1.4-3.1-2-4.7-2.9c-0.7,1.4-1.7,2.8-2.1,4.4c-0.4,1.6,0.2,3.4-0.2,5
				c-0.2,1-1.4,1.8-2.1,2.7c-0.8-0.8-2.2-1.7-2.2-2.6C437.7,538.5,437.8,530.2,437.8,521.2z M444.8,534c0.8,0.1,1.6,0.2,2.4,0.3
				c1.5-1.8,3-3.5,4.4-5.3c-1.9-1.4-3.6-3.6-5.7-4.2c-3.3-1-3.9,1.9-3.4,4.3C442.8,530.8,444,532.4,444.8,534z"/>
			<path class="st1" d="M311.7,534.9c2,4.7,4,9.2,6,13.8c-3.5,1.3-5.4,0.6-6.4-2.5c-0.8-2.5-1.7-5.2-3.2-7.2
				c-0.9-1.2-3.2-1.4-5.9-2.5c0,4,0.2,6.8-0.1,9.6c-0.1,1.1-1.3,2.2-2,3.2c-0.8-1-2.3-2-2.3-3c-0.2-7.3-0.2-14.6,0-22
				c0-1,1.2-2.9,1.7-2.9c4.6,0.2,9.4,0.1,13.7,1.4c3.8,1.1,4.2,7.2,1.2,10.2C313.4,533.9,312.3,534.5,311.7,534.9z M301.8,532.5
				c0.6,0.5,1.1,1.1,1.7,1.6c2.4-1,5-1.7,7-3.2c0.6-0.5,0.1-4-0.9-4.7c-1.6-1.1-5.4-1.8-5.8-1.2
				C302.5,527.1,302.4,529.9,301.8,532.5z"/>
			<path class="st1" d="M617.5,534.8c2.1,4.8,4,9.1,5.8,13.4c-0.4,0.5-0.8,1-1.3,1.5c-1.5-1-3.5-1.7-4.5-3.1
				c-1.2-1.5-1.6-3.6-2.3-5.5c-1.1-3.1-3.1-4.6-7.2-3.4c0,2.8,0.2,5.7-0.1,8.6c-0.1,1-1.2,1.9-1.9,2.9c-0.9-0.9-2.6-1.8-2.6-2.7
				c-0.2-7.5-0.2-14.9,0-22.4c0-1,1.8-2.6,3-2.8c2.2-0.4,4.6-0.3,6.9-0.1c3.5,0.3,7.2,0.9,8.4,4.9
				C623.1,530.4,621.1,533.2,617.5,534.8z M608.4,523.7c0,4.2,0,6.7,0,10.4c3.1-1.1,5.7-1.7,7.9-2.9c0.6-0.4,0.7-3.6,0.1-4
				C614.2,525.8,611.7,525,608.4,523.7z"/>
			<path class="st1" d="M230,548.5c3.2-8.3,6.4-16.7,9.8-24.9c0.5-1.1,2.4-2.2,3.7-2.2c1.3,0,3.3,1.1,3.7,2.2
				c3.5,8.2,6.7,16.5,10,25c-3.2,1.6-5.3,1-6-2.1c-0.9-4-3.7-4.1-6.9-3.9c-3.4,0.2-7.4-1.3-8.9,3.9c-0.4,1.4-2.6,2.3-4,3.4
				C230.9,549.4,230.4,549,230,548.5z M238.5,538.7c3.8,0,6.3,0,9.8,0c-1.6-4.4-2.9-8-4.2-11.7c-0.5,0.1-1,0.1-1.4,0.2
				C241.4,530.8,240.1,534.4,238.5,538.7z"/>
			<path class="st1" d="M568.7,548.2c3.2-8.2,6.2-16.4,9.6-24.4c0.5-1.2,2.3-2.4,3.6-2.4c1.3-0.1,3.5,0.8,3.9,1.9
				c3.5,8.4,6.7,16.9,10,25.4c-3.3,1.5-5.3,0.8-6.1-2.3c-1.3-5.4-5.6-3.4-8.9-3.7c-2.9-0.3-5.5-0.1-6.6,3.5c-0.5,1.5-2.6,2.5-4,3.8
				C569.7,549.3,569.2,548.8,568.7,548.2z M586.9,538.8c-1.5-4.4-2.9-8.1-4.2-11.9c-0.4,0-0.9,0-1.3,0c-1.3,3.8-2.6,7.5-4.1,11.9
				C580.7,538.8,583.4,538.8,586.9,538.8z"/>
			<path class="st1" d="M428,549.8c-1.5-1-3.8-1.8-4.2-3.1c-1.5-5.5-5.6-4-9.2-4.2c-3.2-0.2-5.7,0.1-6.8,4c-0.4,1.4-2.7,2.3-4.1,3.4
				c-0.5-0.4-1-0.8-1.5-1.2c3.4-8.7,6.7-17.4,10.3-26c1-2.4,5.8-2.2,6.9,0.3c3.5,8.4,6.7,16.8,10,25.3
				C428.9,548.8,428.4,549.3,428,549.8z M410.8,538.8c3.6,0,6.2,0,9.6,0c-1.4-4.3-2.7-8.1-4-11.9c-0.5,0-0.9-0.1-1.4-0.1
				C413.7,530.5,412.4,534.3,410.8,538.8z"/>
			<path class="st1" d="M168.4,549.1c-8.9,1.1-7.8-7.8-12.4-10.2c-4.8,2.2-3.6,11.1-12.4,10.4c2.6-4.2,4.7-7.8,7.1-11.2
				c1.6-2.4,1.8-4.3,0.1-6.7c-2.1-2.9-3.8-6.1-5.8-9.3c3.2-0.7,3.2-0.7,11.2,8.7c4.5-1.8,3.4-10.1,11.4-9.3c-2.3,3.8-4.6,6.8-6,10.2
				c-0.8,1.8-0.8,4.5,0,6.2C163.2,541.4,165.7,544.8,168.4,549.1z"/>
			<path class="st1" d="M544.8,521.2c5,0,9.4-0.1,13.9,0.1c0.8,0,1.5,1.2,2.3,1.8c-0.7,0.5-1.4,1.3-2.2,1.4c-1.5,0.2-3,0.2-4.5,0.1
				c-2.9-0.2-4.8,0.3-4.8,3.9c0,3.4,1.2,4.7,4.7,4.7c1.9,0,3.9,1.2,5.8,1.8c-1.9,0.5-3.7,1.1-5.7,1.5c-1.3,0.3-2.6,0.2-3.8,0.3
				c-2.2,7.6-1.4,8.8,5.9,9c1.6,0.1,3.2,0.5,5.5,1c-3,2.5-14.5,3.5-16.1,1.9c-0.5-0.5-0.8-1.4-0.8-2.2
				C544.8,538.3,544.8,530.1,544.8,521.2z"/>
			<path class="st1" d="M138.1,546.6c-3.2,2.8-14.7,3.8-16.4,2.2c-0.5-0.5-0.9-1.4-0.9-2.2c-0.1-8.3,0-16.5,0-25.4
				c5,0,9.4-0.1,13.9,0.1c0.7,0,1.4,1,2,1.6c-0.7,0.6-1.3,1.5-2,1.6c-1.4,0.3-3,0.2-4.5,0.1c-3.1-0.2-5,0.4-5,4.2
				c0,3.8,1.9,4.3,5,4.4c2,0.1,3.9,1.2,5.8,1.8c-1.9,0.5-3.8,1.5-5.7,1.4c-3.4-0.1-5.2,0.7-5.1,4.6c0,3.9,1.8,4.8,5.2,4.8
				C132.6,545.8,134.9,546.3,138.1,546.6z"/>
			<path class="st1" d="M462.1,521.3c9.1-0.7,7.7,8.3,12.5,11.2c4.8-2.5,3.6-11.3,12.2-11.4c-2.1,3.6-3.6,6.6-5.4,9.4
				c-3,4.5-5.1,9.2-4.5,14.9c0.1,1.2-1.5,2.6-2.4,4c-0.8-1.3-2.5-2.8-2.4-4c1-7-2.8-12-6.1-17.4C464.7,526,463.7,524,462.1,521.3z"
				/>
			<path class="st1" d="M181.9,525.2c-1.3-0.3-1.8-0.4-2.2-0.5c-1.9-0.7-3.8-1.3-5.8-2c2.1-0.5,4.1-1.3,6.2-1.4
				c3.5-0.2,7-0.2,10.5,0c1.5,0.1,2.9,1.1,4.4,1.7c-1.4,0.5-2.7,1.2-4.1,1.6c-0.9,0.3-2,0.2-3.8,0.4c0,6.6,0.1,13.1,0,19.7
				c0,1.9,0.9,5-2.6,4.5c-1-0.2-2.3-2.8-2.4-4.4C181.8,538.3,181.9,531.9,181.9,525.2z"/>
			<path class="st1" d="M535,549.1c-4.9,0-9.9,0.1-14.8-0.1c-0.5,0-1.4-2.1-1.4-3.2c-0.1-7-0.2-14,0-20.9c0-1.2,1.4-2.4,2.1-3.6
				c0.8,1.1,2.3,2.3,2.4,3.4c0.3,5.3,0.3,10.6,0.1,15.9c-0.1,3.8,1.2,5.5,5.2,5.3c2.1-0.1,4.3,0.4,6.4,0.6
				C535.1,547.4,535,548.2,535,549.1z"/>
			<path class="st1" d="M362.1,539.5c0,2.5,0.2,5-0.1,7.4c-0.1,0.8-1.2,1.6-1.9,2.3c-0.8-0.8-2.4-1.5-2.4-2.3
				c-0.2-4.9-0.2-9.9,0-14.8c0-0.9,1.4-1.7,2.2-2.6c0.7,0.9,2,1.7,2.1,2.6C362.3,534.6,362.1,537.1,362.1,539.5z"/>
			<path class="st1" d="M669.1,539.4c0,2.5,0.2,5-0.1,7.5c-0.1,0.8-1.2,1.6-1.8,2.4c-0.8-0.8-2.3-1.6-2.3-2.4c-0.2-5-0.2-10,0-14.9
				c0-0.8,1.5-1.6,2.3-2.4c0.6,0.8,1.7,1.5,1.8,2.4C669.3,534.4,669.1,536.9,669.1,539.4z"/>
			<path class="st1" d="M670.3,522.5c-1.7,1-2.8,2.1-3.3,1.9c-0.9-0.3-1.5-1.5-2.3-2.3c0.8-0.6,1.5-1.6,2.3-1.7
				C667.9,520.4,668.7,521.4,670.3,522.5z"/>
			<path class="st1" d="M360.1,518.9c1,1.8,2,2.9,1.8,3.4c-0.3,0.9-1.4,1.8-2.3,2c-0.5,0.1-1.9-1.3-1.8-2
				C357.8,521.5,358.9,520.7,360.1,518.9z"/>
		</g>
	</g>
	<g>
		<path class="st1" d="M229.4,366c7.1-5.5,8.2-11.1,1.8-17.7c7.9,4.9,13.5,3.2,17.8-4.8c-2.6,8.6-0.1,13.8,8.4,15.9
			c-3,1-7,1.2-8.7,3.2c-1.8,2.1-1.5,6.1-2.2,9.9c-2.2-3-3.6-6.7-6.2-7.7C237.6,363.7,234,365.3,229.4,366z"/>
	</g>
</g>
</svg>
